<mxfile host="app.diagrams.net" agent="Mozilla/5.0 (Windows NT 10.0; Win64; x64) AppleWebKit/537.36 (KHTML, like Gecko) Chrome/140.0.0.0 Safari/537.36 Edg/140.0.0.0" version="28.2.5">
  <diagram name="Page-1" id="-UG_emhSfTHQtcgu8o9z">
    <mxGraphModel dx="1018" dy="470" grid="1" gridSize="10" guides="1" tooltips="1" connect="1" arrows="1" fold="1" page="1" pageScale="1" pageWidth="850" pageHeight="1100" math="0" shadow="0">
      <root>
        <mxCell id="0" />
        <mxCell id="1" parent="0" />
        <mxCell id="bxG6T7_YVZRhOUYlfCPM-12" style="edgeStyle=orthogonalEdgeStyle;rounded=0;orthogonalLoop=1;jettySize=auto;html=1;exitX=1;exitY=0.5;exitDx=0;exitDy=0;entryX=0;entryY=0.5;entryDx=0;entryDy=0;" edge="1" parent="1" source="M6-bgXXWYcyRra1eUZJ4-72" target="bxG6T7_YVZRhOUYlfCPM-3">
          <mxGeometry relative="1" as="geometry" />
        </mxCell>
        <mxCell id="bxG6T7_YVZRhOUYlfCPM-209" style="edgeStyle=orthogonalEdgeStyle;rounded=0;orthogonalLoop=1;jettySize=auto;html=1;exitX=0;exitY=0.5;exitDx=0;exitDy=0;entryX=1;entryY=0.5;entryDx=0;entryDy=0;" edge="1" parent="1" source="bxG6T7_YVZRhOUYlfCPM-181" target="bxG6T7_YVZRhOUYlfCPM-201">
          <mxGeometry relative="1" as="geometry" />
        </mxCell>
        <mxCell id="bxG6T7_YVZRhOUYlfCPM-272" style="edgeStyle=orthogonalEdgeStyle;rounded=0;orthogonalLoop=1;jettySize=auto;html=1;exitX=1;exitY=0.5;exitDx=0;exitDy=0;entryX=0;entryY=0.5;entryDx=0;entryDy=0;" edge="1" parent="1" source="bxG6T7_YVZRhOUYlfCPM-241" target="bxG6T7_YVZRhOUYlfCPM-262">
          <mxGeometry relative="1" as="geometry" />
        </mxCell>
        <mxCell id="bxG6T7_YVZRhOUYlfCPM-258" style="edgeStyle=orthogonalEdgeStyle;rounded=0;orthogonalLoop=1;jettySize=auto;html=1;exitX=0.5;exitY=1;exitDx=0;exitDy=0;entryX=0;entryY=0.5;entryDx=0;entryDy=0;" edge="1" parent="1" source="bxG6T7_YVZRhOUYlfCPM-228" target="bxG6T7_YVZRhOUYlfCPM-232">
          <mxGeometry relative="1" as="geometry" />
        </mxCell>
        <mxCell id="M6-bgXXWYcyRra1eUZJ4-1" value="&lt;b&gt;&lt;font style=&quot;font-size: 18px;&quot;&gt;Key&lt;br&gt;Early Start - ES&lt;/font&gt;&lt;/b&gt;&lt;div&gt;&lt;b&gt;&lt;font size=&quot;3&quot;&gt;Early Finish - EF&lt;br&gt;&lt;/font&gt;&lt;/b&gt;&lt;div&gt;&lt;b&gt;&lt;font size=&quot;3&quot;&gt;Late Start - LS&lt;/font&gt;&lt;/b&gt;&lt;/div&gt;&lt;/div&gt;&lt;div&gt;&lt;b&gt;&lt;font size=&quot;3&quot;&gt;Late Finish - LF&lt;/font&gt;&lt;/b&gt;&lt;/div&gt;&lt;div&gt;&lt;b&gt;&lt;font size=&quot;3&quot;&gt;Float - F&lt;/font&gt;&lt;/b&gt;&lt;/div&gt;&lt;div&gt;&lt;b&gt;&lt;font size=&quot;3&quot;&gt;Duration (Days) - D&lt;/font&gt;&lt;/b&gt;&lt;/div&gt;&lt;div&gt;&lt;b&gt;&lt;font size=&quot;3&quot;&gt;&lt;br&gt;Critical Path Highlighted in Red&lt;/font&gt;&lt;/b&gt;&lt;/div&gt;" style="rounded=0;whiteSpace=wrap;html=1;align=left;" parent="1" vertex="1">
          <mxGeometry y="330" width="330" height="200" as="geometry" />
        </mxCell>
        <mxCell id="M6-bgXXWYcyRra1eUZJ4-12" value="" style="group" parent="1" vertex="1" connectable="0">
          <mxGeometry x="200" y="360" width="120" height="100" as="geometry" />
        </mxCell>
        <mxCell id="M6-bgXXWYcyRra1eUZJ4-2" value="&lt;font size=&quot;3&quot;&gt;&lt;b&gt;WBS Number&lt;/b&gt;&lt;/font&gt;" style="rounded=0;whiteSpace=wrap;html=1;" parent="M6-bgXXWYcyRra1eUZJ4-12" vertex="1">
          <mxGeometry width="120" height="100" as="geometry" />
        </mxCell>
        <mxCell id="M6-bgXXWYcyRra1eUZJ4-5" value="ES" style="rounded=0;whiteSpace=wrap;html=1;" parent="M6-bgXXWYcyRra1eUZJ4-12" vertex="1">
          <mxGeometry width="40" height="20" as="geometry" />
        </mxCell>
        <mxCell id="M6-bgXXWYcyRra1eUZJ4-7" value="D" style="rounded=0;whiteSpace=wrap;html=1;" parent="M6-bgXXWYcyRra1eUZJ4-12" vertex="1">
          <mxGeometry x="40" width="40" height="20" as="geometry" />
        </mxCell>
        <mxCell id="M6-bgXXWYcyRra1eUZJ4-8" value="EF" style="rounded=0;whiteSpace=wrap;html=1;" parent="M6-bgXXWYcyRra1eUZJ4-12" vertex="1">
          <mxGeometry x="80" width="40" height="20" as="geometry" />
        </mxCell>
        <mxCell id="M6-bgXXWYcyRra1eUZJ4-9" value="LS" style="rounded=0;whiteSpace=wrap;html=1;" parent="M6-bgXXWYcyRra1eUZJ4-12" vertex="1">
          <mxGeometry y="80" width="40" height="20" as="geometry" />
        </mxCell>
        <mxCell id="M6-bgXXWYcyRra1eUZJ4-10" value="F" style="rounded=0;whiteSpace=wrap;html=1;" parent="M6-bgXXWYcyRra1eUZJ4-12" vertex="1">
          <mxGeometry x="40" y="80" width="40" height="20" as="geometry" />
        </mxCell>
        <mxCell id="M6-bgXXWYcyRra1eUZJ4-11" value="LF" style="rounded=0;whiteSpace=wrap;html=1;" parent="M6-bgXXWYcyRra1eUZJ4-12" vertex="1">
          <mxGeometry x="80" y="80" width="40" height="20" as="geometry" />
        </mxCell>
        <mxCell id="M6-bgXXWYcyRra1eUZJ4-13" value="" style="group;strokeColor=light-dark(transparent,#FF0700);" parent="1" vertex="1" connectable="0">
          <mxGeometry y="200" width="120" height="100" as="geometry" />
        </mxCell>
        <mxCell id="M6-bgXXWYcyRra1eUZJ4-14" value="&lt;font size=&quot;3&quot;&gt;&lt;b&gt;1.1&lt;/b&gt;&lt;/font&gt;" style="rounded=0;whiteSpace=wrap;html=1;strokeColor=light-dark(transparent,#FF0700);" parent="M6-bgXXWYcyRra1eUZJ4-13" vertex="1">
          <mxGeometry width="120" height="100" as="geometry" />
        </mxCell>
        <mxCell id="M6-bgXXWYcyRra1eUZJ4-15" value="0" style="rounded=0;whiteSpace=wrap;html=1;strokeColor=light-dark(transparent,#FF0700);" parent="M6-bgXXWYcyRra1eUZJ4-13" vertex="1">
          <mxGeometry width="40" height="20" as="geometry" />
        </mxCell>
        <mxCell id="M6-bgXXWYcyRra1eUZJ4-16" value="2" style="rounded=0;whiteSpace=wrap;html=1;strokeColor=light-dark(transparent,#FF0700);" parent="M6-bgXXWYcyRra1eUZJ4-13" vertex="1">
          <mxGeometry x="40" width="40" height="20" as="geometry" />
        </mxCell>
        <mxCell id="M6-bgXXWYcyRra1eUZJ4-17" value="2" style="rounded=0;whiteSpace=wrap;html=1;strokeColor=light-dark(transparent,#FF0700);" parent="M6-bgXXWYcyRra1eUZJ4-13" vertex="1">
          <mxGeometry x="80" width="40" height="20" as="geometry" />
        </mxCell>
        <mxCell id="M6-bgXXWYcyRra1eUZJ4-18" value="0" style="rounded=0;whiteSpace=wrap;html=1;strokeColor=light-dark(transparent,#FF0700);" parent="M6-bgXXWYcyRra1eUZJ4-13" vertex="1">
          <mxGeometry y="80" width="40" height="20" as="geometry" />
        </mxCell>
        <mxCell id="M6-bgXXWYcyRra1eUZJ4-19" value="0" style="rounded=0;whiteSpace=wrap;html=1;strokeColor=light-dark(transparent,#FF0700);" parent="M6-bgXXWYcyRra1eUZJ4-13" vertex="1">
          <mxGeometry x="40" y="80" width="40" height="20" as="geometry" />
        </mxCell>
        <mxCell id="M6-bgXXWYcyRra1eUZJ4-20" value="2" style="rounded=0;whiteSpace=wrap;html=1;strokeColor=light-dark(transparent,#FF0700);" parent="M6-bgXXWYcyRra1eUZJ4-13" vertex="1">
          <mxGeometry x="80" y="80" width="40" height="20" as="geometry" />
        </mxCell>
        <mxCell id="M6-bgXXWYcyRra1eUZJ4-21" value="" style="group;strokeColor=light-dark(transparent,#FF0700);" parent="1" vertex="1" connectable="0">
          <mxGeometry x="240" y="200" width="120" height="100" as="geometry" />
        </mxCell>
        <mxCell id="M6-bgXXWYcyRra1eUZJ4-22" value="&lt;font size=&quot;3&quot;&gt;&lt;b&gt;1.2&lt;/b&gt;&lt;/font&gt;" style="rounded=0;whiteSpace=wrap;html=1;strokeColor=light-dark(transparent,#FF0700);" parent="M6-bgXXWYcyRra1eUZJ4-21" vertex="1">
          <mxGeometry width="120" height="100" as="geometry" />
        </mxCell>
        <mxCell id="M6-bgXXWYcyRra1eUZJ4-23" value="2" style="rounded=0;whiteSpace=wrap;html=1;strokeColor=light-dark(transparent,#FF0700);" parent="M6-bgXXWYcyRra1eUZJ4-21" vertex="1">
          <mxGeometry width="40" height="20" as="geometry" />
        </mxCell>
        <mxCell id="M6-bgXXWYcyRra1eUZJ4-24" value="2" style="rounded=0;whiteSpace=wrap;html=1;strokeColor=light-dark(transparent,#FF0700);" parent="M6-bgXXWYcyRra1eUZJ4-21" vertex="1">
          <mxGeometry x="40" width="40" height="20" as="geometry" />
        </mxCell>
        <mxCell id="M6-bgXXWYcyRra1eUZJ4-25" value="4" style="rounded=0;whiteSpace=wrap;html=1;strokeColor=light-dark(transparent,#FF0700);" parent="M6-bgXXWYcyRra1eUZJ4-21" vertex="1">
          <mxGeometry x="80" width="40" height="20" as="geometry" />
        </mxCell>
        <mxCell id="M6-bgXXWYcyRra1eUZJ4-26" value="2" style="rounded=0;whiteSpace=wrap;html=1;strokeColor=light-dark(transparent,#FF0700);" parent="M6-bgXXWYcyRra1eUZJ4-21" vertex="1">
          <mxGeometry y="80" width="40" height="20" as="geometry" />
        </mxCell>
        <mxCell id="M6-bgXXWYcyRra1eUZJ4-27" value="0" style="rounded=0;whiteSpace=wrap;html=1;strokeColor=light-dark(transparent,#FF0700);" parent="M6-bgXXWYcyRra1eUZJ4-21" vertex="1">
          <mxGeometry x="40" y="80" width="40" height="20" as="geometry" />
        </mxCell>
        <mxCell id="M6-bgXXWYcyRra1eUZJ4-28" value="4" style="rounded=0;whiteSpace=wrap;html=1;strokeColor=light-dark(transparent,#FF0700);" parent="M6-bgXXWYcyRra1eUZJ4-21" vertex="1">
          <mxGeometry x="80" y="80" width="40" height="20" as="geometry" />
        </mxCell>
        <mxCell id="M6-bgXXWYcyRra1eUZJ4-29" value="" style="group;strokeColor=light-dark(transparent,#FF0700);" parent="1" vertex="1" connectable="0">
          <mxGeometry x="480" y="200" width="120" height="100" as="geometry" />
        </mxCell>
        <mxCell id="M6-bgXXWYcyRra1eUZJ4-30" value="&lt;font size=&quot;3&quot;&gt;&lt;b&gt;1.3.1&lt;/b&gt;&lt;/font&gt;" style="rounded=0;whiteSpace=wrap;html=1;strokeColor=light-dark(transparent,#FF0700);" parent="M6-bgXXWYcyRra1eUZJ4-29" vertex="1">
          <mxGeometry width="120" height="100" as="geometry" />
        </mxCell>
        <mxCell id="M6-bgXXWYcyRra1eUZJ4-31" value="4" style="rounded=0;whiteSpace=wrap;html=1;strokeColor=light-dark(transparent,#FF0700);" parent="M6-bgXXWYcyRra1eUZJ4-29" vertex="1">
          <mxGeometry width="40" height="20" as="geometry" />
        </mxCell>
        <mxCell id="M6-bgXXWYcyRra1eUZJ4-32" value="4" style="rounded=0;whiteSpace=wrap;html=1;strokeColor=light-dark(transparent,#FF0700);" parent="M6-bgXXWYcyRra1eUZJ4-29" vertex="1">
          <mxGeometry x="40" width="40" height="20" as="geometry" />
        </mxCell>
        <mxCell id="M6-bgXXWYcyRra1eUZJ4-33" value="8" style="rounded=0;whiteSpace=wrap;html=1;strokeColor=light-dark(transparent,#FF0700);" parent="M6-bgXXWYcyRra1eUZJ4-29" vertex="1">
          <mxGeometry x="80" width="40" height="20" as="geometry" />
        </mxCell>
        <mxCell id="M6-bgXXWYcyRra1eUZJ4-34" value="4" style="rounded=0;whiteSpace=wrap;html=1;strokeColor=light-dark(transparent,#FF0700);" parent="M6-bgXXWYcyRra1eUZJ4-29" vertex="1">
          <mxGeometry y="80" width="40" height="20" as="geometry" />
        </mxCell>
        <mxCell id="M6-bgXXWYcyRra1eUZJ4-35" value="0" style="rounded=0;whiteSpace=wrap;html=1;strokeColor=light-dark(transparent,#FF0700);" parent="M6-bgXXWYcyRra1eUZJ4-29" vertex="1">
          <mxGeometry x="40" y="80" width="40" height="20" as="geometry" />
        </mxCell>
        <mxCell id="M6-bgXXWYcyRra1eUZJ4-36" value="8" style="rounded=0;whiteSpace=wrap;html=1;strokeColor=light-dark(transparent,#FF0700);" parent="M6-bgXXWYcyRra1eUZJ4-29" vertex="1">
          <mxGeometry x="80" y="80" width="40" height="20" as="geometry" />
        </mxCell>
        <mxCell id="M6-bgXXWYcyRra1eUZJ4-37" value="" style="group;strokeColor=light-dark(transparent,#FF0700);" parent="1" vertex="1" connectable="0">
          <mxGeometry x="720" y="200" width="120" height="100" as="geometry" />
        </mxCell>
        <mxCell id="M6-bgXXWYcyRra1eUZJ4-38" value="&lt;font size=&quot;3&quot;&gt;&lt;b&gt;1.3.2&lt;/b&gt;&lt;/font&gt;" style="rounded=0;whiteSpace=wrap;html=1;strokeColor=light-dark(transparent,#FF0700);" parent="M6-bgXXWYcyRra1eUZJ4-37" vertex="1">
          <mxGeometry width="120" height="100" as="geometry" />
        </mxCell>
        <mxCell id="M6-bgXXWYcyRra1eUZJ4-39" value="8" style="rounded=0;whiteSpace=wrap;html=1;strokeColor=light-dark(transparent,#FF0700);" parent="M6-bgXXWYcyRra1eUZJ4-37" vertex="1">
          <mxGeometry width="40" height="20" as="geometry" />
        </mxCell>
        <mxCell id="M6-bgXXWYcyRra1eUZJ4-40" value="5" style="rounded=0;whiteSpace=wrap;html=1;strokeColor=light-dark(transparent,#FF0700);" parent="M6-bgXXWYcyRra1eUZJ4-37" vertex="1">
          <mxGeometry x="40" width="40" height="20" as="geometry" />
        </mxCell>
        <mxCell id="M6-bgXXWYcyRra1eUZJ4-41" value="13" style="rounded=0;whiteSpace=wrap;html=1;strokeColor=light-dark(transparent,#FF0700);" parent="M6-bgXXWYcyRra1eUZJ4-37" vertex="1">
          <mxGeometry x="80" width="40" height="20" as="geometry" />
        </mxCell>
        <mxCell id="M6-bgXXWYcyRra1eUZJ4-42" value="8" style="rounded=0;whiteSpace=wrap;html=1;strokeColor=light-dark(transparent,#FF0700);" parent="M6-bgXXWYcyRra1eUZJ4-37" vertex="1">
          <mxGeometry y="80" width="40" height="20" as="geometry" />
        </mxCell>
        <mxCell id="M6-bgXXWYcyRra1eUZJ4-43" value="0" style="rounded=0;whiteSpace=wrap;html=1;strokeColor=light-dark(transparent,#FF0700);" parent="M6-bgXXWYcyRra1eUZJ4-37" vertex="1">
          <mxGeometry x="40" y="80" width="40" height="20" as="geometry" />
        </mxCell>
        <mxCell id="M6-bgXXWYcyRra1eUZJ4-44" value="13" style="rounded=0;whiteSpace=wrap;html=1;strokeColor=light-dark(transparent,#FF0700);" parent="M6-bgXXWYcyRra1eUZJ4-37" vertex="1">
          <mxGeometry x="80" y="80" width="40" height="20" as="geometry" />
        </mxCell>
        <mxCell id="M6-bgXXWYcyRra1eUZJ4-45" value="" style="group;strokeColor=light-dark(transparent,#FF0700);" parent="1" vertex="1" connectable="0">
          <mxGeometry x="960" y="200" width="120" height="100" as="geometry" />
        </mxCell>
        <mxCell id="M6-bgXXWYcyRra1eUZJ4-46" value="&lt;font size=&quot;3&quot;&gt;&lt;b&gt;1.4&lt;/b&gt;&lt;/font&gt;" style="rounded=0;whiteSpace=wrap;html=1;strokeColor=light-dark(transparent,#FF0700);" parent="M6-bgXXWYcyRra1eUZJ4-45" vertex="1">
          <mxGeometry width="120" height="100" as="geometry" />
        </mxCell>
        <mxCell id="M6-bgXXWYcyRra1eUZJ4-47" value="13" style="rounded=0;whiteSpace=wrap;html=1;strokeColor=light-dark(transparent,#FF0700);" parent="M6-bgXXWYcyRra1eUZJ4-45" vertex="1">
          <mxGeometry width="40" height="20" as="geometry" />
        </mxCell>
        <mxCell id="M6-bgXXWYcyRra1eUZJ4-53" style="edgeStyle=orthogonalEdgeStyle;rounded=0;orthogonalLoop=1;jettySize=auto;html=1;exitX=0.25;exitY=0;exitDx=0;exitDy=0;strokeColor=light-dark(transparent,#FF0700);" parent="M6-bgXXWYcyRra1eUZJ4-45" source="M6-bgXXWYcyRra1eUZJ4-48" edge="1">
          <mxGeometry relative="1" as="geometry">
            <mxPoint x="50" y="10" as="targetPoint" />
          </mxGeometry>
        </mxCell>
        <mxCell id="M6-bgXXWYcyRra1eUZJ4-48" value="3" style="rounded=0;whiteSpace=wrap;html=1;strokeColor=light-dark(transparent,#FF0700);" parent="M6-bgXXWYcyRra1eUZJ4-45" vertex="1">
          <mxGeometry x="40" width="40" height="20" as="geometry" />
        </mxCell>
        <mxCell id="M6-bgXXWYcyRra1eUZJ4-49" value="16" style="rounded=0;whiteSpace=wrap;html=1;strokeColor=light-dark(transparent,#FF0700);" parent="M6-bgXXWYcyRra1eUZJ4-45" vertex="1">
          <mxGeometry x="80" width="40" height="20" as="geometry" />
        </mxCell>
        <mxCell id="M6-bgXXWYcyRra1eUZJ4-50" value="13" style="rounded=0;whiteSpace=wrap;html=1;strokeColor=light-dark(transparent,#FF0700);" parent="M6-bgXXWYcyRra1eUZJ4-45" vertex="1">
          <mxGeometry y="80" width="40" height="20" as="geometry" />
        </mxCell>
        <mxCell id="M6-bgXXWYcyRra1eUZJ4-51" value="0" style="rounded=0;whiteSpace=wrap;html=1;strokeColor=light-dark(transparent,#FF0700);" parent="M6-bgXXWYcyRra1eUZJ4-45" vertex="1">
          <mxGeometry x="40" y="80" width="40" height="20" as="geometry" />
        </mxCell>
        <mxCell id="M6-bgXXWYcyRra1eUZJ4-52" value="16" style="rounded=0;whiteSpace=wrap;html=1;strokeColor=light-dark(transparent,#FF0700);" parent="M6-bgXXWYcyRra1eUZJ4-45" vertex="1">
          <mxGeometry x="80" y="80" width="40" height="20" as="geometry" />
        </mxCell>
        <mxCell id="M6-bgXXWYcyRra1eUZJ4-54" style="edgeStyle=orthogonalEdgeStyle;rounded=0;orthogonalLoop=1;jettySize=auto;html=1;exitX=1;exitY=0.5;exitDx=0;exitDy=0;entryX=0;entryY=0.5;entryDx=0;entryDy=0;strokeColor=light-dark(transparent,#FF0700);" parent="1" source="M6-bgXXWYcyRra1eUZJ4-14" target="M6-bgXXWYcyRra1eUZJ4-22" edge="1">
          <mxGeometry relative="1" as="geometry" />
        </mxCell>
        <mxCell id="M6-bgXXWYcyRra1eUZJ4-55" style="edgeStyle=orthogonalEdgeStyle;rounded=0;orthogonalLoop=1;jettySize=auto;html=1;exitX=1;exitY=0.5;exitDx=0;exitDy=0;entryX=0;entryY=0.5;entryDx=0;entryDy=0;strokeColor=light-dark(transparent,#FF0700);" parent="1" source="M6-bgXXWYcyRra1eUZJ4-22" target="M6-bgXXWYcyRra1eUZJ4-30" edge="1">
          <mxGeometry relative="1" as="geometry" />
        </mxCell>
        <mxCell id="M6-bgXXWYcyRra1eUZJ4-56" style="edgeStyle=orthogonalEdgeStyle;rounded=0;orthogonalLoop=1;jettySize=auto;html=1;exitX=1;exitY=0.5;exitDx=0;exitDy=0;entryX=0;entryY=0.5;entryDx=0;entryDy=0;strokeColor=light-dark(transparent,#FF0700);" parent="1" source="M6-bgXXWYcyRra1eUZJ4-30" target="M6-bgXXWYcyRra1eUZJ4-38" edge="1">
          <mxGeometry relative="1" as="geometry" />
        </mxCell>
        <mxCell id="M6-bgXXWYcyRra1eUZJ4-57" style="edgeStyle=orthogonalEdgeStyle;rounded=0;orthogonalLoop=1;jettySize=auto;html=1;exitX=1;exitY=0.5;exitDx=0;exitDy=0;entryX=0;entryY=0.5;entryDx=0;entryDy=0;strokeColor=light-dark(transparent,#FF0700);" parent="1" source="M6-bgXXWYcyRra1eUZJ4-38" target="M6-bgXXWYcyRra1eUZJ4-46" edge="1">
          <mxGeometry relative="1" as="geometry" />
        </mxCell>
        <mxCell id="M6-bgXXWYcyRra1eUZJ4-59" value="" style="group;strokeColor=light-dark(transparent,#FF0700);" parent="1" vertex="1" connectable="0">
          <mxGeometry x="1200" y="100" width="120" height="100" as="geometry" />
        </mxCell>
        <mxCell id="M6-bgXXWYcyRra1eUZJ4-60" value="&lt;font size=&quot;3&quot;&gt;&lt;b&gt;1.5.1&lt;/b&gt;&lt;/font&gt;" style="rounded=0;whiteSpace=wrap;html=1;strokeColor=light-dark(transparent,#FF0700);" parent="M6-bgXXWYcyRra1eUZJ4-59" vertex="1">
          <mxGeometry width="120" height="100" as="geometry" />
        </mxCell>
        <mxCell id="M6-bgXXWYcyRra1eUZJ4-61" value="16" style="rounded=0;whiteSpace=wrap;html=1;strokeColor=light-dark(transparent,#FF0700);" parent="M6-bgXXWYcyRra1eUZJ4-59" vertex="1">
          <mxGeometry width="40" height="20" as="geometry" />
        </mxCell>
        <mxCell id="M6-bgXXWYcyRra1eUZJ4-62" style="edgeStyle=orthogonalEdgeStyle;rounded=0;orthogonalLoop=1;jettySize=auto;html=1;exitX=0.25;exitY=0;exitDx=0;exitDy=0;strokeColor=light-dark(transparent,#FF0700);" parent="M6-bgXXWYcyRra1eUZJ4-59" source="M6-bgXXWYcyRra1eUZJ4-63" edge="1">
          <mxGeometry relative="1" as="geometry">
            <mxPoint x="50" y="10" as="targetPoint" />
          </mxGeometry>
        </mxCell>
        <mxCell id="M6-bgXXWYcyRra1eUZJ4-63" value="7" style="rounded=0;whiteSpace=wrap;html=1;strokeColor=light-dark(transparent,#FF0700);" parent="M6-bgXXWYcyRra1eUZJ4-59" vertex="1">
          <mxGeometry x="40" width="40" height="20" as="geometry" />
        </mxCell>
        <mxCell id="M6-bgXXWYcyRra1eUZJ4-64" value="23" style="rounded=0;whiteSpace=wrap;html=1;strokeColor=light-dark(transparent,#FF0700);" parent="M6-bgXXWYcyRra1eUZJ4-59" vertex="1">
          <mxGeometry x="80" width="40" height="20" as="geometry" />
        </mxCell>
        <mxCell id="M6-bgXXWYcyRra1eUZJ4-65" value="16" style="rounded=0;whiteSpace=wrap;html=1;strokeColor=light-dark(transparent,#FF0700);" parent="M6-bgXXWYcyRra1eUZJ4-59" vertex="1">
          <mxGeometry y="80" width="40" height="20" as="geometry" />
        </mxCell>
        <mxCell id="M6-bgXXWYcyRra1eUZJ4-66" value="0" style="rounded=0;whiteSpace=wrap;html=1;strokeColor=light-dark(transparent,#FF0700);" parent="M6-bgXXWYcyRra1eUZJ4-59" vertex="1">
          <mxGeometry x="40" y="80" width="40" height="20" as="geometry" />
        </mxCell>
        <mxCell id="M6-bgXXWYcyRra1eUZJ4-67" value="23" style="rounded=0;whiteSpace=wrap;html=1;strokeColor=light-dark(transparent,#FF0700);" parent="M6-bgXXWYcyRra1eUZJ4-59" vertex="1">
          <mxGeometry x="80" y="80" width="40" height="20" as="geometry" />
        </mxCell>
        <mxCell id="M6-bgXXWYcyRra1eUZJ4-71" value="" style="group" parent="1" vertex="1" connectable="0">
          <mxGeometry x="1200" y="320" width="120" height="100" as="geometry" />
        </mxCell>
        <mxCell id="M6-bgXXWYcyRra1eUZJ4-72" value="&lt;font size=&quot;3&quot;&gt;&lt;b&gt;1.5.2&lt;/b&gt;&lt;/font&gt;" style="rounded=0;whiteSpace=wrap;html=1;" parent="M6-bgXXWYcyRra1eUZJ4-71" vertex="1">
          <mxGeometry width="120" height="100" as="geometry" />
        </mxCell>
        <mxCell id="M6-bgXXWYcyRra1eUZJ4-73" value="16" style="rounded=0;whiteSpace=wrap;html=1;" parent="M6-bgXXWYcyRra1eUZJ4-71" vertex="1">
          <mxGeometry width="40" height="20" as="geometry" />
        </mxCell>
        <mxCell id="M6-bgXXWYcyRra1eUZJ4-74" style="edgeStyle=orthogonalEdgeStyle;rounded=0;orthogonalLoop=1;jettySize=auto;html=1;exitX=0.25;exitY=0;exitDx=0;exitDy=0;" parent="M6-bgXXWYcyRra1eUZJ4-71" source="M6-bgXXWYcyRra1eUZJ4-75" edge="1">
          <mxGeometry relative="1" as="geometry">
            <mxPoint x="50" y="10" as="targetPoint" />
          </mxGeometry>
        </mxCell>
        <mxCell id="M6-bgXXWYcyRra1eUZJ4-75" value="5" style="rounded=0;whiteSpace=wrap;html=1;" parent="M6-bgXXWYcyRra1eUZJ4-71" vertex="1">
          <mxGeometry x="40" width="40" height="20" as="geometry" />
        </mxCell>
        <mxCell id="M6-bgXXWYcyRra1eUZJ4-76" value="21" style="rounded=0;whiteSpace=wrap;html=1;" parent="M6-bgXXWYcyRra1eUZJ4-71" vertex="1">
          <mxGeometry x="80" width="40" height="20" as="geometry" />
        </mxCell>
        <mxCell id="M6-bgXXWYcyRra1eUZJ4-77" value="18" style="rounded=0;whiteSpace=wrap;html=1;" parent="M6-bgXXWYcyRra1eUZJ4-71" vertex="1">
          <mxGeometry y="80" width="40" height="20" as="geometry" />
        </mxCell>
        <mxCell id="M6-bgXXWYcyRra1eUZJ4-78" value="2" style="rounded=0;whiteSpace=wrap;html=1;" parent="M6-bgXXWYcyRra1eUZJ4-71" vertex="1">
          <mxGeometry x="40" y="80" width="40" height="20" as="geometry" />
        </mxCell>
        <mxCell id="M6-bgXXWYcyRra1eUZJ4-79" value="23" style="rounded=0;whiteSpace=wrap;html=1;" parent="M6-bgXXWYcyRra1eUZJ4-71" vertex="1">
          <mxGeometry x="80" y="80" width="40" height="20" as="geometry" />
        </mxCell>
        <mxCell id="M6-bgXXWYcyRra1eUZJ4-80" style="edgeStyle=orthogonalEdgeStyle;rounded=0;orthogonalLoop=1;jettySize=auto;html=1;exitX=1;exitY=0.5;exitDx=0;exitDy=0;entryX=0;entryY=0.5;entryDx=0;entryDy=0;" parent="1" source="M6-bgXXWYcyRra1eUZJ4-46" target="M6-bgXXWYcyRra1eUZJ4-72" edge="1">
          <mxGeometry relative="1" as="geometry" />
        </mxCell>
        <mxCell id="bxG6T7_YVZRhOUYlfCPM-2" value="" style="group;strokeColor=light-dark(transparent,#FF0700);" vertex="1" connectable="0" parent="1">
          <mxGeometry x="1440" y="200" width="120" height="100" as="geometry" />
        </mxCell>
        <mxCell id="bxG6T7_YVZRhOUYlfCPM-3" value="&lt;font size=&quot;3&quot;&gt;&lt;b&gt;1.5.3&lt;/b&gt;&lt;/font&gt;" style="rounded=0;whiteSpace=wrap;html=1;strokeColor=light-dark(transparent,#FF0700);" vertex="1" parent="bxG6T7_YVZRhOUYlfCPM-2">
          <mxGeometry width="120" height="100" as="geometry" />
        </mxCell>
        <mxCell id="bxG6T7_YVZRhOUYlfCPM-4" value="23" style="rounded=0;whiteSpace=wrap;html=1;strokeColor=light-dark(transparent,#FF0700);" vertex="1" parent="bxG6T7_YVZRhOUYlfCPM-2">
          <mxGeometry width="40" height="20" as="geometry" />
        </mxCell>
        <mxCell id="bxG6T7_YVZRhOUYlfCPM-5" style="edgeStyle=orthogonalEdgeStyle;rounded=0;orthogonalLoop=1;jettySize=auto;html=1;exitX=0.25;exitY=0;exitDx=0;exitDy=0;strokeColor=light-dark(transparent,#FF0700);" edge="1" parent="bxG6T7_YVZRhOUYlfCPM-2" source="bxG6T7_YVZRhOUYlfCPM-6">
          <mxGeometry relative="1" as="geometry">
            <mxPoint x="50" y="10" as="targetPoint" />
          </mxGeometry>
        </mxCell>
        <mxCell id="bxG6T7_YVZRhOUYlfCPM-6" value="3" style="rounded=0;whiteSpace=wrap;html=1;strokeColor=light-dark(transparent,#FF0700);" vertex="1" parent="bxG6T7_YVZRhOUYlfCPM-2">
          <mxGeometry x="40" width="40" height="20" as="geometry" />
        </mxCell>
        <mxCell id="bxG6T7_YVZRhOUYlfCPM-7" value="26" style="rounded=0;whiteSpace=wrap;html=1;strokeColor=light-dark(transparent,#FF0700);" vertex="1" parent="bxG6T7_YVZRhOUYlfCPM-2">
          <mxGeometry x="80" width="40" height="20" as="geometry" />
        </mxCell>
        <mxCell id="bxG6T7_YVZRhOUYlfCPM-8" value="23" style="rounded=0;whiteSpace=wrap;html=1;strokeColor=light-dark(transparent,#FF0700);" vertex="1" parent="bxG6T7_YVZRhOUYlfCPM-2">
          <mxGeometry y="80" width="40" height="20" as="geometry" />
        </mxCell>
        <mxCell id="bxG6T7_YVZRhOUYlfCPM-9" value="0" style="rounded=0;whiteSpace=wrap;html=1;strokeColor=light-dark(transparent,#FF0700);" vertex="1" parent="bxG6T7_YVZRhOUYlfCPM-2">
          <mxGeometry x="40" y="80" width="40" height="20" as="geometry" />
        </mxCell>
        <mxCell id="bxG6T7_YVZRhOUYlfCPM-10" value="26" style="rounded=0;whiteSpace=wrap;html=1;strokeColor=light-dark(transparent,#FF0700);" vertex="1" parent="bxG6T7_YVZRhOUYlfCPM-2">
          <mxGeometry x="80" y="80" width="40" height="20" as="geometry" />
        </mxCell>
        <mxCell id="bxG6T7_YVZRhOUYlfCPM-17" value="" style="group;strokeColor=light-dark(transparent,#FF0700);" vertex="1" connectable="0" parent="1">
          <mxGeometry x="1440" y="560" width="120" height="100" as="geometry" />
        </mxCell>
        <mxCell id="bxG6T7_YVZRhOUYlfCPM-18" value="&lt;font size=&quot;3&quot;&gt;&lt;b&gt;1.6.1&lt;/b&gt;&lt;/font&gt;" style="rounded=0;whiteSpace=wrap;html=1;strokeColor=light-dark(transparent,#FF0700);" vertex="1" parent="bxG6T7_YVZRhOUYlfCPM-17">
          <mxGeometry width="120" height="100" as="geometry" />
        </mxCell>
        <mxCell id="bxG6T7_YVZRhOUYlfCPM-19" value="26" style="rounded=0;whiteSpace=wrap;html=1;strokeColor=light-dark(transparent,#FF0700);" vertex="1" parent="bxG6T7_YVZRhOUYlfCPM-17">
          <mxGeometry width="40" height="20" as="geometry" />
        </mxCell>
        <mxCell id="bxG6T7_YVZRhOUYlfCPM-20" style="edgeStyle=orthogonalEdgeStyle;rounded=0;orthogonalLoop=1;jettySize=auto;html=1;exitX=0.25;exitY=0;exitDx=0;exitDy=0;strokeColor=light-dark(transparent,#FF0700);" edge="1" parent="bxG6T7_YVZRhOUYlfCPM-17" source="bxG6T7_YVZRhOUYlfCPM-21">
          <mxGeometry relative="1" as="geometry">
            <mxPoint x="50" y="10" as="targetPoint" />
          </mxGeometry>
        </mxCell>
        <mxCell id="bxG6T7_YVZRhOUYlfCPM-21" value="4" style="rounded=0;whiteSpace=wrap;html=1;strokeColor=light-dark(transparent,#FF0700);" vertex="1" parent="bxG6T7_YVZRhOUYlfCPM-17">
          <mxGeometry x="40" width="40" height="20" as="geometry" />
        </mxCell>
        <mxCell id="bxG6T7_YVZRhOUYlfCPM-22" value="30" style="rounded=0;whiteSpace=wrap;html=1;strokeColor=light-dark(transparent,#FF0700);" vertex="1" parent="bxG6T7_YVZRhOUYlfCPM-17">
          <mxGeometry x="80" width="40" height="20" as="geometry" />
        </mxCell>
        <mxCell id="bxG6T7_YVZRhOUYlfCPM-23" value="26" style="rounded=0;whiteSpace=wrap;html=1;strokeColor=light-dark(transparent,#FF0700);" vertex="1" parent="bxG6T7_YVZRhOUYlfCPM-17">
          <mxGeometry y="80" width="40" height="20" as="geometry" />
        </mxCell>
        <mxCell id="bxG6T7_YVZRhOUYlfCPM-25" value="0" style="rounded=0;whiteSpace=wrap;html=1;strokeColor=light-dark(transparent,#FF0700);" vertex="1" parent="bxG6T7_YVZRhOUYlfCPM-17">
          <mxGeometry x="40" y="80" width="40" height="20" as="geometry" />
        </mxCell>
        <mxCell id="bxG6T7_YVZRhOUYlfCPM-26" value="30" style="rounded=0;whiteSpace=wrap;html=1;strokeColor=light-dark(transparent,#FF0700);" vertex="1" parent="bxG6T7_YVZRhOUYlfCPM-17">
          <mxGeometry x="80" y="80" width="40" height="20" as="geometry" />
        </mxCell>
        <mxCell id="bxG6T7_YVZRhOUYlfCPM-15" style="edgeStyle=orthogonalEdgeStyle;rounded=0;orthogonalLoop=1;jettySize=auto;html=1;exitX=0.5;exitY=1;exitDx=0;exitDy=0;entryX=0.5;entryY=0;entryDx=0;entryDy=0;strokeColor=light-dark(transparent,#FF0700);" edge="1" parent="1" source="bxG6T7_YVZRhOUYlfCPM-9" target="bxG6T7_YVZRhOUYlfCPM-21">
          <mxGeometry relative="1" as="geometry">
            <mxPoint x="1500" y="440" as="targetPoint" />
          </mxGeometry>
        </mxCell>
        <mxCell id="bxG6T7_YVZRhOUYlfCPM-29" value="" style="group;strokeColor=light-dark(transparent,#FF0700);" vertex="1" connectable="0" parent="1">
          <mxGeometry x="1200" y="560" width="120" height="100" as="geometry" />
        </mxCell>
        <mxCell id="bxG6T7_YVZRhOUYlfCPM-30" value="&lt;font size=&quot;3&quot;&gt;&lt;b&gt;1.6.2&lt;/b&gt;&lt;/font&gt;" style="rounded=0;whiteSpace=wrap;html=1;strokeColor=light-dark(transparent,#FF0700);" vertex="1" parent="bxG6T7_YVZRhOUYlfCPM-29">
          <mxGeometry width="120" height="100" as="geometry" />
        </mxCell>
        <mxCell id="bxG6T7_YVZRhOUYlfCPM-31" value="30" style="rounded=0;whiteSpace=wrap;html=1;strokeColor=light-dark(transparent,#FF0700);" vertex="1" parent="bxG6T7_YVZRhOUYlfCPM-29">
          <mxGeometry width="40" height="20" as="geometry" />
        </mxCell>
        <mxCell id="bxG6T7_YVZRhOUYlfCPM-32" style="edgeStyle=orthogonalEdgeStyle;rounded=0;orthogonalLoop=1;jettySize=auto;html=1;exitX=0.25;exitY=0;exitDx=0;exitDy=0;strokeColor=light-dark(transparent,#FF0700);" edge="1" parent="bxG6T7_YVZRhOUYlfCPM-29" source="bxG6T7_YVZRhOUYlfCPM-33">
          <mxGeometry relative="1" as="geometry">
            <mxPoint x="50" y="10" as="targetPoint" />
          </mxGeometry>
        </mxCell>
        <mxCell id="bxG6T7_YVZRhOUYlfCPM-33" value="3" style="rounded=0;whiteSpace=wrap;html=1;strokeColor=light-dark(transparent,#FF0700);" vertex="1" parent="bxG6T7_YVZRhOUYlfCPM-29">
          <mxGeometry x="40" width="40" height="20" as="geometry" />
        </mxCell>
        <mxCell id="bxG6T7_YVZRhOUYlfCPM-34" value="33" style="rounded=0;whiteSpace=wrap;html=1;strokeColor=light-dark(transparent,#FF0700);" vertex="1" parent="bxG6T7_YVZRhOUYlfCPM-29">
          <mxGeometry x="80" width="40" height="20" as="geometry" />
        </mxCell>
        <mxCell id="bxG6T7_YVZRhOUYlfCPM-35" value="30" style="rounded=0;whiteSpace=wrap;html=1;strokeColor=light-dark(transparent,#FF0700);" vertex="1" parent="bxG6T7_YVZRhOUYlfCPM-29">
          <mxGeometry y="80" width="40" height="20" as="geometry" />
        </mxCell>
        <mxCell id="bxG6T7_YVZRhOUYlfCPM-36" value="0" style="rounded=0;whiteSpace=wrap;html=1;strokeColor=light-dark(transparent,#FF0700);" vertex="1" parent="bxG6T7_YVZRhOUYlfCPM-29">
          <mxGeometry x="40" y="80" width="40" height="20" as="geometry" />
        </mxCell>
        <mxCell id="bxG6T7_YVZRhOUYlfCPM-37" value="33" style="rounded=0;whiteSpace=wrap;html=1;strokeColor=light-dark(transparent,#FF0700);" vertex="1" parent="bxG6T7_YVZRhOUYlfCPM-29">
          <mxGeometry x="80" y="80" width="40" height="20" as="geometry" />
        </mxCell>
        <mxCell id="bxG6T7_YVZRhOUYlfCPM-38" style="edgeStyle=orthogonalEdgeStyle;rounded=0;orthogonalLoop=1;jettySize=auto;html=1;exitX=0;exitY=0.5;exitDx=0;exitDy=0;entryX=1;entryY=0.5;entryDx=0;entryDy=0;strokeColor=light-dark(transparent,#FF0700);" edge="1" parent="1" source="bxG6T7_YVZRhOUYlfCPM-18" target="bxG6T7_YVZRhOUYlfCPM-30">
          <mxGeometry relative="1" as="geometry" />
        </mxCell>
        <mxCell id="bxG6T7_YVZRhOUYlfCPM-39" value="" style="group;strokeColor=light-dark(transparent,#FF0700);" vertex="1" connectable="0" parent="1">
          <mxGeometry x="960" y="560" width="120" height="100" as="geometry" />
        </mxCell>
        <mxCell id="bxG6T7_YVZRhOUYlfCPM-40" value="&lt;font size=&quot;3&quot;&gt;&lt;b&gt;2.1.1&lt;/b&gt;&lt;/font&gt;" style="rounded=0;whiteSpace=wrap;html=1;strokeColor=light-dark(transparent,#FF0700);" vertex="1" parent="bxG6T7_YVZRhOUYlfCPM-39">
          <mxGeometry width="120" height="100" as="geometry" />
        </mxCell>
        <mxCell id="bxG6T7_YVZRhOUYlfCPM-41" value="33" style="rounded=0;whiteSpace=wrap;html=1;strokeColor=light-dark(transparent,#FF0700);" vertex="1" parent="bxG6T7_YVZRhOUYlfCPM-39">
          <mxGeometry width="40" height="20" as="geometry" />
        </mxCell>
        <mxCell id="bxG6T7_YVZRhOUYlfCPM-42" style="edgeStyle=orthogonalEdgeStyle;rounded=0;orthogonalLoop=1;jettySize=auto;html=1;exitX=0.25;exitY=0;exitDx=0;exitDy=0;strokeColor=light-dark(transparent,#FF0700);" edge="1" parent="bxG6T7_YVZRhOUYlfCPM-39" source="bxG6T7_YVZRhOUYlfCPM-43">
          <mxGeometry relative="1" as="geometry">
            <mxPoint x="50" y="10" as="targetPoint" />
          </mxGeometry>
        </mxCell>
        <mxCell id="bxG6T7_YVZRhOUYlfCPM-43" value="2" style="rounded=0;whiteSpace=wrap;html=1;strokeColor=light-dark(transparent,#FF0700);" vertex="1" parent="bxG6T7_YVZRhOUYlfCPM-39">
          <mxGeometry x="40" width="40" height="20" as="geometry" />
        </mxCell>
        <mxCell id="bxG6T7_YVZRhOUYlfCPM-44" value="35" style="rounded=0;whiteSpace=wrap;html=1;strokeColor=light-dark(transparent,#FF0700);" vertex="1" parent="bxG6T7_YVZRhOUYlfCPM-39">
          <mxGeometry x="80" width="40" height="20" as="geometry" />
        </mxCell>
        <mxCell id="bxG6T7_YVZRhOUYlfCPM-45" value="33" style="rounded=0;whiteSpace=wrap;html=1;strokeColor=light-dark(transparent,#FF0700);" vertex="1" parent="bxG6T7_YVZRhOUYlfCPM-39">
          <mxGeometry y="80" width="40" height="20" as="geometry" />
        </mxCell>
        <mxCell id="bxG6T7_YVZRhOUYlfCPM-46" value="0" style="rounded=0;whiteSpace=wrap;html=1;strokeColor=light-dark(transparent,#FF0700);" vertex="1" parent="bxG6T7_YVZRhOUYlfCPM-39">
          <mxGeometry x="40" y="80" width="40" height="20" as="geometry" />
        </mxCell>
        <mxCell id="bxG6T7_YVZRhOUYlfCPM-47" value="35" style="rounded=0;whiteSpace=wrap;html=1;strokeColor=light-dark(transparent,#FF0700);" vertex="1" parent="bxG6T7_YVZRhOUYlfCPM-39">
          <mxGeometry x="80" y="80" width="40" height="20" as="geometry" />
        </mxCell>
        <mxCell id="bxG6T7_YVZRhOUYlfCPM-48" style="edgeStyle=orthogonalEdgeStyle;rounded=0;orthogonalLoop=1;jettySize=auto;html=1;exitX=0;exitY=0.5;exitDx=0;exitDy=0;entryX=1;entryY=0.5;entryDx=0;entryDy=0;strokeColor=light-dark(transparent,#FF0700);" edge="1" parent="1" source="bxG6T7_YVZRhOUYlfCPM-30" target="bxG6T7_YVZRhOUYlfCPM-40">
          <mxGeometry relative="1" as="geometry" />
        </mxCell>
        <mxCell id="bxG6T7_YVZRhOUYlfCPM-49" value="" style="group;strokeColor=light-dark(transparent,#FF0700);" vertex="1" connectable="0" parent="1">
          <mxGeometry x="720" y="560" width="120" height="100" as="geometry" />
        </mxCell>
        <mxCell id="bxG6T7_YVZRhOUYlfCPM-50" value="&lt;font size=&quot;3&quot;&gt;&lt;b&gt;2.1.2&lt;/b&gt;&lt;/font&gt;" style="rounded=0;whiteSpace=wrap;html=1;strokeColor=light-dark(transparent,#FF0700);" vertex="1" parent="bxG6T7_YVZRhOUYlfCPM-49">
          <mxGeometry width="120" height="100" as="geometry" />
        </mxCell>
        <mxCell id="bxG6T7_YVZRhOUYlfCPM-51" value="35" style="rounded=0;whiteSpace=wrap;html=1;strokeColor=light-dark(transparent,#FF0700);" vertex="1" parent="bxG6T7_YVZRhOUYlfCPM-49">
          <mxGeometry width="40" height="20" as="geometry" />
        </mxCell>
        <mxCell id="bxG6T7_YVZRhOUYlfCPM-52" style="edgeStyle=orthogonalEdgeStyle;rounded=0;orthogonalLoop=1;jettySize=auto;html=1;exitX=0.25;exitY=0;exitDx=0;exitDy=0;strokeColor=light-dark(transparent,#FF0700);" edge="1" parent="bxG6T7_YVZRhOUYlfCPM-49" source="bxG6T7_YVZRhOUYlfCPM-53">
          <mxGeometry relative="1" as="geometry">
            <mxPoint x="50" y="10" as="targetPoint" />
          </mxGeometry>
        </mxCell>
        <mxCell id="bxG6T7_YVZRhOUYlfCPM-53" value="2" style="rounded=0;whiteSpace=wrap;html=1;strokeColor=light-dark(transparent,#FF0700);" vertex="1" parent="bxG6T7_YVZRhOUYlfCPM-49">
          <mxGeometry x="40" width="40" height="20" as="geometry" />
        </mxCell>
        <mxCell id="bxG6T7_YVZRhOUYlfCPM-54" value="37" style="rounded=0;whiteSpace=wrap;html=1;strokeColor=light-dark(transparent,#FF0700);" vertex="1" parent="bxG6T7_YVZRhOUYlfCPM-49">
          <mxGeometry x="80" width="40" height="20" as="geometry" />
        </mxCell>
        <mxCell id="bxG6T7_YVZRhOUYlfCPM-55" value="35" style="rounded=0;whiteSpace=wrap;html=1;strokeColor=light-dark(transparent,#FF0700);" vertex="1" parent="bxG6T7_YVZRhOUYlfCPM-49">
          <mxGeometry y="80" width="40" height="20" as="geometry" />
        </mxCell>
        <mxCell id="bxG6T7_YVZRhOUYlfCPM-56" value="0" style="rounded=0;whiteSpace=wrap;html=1;strokeColor=light-dark(transparent,#FF0700);" vertex="1" parent="bxG6T7_YVZRhOUYlfCPM-49">
          <mxGeometry x="40" y="80" width="40" height="20" as="geometry" />
        </mxCell>
        <mxCell id="bxG6T7_YVZRhOUYlfCPM-57" value="37" style="rounded=0;whiteSpace=wrap;html=1;strokeColor=light-dark(transparent,#FF0700);" vertex="1" parent="bxG6T7_YVZRhOUYlfCPM-49">
          <mxGeometry x="80" y="80" width="40" height="20" as="geometry" />
        </mxCell>
        <mxCell id="bxG6T7_YVZRhOUYlfCPM-58" style="edgeStyle=orthogonalEdgeStyle;rounded=0;orthogonalLoop=1;jettySize=auto;html=1;exitX=0;exitY=0.5;exitDx=0;exitDy=0;entryX=1;entryY=0.5;entryDx=0;entryDy=0;strokeColor=light-dark(transparent,#FF0700);" edge="1" parent="1" source="bxG6T7_YVZRhOUYlfCPM-40" target="bxG6T7_YVZRhOUYlfCPM-50">
          <mxGeometry relative="1" as="geometry" />
        </mxCell>
        <mxCell id="bxG6T7_YVZRhOUYlfCPM-59" value="" style="group;strokeColor=light-dark(transparent,#FF0700);" vertex="1" connectable="0" parent="1">
          <mxGeometry x="480" y="560" width="120" height="100" as="geometry" />
        </mxCell>
        <mxCell id="bxG6T7_YVZRhOUYlfCPM-60" value="&lt;font size=&quot;3&quot;&gt;&lt;b&gt;2.1.3&lt;/b&gt;&lt;/font&gt;" style="rounded=0;whiteSpace=wrap;html=1;strokeColor=light-dark(transparent,#FF0700);" vertex="1" parent="bxG6T7_YVZRhOUYlfCPM-59">
          <mxGeometry width="120" height="100" as="geometry" />
        </mxCell>
        <mxCell id="bxG6T7_YVZRhOUYlfCPM-61" value="37" style="rounded=0;whiteSpace=wrap;html=1;strokeColor=light-dark(transparent,#FF0700);" vertex="1" parent="bxG6T7_YVZRhOUYlfCPM-59">
          <mxGeometry width="40" height="20" as="geometry" />
        </mxCell>
        <mxCell id="bxG6T7_YVZRhOUYlfCPM-62" style="edgeStyle=orthogonalEdgeStyle;rounded=0;orthogonalLoop=1;jettySize=auto;html=1;exitX=0.25;exitY=0;exitDx=0;exitDy=0;strokeColor=light-dark(transparent,#FF0700);" edge="1" parent="bxG6T7_YVZRhOUYlfCPM-59" source="bxG6T7_YVZRhOUYlfCPM-63">
          <mxGeometry relative="1" as="geometry">
            <mxPoint x="50" y="10" as="targetPoint" />
          </mxGeometry>
        </mxCell>
        <mxCell id="bxG6T7_YVZRhOUYlfCPM-63" value="2" style="rounded=0;whiteSpace=wrap;html=1;strokeColor=light-dark(transparent,#FF0700);" vertex="1" parent="bxG6T7_YVZRhOUYlfCPM-59">
          <mxGeometry x="40" width="40" height="20" as="geometry" />
        </mxCell>
        <mxCell id="bxG6T7_YVZRhOUYlfCPM-64" value="39" style="rounded=0;whiteSpace=wrap;html=1;strokeColor=light-dark(transparent,#FF0700);" vertex="1" parent="bxG6T7_YVZRhOUYlfCPM-59">
          <mxGeometry x="80" width="40" height="20" as="geometry" />
        </mxCell>
        <mxCell id="bxG6T7_YVZRhOUYlfCPM-65" value="37" style="rounded=0;whiteSpace=wrap;html=1;strokeColor=light-dark(transparent,#FF0700);" vertex="1" parent="bxG6T7_YVZRhOUYlfCPM-59">
          <mxGeometry y="80" width="40" height="20" as="geometry" />
        </mxCell>
        <mxCell id="bxG6T7_YVZRhOUYlfCPM-66" value="0" style="rounded=0;whiteSpace=wrap;html=1;strokeColor=light-dark(transparent,#FF0700);" vertex="1" parent="bxG6T7_YVZRhOUYlfCPM-59">
          <mxGeometry x="40" y="80" width="40" height="20" as="geometry" />
        </mxCell>
        <mxCell id="bxG6T7_YVZRhOUYlfCPM-67" value="39" style="rounded=0;whiteSpace=wrap;html=1;strokeColor=light-dark(transparent,#FF0700);" vertex="1" parent="bxG6T7_YVZRhOUYlfCPM-59">
          <mxGeometry x="80" y="80" width="40" height="20" as="geometry" />
        </mxCell>
        <mxCell id="bxG6T7_YVZRhOUYlfCPM-68" style="edgeStyle=orthogonalEdgeStyle;rounded=0;orthogonalLoop=1;jettySize=auto;html=1;exitX=0;exitY=0.5;exitDx=0;exitDy=0;entryX=1;entryY=0.5;entryDx=0;entryDy=0;strokeColor=light-dark(transparent,#FF0700);" edge="1" parent="1" source="bxG6T7_YVZRhOUYlfCPM-50" target="bxG6T7_YVZRhOUYlfCPM-60">
          <mxGeometry relative="1" as="geometry" />
        </mxCell>
        <mxCell id="bxG6T7_YVZRhOUYlfCPM-69" value="" style="group;strokeColor=light-dark(transparent,#FF0700);" vertex="1" connectable="0" parent="1">
          <mxGeometry x="240" y="560" width="120" height="100" as="geometry" />
        </mxCell>
        <mxCell id="bxG6T7_YVZRhOUYlfCPM-70" value="&lt;font size=&quot;3&quot;&gt;&lt;b&gt;2.2&lt;/b&gt;&lt;/font&gt;" style="rounded=0;whiteSpace=wrap;html=1;strokeColor=light-dark(transparent,#FF0700);" vertex="1" parent="bxG6T7_YVZRhOUYlfCPM-69">
          <mxGeometry width="120" height="100" as="geometry" />
        </mxCell>
        <mxCell id="bxG6T7_YVZRhOUYlfCPM-71" value="39" style="rounded=0;whiteSpace=wrap;html=1;strokeColor=light-dark(transparent,#FF0700);" vertex="1" parent="bxG6T7_YVZRhOUYlfCPM-69">
          <mxGeometry width="40" height="20" as="geometry" />
        </mxCell>
        <mxCell id="bxG6T7_YVZRhOUYlfCPM-72" style="edgeStyle=orthogonalEdgeStyle;rounded=0;orthogonalLoop=1;jettySize=auto;html=1;exitX=0.25;exitY=0;exitDx=0;exitDy=0;strokeColor=light-dark(transparent,#FF0700);" edge="1" parent="bxG6T7_YVZRhOUYlfCPM-69" source="bxG6T7_YVZRhOUYlfCPM-73">
          <mxGeometry relative="1" as="geometry">
            <mxPoint x="50" y="10" as="targetPoint" />
          </mxGeometry>
        </mxCell>
        <mxCell id="bxG6T7_YVZRhOUYlfCPM-73" value="7" style="rounded=0;whiteSpace=wrap;html=1;strokeColor=light-dark(transparent,#FF0700);" vertex="1" parent="bxG6T7_YVZRhOUYlfCPM-69">
          <mxGeometry x="40" width="40" height="20" as="geometry" />
        </mxCell>
        <mxCell id="bxG6T7_YVZRhOUYlfCPM-74" value="46" style="rounded=0;whiteSpace=wrap;html=1;strokeColor=light-dark(transparent,#FF0700);" vertex="1" parent="bxG6T7_YVZRhOUYlfCPM-69">
          <mxGeometry x="80" width="40" height="20" as="geometry" />
        </mxCell>
        <mxCell id="bxG6T7_YVZRhOUYlfCPM-75" value="39" style="rounded=0;whiteSpace=wrap;html=1;strokeColor=light-dark(transparent,#FF0700);" vertex="1" parent="bxG6T7_YVZRhOUYlfCPM-69">
          <mxGeometry y="80" width="40" height="20" as="geometry" />
        </mxCell>
        <mxCell id="bxG6T7_YVZRhOUYlfCPM-76" value="0" style="rounded=0;whiteSpace=wrap;html=1;strokeColor=light-dark(transparent,#FF0700);" vertex="1" parent="bxG6T7_YVZRhOUYlfCPM-69">
          <mxGeometry x="40" y="80" width="40" height="20" as="geometry" />
        </mxCell>
        <mxCell id="bxG6T7_YVZRhOUYlfCPM-77" value="46" style="rounded=0;whiteSpace=wrap;html=1;strokeColor=light-dark(transparent,#FF0700);" vertex="1" parent="bxG6T7_YVZRhOUYlfCPM-69">
          <mxGeometry x="80" y="80" width="40" height="20" as="geometry" />
        </mxCell>
        <mxCell id="bxG6T7_YVZRhOUYlfCPM-79" style="edgeStyle=orthogonalEdgeStyle;rounded=0;orthogonalLoop=1;jettySize=auto;html=1;exitX=0;exitY=0.5;exitDx=0;exitDy=0;entryX=1;entryY=0.5;entryDx=0;entryDy=0;strokeColor=light-dark(transparent,#FF0700);" edge="1" parent="1" source="bxG6T7_YVZRhOUYlfCPM-60" target="bxG6T7_YVZRhOUYlfCPM-70">
          <mxGeometry relative="1" as="geometry" />
        </mxCell>
        <mxCell id="bxG6T7_YVZRhOUYlfCPM-80" value="" style="group;strokeColor=light-dark(transparent,#FF0700);" vertex="1" connectable="0" parent="1">
          <mxGeometry y="560" width="120" height="100" as="geometry" />
        </mxCell>
        <mxCell id="bxG6T7_YVZRhOUYlfCPM-81" value="&lt;font size=&quot;3&quot;&gt;&lt;b&gt;2.3&lt;/b&gt;&lt;/font&gt;" style="rounded=0;whiteSpace=wrap;html=1;strokeColor=light-dark(transparent,#FF0700);" vertex="1" parent="bxG6T7_YVZRhOUYlfCPM-80">
          <mxGeometry width="120" height="100" as="geometry" />
        </mxCell>
        <mxCell id="bxG6T7_YVZRhOUYlfCPM-82" value="46" style="rounded=0;whiteSpace=wrap;html=1;strokeColor=light-dark(transparent,#FF0700);" vertex="1" parent="bxG6T7_YVZRhOUYlfCPM-80">
          <mxGeometry width="40" height="20" as="geometry" />
        </mxCell>
        <mxCell id="bxG6T7_YVZRhOUYlfCPM-83" style="edgeStyle=orthogonalEdgeStyle;rounded=0;orthogonalLoop=1;jettySize=auto;html=1;exitX=0.25;exitY=0;exitDx=0;exitDy=0;strokeColor=light-dark(transparent,#FF0700);" edge="1" parent="bxG6T7_YVZRhOUYlfCPM-80" source="bxG6T7_YVZRhOUYlfCPM-84">
          <mxGeometry relative="1" as="geometry">
            <mxPoint x="50" y="10" as="targetPoint" />
          </mxGeometry>
        </mxCell>
        <mxCell id="bxG6T7_YVZRhOUYlfCPM-84" value="7" style="rounded=0;whiteSpace=wrap;html=1;strokeColor=light-dark(transparent,#FF0700);" vertex="1" parent="bxG6T7_YVZRhOUYlfCPM-80">
          <mxGeometry x="40" width="40" height="20" as="geometry" />
        </mxCell>
        <mxCell id="bxG6T7_YVZRhOUYlfCPM-85" value="53" style="rounded=0;whiteSpace=wrap;html=1;strokeColor=light-dark(transparent,#FF0700);" vertex="1" parent="bxG6T7_YVZRhOUYlfCPM-80">
          <mxGeometry x="80" width="40" height="20" as="geometry" />
        </mxCell>
        <mxCell id="bxG6T7_YVZRhOUYlfCPM-86" value="46" style="rounded=0;whiteSpace=wrap;html=1;strokeColor=light-dark(transparent,#FF0700);" vertex="1" parent="bxG6T7_YVZRhOUYlfCPM-80">
          <mxGeometry y="80" width="40" height="20" as="geometry" />
        </mxCell>
        <mxCell id="bxG6T7_YVZRhOUYlfCPM-87" value="0" style="rounded=0;whiteSpace=wrap;html=1;strokeColor=light-dark(transparent,#FF0700);" vertex="1" parent="bxG6T7_YVZRhOUYlfCPM-80">
          <mxGeometry x="40" y="80" width="40" height="20" as="geometry" />
        </mxCell>
        <mxCell id="bxG6T7_YVZRhOUYlfCPM-88" value="53" style="rounded=0;whiteSpace=wrap;html=1;strokeColor=light-dark(transparent,#FF0700);" vertex="1" parent="bxG6T7_YVZRhOUYlfCPM-80">
          <mxGeometry x="80" y="80" width="40" height="20" as="geometry" />
        </mxCell>
        <mxCell id="bxG6T7_YVZRhOUYlfCPM-89" style="edgeStyle=orthogonalEdgeStyle;rounded=0;orthogonalLoop=1;jettySize=auto;html=1;exitX=0;exitY=0.5;exitDx=0;exitDy=0;entryX=1;entryY=0.5;entryDx=0;entryDy=0;strokeColor=light-dark(transparent,#FF0700);" edge="1" parent="1" source="bxG6T7_YVZRhOUYlfCPM-70" target="bxG6T7_YVZRhOUYlfCPM-81">
          <mxGeometry relative="1" as="geometry" />
        </mxCell>
        <mxCell id="bxG6T7_YVZRhOUYlfCPM-90" value="" style="group;strokeColor=light-dark(transparent,#FF0700);" vertex="1" connectable="0" parent="1">
          <mxGeometry y="800" width="120" height="100" as="geometry" />
        </mxCell>
        <mxCell id="bxG6T7_YVZRhOUYlfCPM-91" value="&lt;font size=&quot;3&quot;&gt;&lt;b&gt;2.4&lt;/b&gt;&lt;/font&gt;" style="rounded=0;whiteSpace=wrap;html=1;strokeColor=light-dark(transparent,#FF0700);" vertex="1" parent="bxG6T7_YVZRhOUYlfCPM-90">
          <mxGeometry width="120" height="100" as="geometry" />
        </mxCell>
        <mxCell id="bxG6T7_YVZRhOUYlfCPM-92" value="53" style="rounded=0;whiteSpace=wrap;html=1;strokeColor=light-dark(transparent,#FF0700);" vertex="1" parent="bxG6T7_YVZRhOUYlfCPM-90">
          <mxGeometry width="40" height="20" as="geometry" />
        </mxCell>
        <mxCell id="bxG6T7_YVZRhOUYlfCPM-93" style="edgeStyle=orthogonalEdgeStyle;rounded=0;orthogonalLoop=1;jettySize=auto;html=1;exitX=0.25;exitY=0;exitDx=0;exitDy=0;strokeColor=light-dark(transparent,#FF0700);" edge="1" parent="bxG6T7_YVZRhOUYlfCPM-90" source="bxG6T7_YVZRhOUYlfCPM-94">
          <mxGeometry relative="1" as="geometry">
            <mxPoint x="50" y="10" as="targetPoint" />
          </mxGeometry>
        </mxCell>
        <mxCell id="bxG6T7_YVZRhOUYlfCPM-94" value="7" style="rounded=0;whiteSpace=wrap;html=1;strokeColor=light-dark(transparent,#FF0700);" vertex="1" parent="bxG6T7_YVZRhOUYlfCPM-90">
          <mxGeometry x="40" width="40" height="20" as="geometry" />
        </mxCell>
        <mxCell id="bxG6T7_YVZRhOUYlfCPM-95" value="60" style="rounded=0;whiteSpace=wrap;html=1;strokeColor=light-dark(transparent,#FF0700);" vertex="1" parent="bxG6T7_YVZRhOUYlfCPM-90">
          <mxGeometry x="80" width="40" height="20" as="geometry" />
        </mxCell>
        <mxCell id="bxG6T7_YVZRhOUYlfCPM-96" value="53" style="rounded=0;whiteSpace=wrap;html=1;strokeColor=light-dark(transparent,#FF0700);" vertex="1" parent="bxG6T7_YVZRhOUYlfCPM-90">
          <mxGeometry y="80" width="40" height="20" as="geometry" />
        </mxCell>
        <mxCell id="bxG6T7_YVZRhOUYlfCPM-97" value="0" style="rounded=0;whiteSpace=wrap;html=1;strokeColor=light-dark(transparent,#FF0700);" vertex="1" parent="bxG6T7_YVZRhOUYlfCPM-90">
          <mxGeometry x="40" y="80" width="40" height="20" as="geometry" />
        </mxCell>
        <mxCell id="bxG6T7_YVZRhOUYlfCPM-98" value="60" style="rounded=0;whiteSpace=wrap;html=1;strokeColor=light-dark(transparent,#FF0700);" vertex="1" parent="bxG6T7_YVZRhOUYlfCPM-90">
          <mxGeometry x="80" y="80" width="40" height="20" as="geometry" />
        </mxCell>
        <mxCell id="bxG6T7_YVZRhOUYlfCPM-99" style="edgeStyle=orthogonalEdgeStyle;rounded=0;orthogonalLoop=1;jettySize=auto;html=1;exitX=0.5;exitY=1;exitDx=0;exitDy=0;entryX=0.5;entryY=0;entryDx=0;entryDy=0;strokeColor=light-dark(transparent,#FF0700);" edge="1" parent="1" source="bxG6T7_YVZRhOUYlfCPM-87" target="bxG6T7_YVZRhOUYlfCPM-94">
          <mxGeometry relative="1" as="geometry" />
        </mxCell>
        <mxCell id="bxG6T7_YVZRhOUYlfCPM-100" value="" style="group;strokeColor=light-dark(transparent,#FF0700);" vertex="1" connectable="0" parent="1">
          <mxGeometry x="240" y="800" width="120" height="100" as="geometry" />
        </mxCell>
        <mxCell id="bxG6T7_YVZRhOUYlfCPM-101" value="&lt;font size=&quot;3&quot;&gt;&lt;b&gt;2.5&lt;/b&gt;&lt;/font&gt;" style="rounded=0;whiteSpace=wrap;html=1;strokeColor=light-dark(transparent,#FF0700);" vertex="1" parent="bxG6T7_YVZRhOUYlfCPM-100">
          <mxGeometry width="120" height="100" as="geometry" />
        </mxCell>
        <mxCell id="bxG6T7_YVZRhOUYlfCPM-102" value="60" style="rounded=0;whiteSpace=wrap;html=1;strokeColor=light-dark(transparent,#FF0700);" vertex="1" parent="bxG6T7_YVZRhOUYlfCPM-100">
          <mxGeometry width="40" height="20" as="geometry" />
        </mxCell>
        <mxCell id="bxG6T7_YVZRhOUYlfCPM-103" style="edgeStyle=orthogonalEdgeStyle;rounded=0;orthogonalLoop=1;jettySize=auto;html=1;exitX=0.25;exitY=0;exitDx=0;exitDy=0;strokeColor=light-dark(transparent,#FF0700);" edge="1" parent="bxG6T7_YVZRhOUYlfCPM-100" source="bxG6T7_YVZRhOUYlfCPM-104">
          <mxGeometry relative="1" as="geometry">
            <mxPoint x="50" y="10" as="targetPoint" />
          </mxGeometry>
        </mxCell>
        <mxCell id="bxG6T7_YVZRhOUYlfCPM-104" value="7" style="rounded=0;whiteSpace=wrap;html=1;strokeColor=light-dark(transparent,#FF0700);" vertex="1" parent="bxG6T7_YVZRhOUYlfCPM-100">
          <mxGeometry x="40" width="40" height="20" as="geometry" />
        </mxCell>
        <mxCell id="bxG6T7_YVZRhOUYlfCPM-105" value="67" style="rounded=0;whiteSpace=wrap;html=1;strokeColor=light-dark(transparent,#FF0700);" vertex="1" parent="bxG6T7_YVZRhOUYlfCPM-100">
          <mxGeometry x="80" width="40" height="20" as="geometry" />
        </mxCell>
        <mxCell id="bxG6T7_YVZRhOUYlfCPM-106" value="60" style="rounded=0;whiteSpace=wrap;html=1;strokeColor=light-dark(transparent,#FF0700);" vertex="1" parent="bxG6T7_YVZRhOUYlfCPM-100">
          <mxGeometry y="80" width="40" height="20" as="geometry" />
        </mxCell>
        <mxCell id="bxG6T7_YVZRhOUYlfCPM-107" value="0" style="rounded=0;whiteSpace=wrap;html=1;strokeColor=light-dark(transparent,#FF0700);" vertex="1" parent="bxG6T7_YVZRhOUYlfCPM-100">
          <mxGeometry x="40" y="80" width="40" height="20" as="geometry" />
        </mxCell>
        <mxCell id="bxG6T7_YVZRhOUYlfCPM-108" value="67" style="rounded=0;whiteSpace=wrap;html=1;strokeColor=light-dark(transparent,#FF0700);" vertex="1" parent="bxG6T7_YVZRhOUYlfCPM-100">
          <mxGeometry x="80" y="80" width="40" height="20" as="geometry" />
        </mxCell>
        <mxCell id="bxG6T7_YVZRhOUYlfCPM-109" style="edgeStyle=orthogonalEdgeStyle;rounded=0;orthogonalLoop=1;jettySize=auto;html=1;exitX=1;exitY=0.5;exitDx=0;exitDy=0;entryX=0;entryY=0.5;entryDx=0;entryDy=0;strokeColor=light-dark(transparent,#FF0700);" edge="1" parent="1" source="bxG6T7_YVZRhOUYlfCPM-91" target="bxG6T7_YVZRhOUYlfCPM-101">
          <mxGeometry relative="1" as="geometry" />
        </mxCell>
        <mxCell id="bxG6T7_YVZRhOUYlfCPM-110" value="" style="group;strokeColor=light-dark(transparent,#FF0700);" vertex="1" connectable="0" parent="1">
          <mxGeometry x="480" y="800" width="120" height="100" as="geometry" />
        </mxCell>
        <mxCell id="bxG6T7_YVZRhOUYlfCPM-111" value="&lt;font size=&quot;3&quot;&gt;&lt;b&gt;2.6&lt;/b&gt;&lt;/font&gt;" style="rounded=0;whiteSpace=wrap;html=1;strokeColor=light-dark(transparent,#FF0700);" vertex="1" parent="bxG6T7_YVZRhOUYlfCPM-110">
          <mxGeometry width="120" height="100" as="geometry" />
        </mxCell>
        <mxCell id="bxG6T7_YVZRhOUYlfCPM-112" value="67" style="rounded=0;whiteSpace=wrap;html=1;strokeColor=light-dark(transparent,#FF0700);" vertex="1" parent="bxG6T7_YVZRhOUYlfCPM-110">
          <mxGeometry width="40" height="20" as="geometry" />
        </mxCell>
        <mxCell id="bxG6T7_YVZRhOUYlfCPM-113" style="edgeStyle=orthogonalEdgeStyle;rounded=0;orthogonalLoop=1;jettySize=auto;html=1;exitX=0.25;exitY=0;exitDx=0;exitDy=0;strokeColor=light-dark(transparent,#FF0700);" edge="1" parent="bxG6T7_YVZRhOUYlfCPM-110" source="bxG6T7_YVZRhOUYlfCPM-114">
          <mxGeometry relative="1" as="geometry">
            <mxPoint x="50" y="10" as="targetPoint" />
          </mxGeometry>
        </mxCell>
        <mxCell id="bxG6T7_YVZRhOUYlfCPM-114" value="5" style="rounded=0;whiteSpace=wrap;html=1;strokeColor=light-dark(transparent,#FF0700);" vertex="1" parent="bxG6T7_YVZRhOUYlfCPM-110">
          <mxGeometry x="40" width="40" height="20" as="geometry" />
        </mxCell>
        <mxCell id="bxG6T7_YVZRhOUYlfCPM-115" value="72" style="rounded=0;whiteSpace=wrap;html=1;strokeColor=light-dark(transparent,#FF0700);" vertex="1" parent="bxG6T7_YVZRhOUYlfCPM-110">
          <mxGeometry x="80" width="40" height="20" as="geometry" />
        </mxCell>
        <mxCell id="bxG6T7_YVZRhOUYlfCPM-116" value="67" style="rounded=0;whiteSpace=wrap;html=1;strokeColor=light-dark(transparent,#FF0700);" vertex="1" parent="bxG6T7_YVZRhOUYlfCPM-110">
          <mxGeometry y="80" width="40" height="20" as="geometry" />
        </mxCell>
        <mxCell id="bxG6T7_YVZRhOUYlfCPM-117" value="0" style="rounded=0;whiteSpace=wrap;html=1;strokeColor=light-dark(transparent,#FF0700);" vertex="1" parent="bxG6T7_YVZRhOUYlfCPM-110">
          <mxGeometry x="40" y="80" width="40" height="20" as="geometry" />
        </mxCell>
        <mxCell id="bxG6T7_YVZRhOUYlfCPM-118" value="72" style="rounded=0;whiteSpace=wrap;html=1;strokeColor=light-dark(transparent,#FF0700);" vertex="1" parent="bxG6T7_YVZRhOUYlfCPM-110">
          <mxGeometry x="80" y="80" width="40" height="20" as="geometry" />
        </mxCell>
        <mxCell id="bxG6T7_YVZRhOUYlfCPM-119" style="edgeStyle=orthogonalEdgeStyle;rounded=0;orthogonalLoop=1;jettySize=auto;html=1;exitX=1;exitY=0.5;exitDx=0;exitDy=0;entryX=0;entryY=0.5;entryDx=0;entryDy=0;strokeColor=light-dark(transparent,#FF0700);" edge="1" parent="1" source="bxG6T7_YVZRhOUYlfCPM-101" target="bxG6T7_YVZRhOUYlfCPM-111">
          <mxGeometry relative="1" as="geometry" />
        </mxCell>
        <mxCell id="bxG6T7_YVZRhOUYlfCPM-120" value="" style="group;strokeColor=light-dark(transparent,#FF0700);" vertex="1" connectable="0" parent="1">
          <mxGeometry x="720" y="800" width="120" height="100" as="geometry" />
        </mxCell>
        <mxCell id="bxG6T7_YVZRhOUYlfCPM-121" value="&lt;font size=&quot;3&quot;&gt;&lt;b&gt;2.7&lt;/b&gt;&lt;/font&gt;" style="rounded=0;whiteSpace=wrap;html=1;strokeColor=light-dark(transparent,#FF0700);" vertex="1" parent="bxG6T7_YVZRhOUYlfCPM-120">
          <mxGeometry width="120" height="100" as="geometry" />
        </mxCell>
        <mxCell id="bxG6T7_YVZRhOUYlfCPM-122" value="72" style="rounded=0;whiteSpace=wrap;html=1;strokeColor=light-dark(transparent,#FF0700);" vertex="1" parent="bxG6T7_YVZRhOUYlfCPM-120">
          <mxGeometry width="40" height="20" as="geometry" />
        </mxCell>
        <mxCell id="bxG6T7_YVZRhOUYlfCPM-123" style="edgeStyle=orthogonalEdgeStyle;rounded=0;orthogonalLoop=1;jettySize=auto;html=1;exitX=0.25;exitY=0;exitDx=0;exitDy=0;strokeColor=light-dark(transparent,#FF0700);" edge="1" parent="bxG6T7_YVZRhOUYlfCPM-120" source="bxG6T7_YVZRhOUYlfCPM-124">
          <mxGeometry relative="1" as="geometry">
            <mxPoint x="50" y="10" as="targetPoint" />
          </mxGeometry>
        </mxCell>
        <mxCell id="bxG6T7_YVZRhOUYlfCPM-124" value="3" style="rounded=0;whiteSpace=wrap;html=1;strokeColor=light-dark(transparent,#FF0700);" vertex="1" parent="bxG6T7_YVZRhOUYlfCPM-120">
          <mxGeometry x="40" width="40" height="20" as="geometry" />
        </mxCell>
        <mxCell id="bxG6T7_YVZRhOUYlfCPM-125" value="75" style="rounded=0;whiteSpace=wrap;html=1;strokeColor=light-dark(transparent,#FF0700);" vertex="1" parent="bxG6T7_YVZRhOUYlfCPM-120">
          <mxGeometry x="80" width="40" height="20" as="geometry" />
        </mxCell>
        <mxCell id="bxG6T7_YVZRhOUYlfCPM-126" value="72" style="rounded=0;whiteSpace=wrap;html=1;strokeColor=light-dark(transparent,#FF0700);" vertex="1" parent="bxG6T7_YVZRhOUYlfCPM-120">
          <mxGeometry y="80" width="40" height="20" as="geometry" />
        </mxCell>
        <mxCell id="bxG6T7_YVZRhOUYlfCPM-127" value="0" style="rounded=0;whiteSpace=wrap;html=1;strokeColor=light-dark(transparent,#FF0700);" vertex="1" parent="bxG6T7_YVZRhOUYlfCPM-120">
          <mxGeometry x="40" y="80" width="40" height="20" as="geometry" />
        </mxCell>
        <mxCell id="bxG6T7_YVZRhOUYlfCPM-128" value="75" style="rounded=0;whiteSpace=wrap;html=1;strokeColor=light-dark(transparent,#FF0700);" vertex="1" parent="bxG6T7_YVZRhOUYlfCPM-120">
          <mxGeometry x="80" y="80" width="40" height="20" as="geometry" />
        </mxCell>
        <mxCell id="bxG6T7_YVZRhOUYlfCPM-129" style="edgeStyle=orthogonalEdgeStyle;rounded=0;orthogonalLoop=1;jettySize=auto;html=1;exitX=1;exitY=0.5;exitDx=0;exitDy=0;entryX=0;entryY=0.5;entryDx=0;entryDy=0;strokeColor=light-dark(transparent,#FF0700);" edge="1" parent="1" source="bxG6T7_YVZRhOUYlfCPM-111" target="bxG6T7_YVZRhOUYlfCPM-121">
          <mxGeometry relative="1" as="geometry" />
        </mxCell>
        <mxCell id="bxG6T7_YVZRhOUYlfCPM-130" value="" style="group;strokeColor=light-dark(transparent,#FF0700);" vertex="1" connectable="0" parent="1">
          <mxGeometry x="960" y="800" width="120" height="100" as="geometry" />
        </mxCell>
        <mxCell id="bxG6T7_YVZRhOUYlfCPM-131" value="&lt;font size=&quot;3&quot;&gt;&lt;b&gt;2.8.1&lt;/b&gt;&lt;/font&gt;" style="rounded=0;whiteSpace=wrap;html=1;strokeColor=light-dark(transparent,#FF0700);" vertex="1" parent="bxG6T7_YVZRhOUYlfCPM-130">
          <mxGeometry width="120" height="100" as="geometry" />
        </mxCell>
        <mxCell id="bxG6T7_YVZRhOUYlfCPM-132" value="75" style="rounded=0;whiteSpace=wrap;html=1;strokeColor=light-dark(transparent,#FF0700);" vertex="1" parent="bxG6T7_YVZRhOUYlfCPM-130">
          <mxGeometry width="40" height="20" as="geometry" />
        </mxCell>
        <mxCell id="bxG6T7_YVZRhOUYlfCPM-133" style="edgeStyle=orthogonalEdgeStyle;rounded=0;orthogonalLoop=1;jettySize=auto;html=1;exitX=0.25;exitY=0;exitDx=0;exitDy=0;strokeColor=light-dark(transparent,#FF0700);" edge="1" parent="bxG6T7_YVZRhOUYlfCPM-130" source="bxG6T7_YVZRhOUYlfCPM-134">
          <mxGeometry relative="1" as="geometry">
            <mxPoint x="50" y="10" as="targetPoint" />
          </mxGeometry>
        </mxCell>
        <mxCell id="bxG6T7_YVZRhOUYlfCPM-134" value="5" style="rounded=0;whiteSpace=wrap;html=1;strokeColor=light-dark(transparent,#FF0700);" vertex="1" parent="bxG6T7_YVZRhOUYlfCPM-130">
          <mxGeometry x="40" width="40" height="20" as="geometry" />
        </mxCell>
        <mxCell id="bxG6T7_YVZRhOUYlfCPM-135" value="80" style="rounded=0;whiteSpace=wrap;html=1;strokeColor=light-dark(transparent,#FF0700);" vertex="1" parent="bxG6T7_YVZRhOUYlfCPM-130">
          <mxGeometry x="80" width="40" height="20" as="geometry" />
        </mxCell>
        <mxCell id="bxG6T7_YVZRhOUYlfCPM-136" value="75" style="rounded=0;whiteSpace=wrap;html=1;strokeColor=light-dark(transparent,#FF0700);" vertex="1" parent="bxG6T7_YVZRhOUYlfCPM-130">
          <mxGeometry y="80" width="40" height="20" as="geometry" />
        </mxCell>
        <mxCell id="bxG6T7_YVZRhOUYlfCPM-137" value="0" style="rounded=0;whiteSpace=wrap;html=1;strokeColor=light-dark(transparent,#FF0700);" vertex="1" parent="bxG6T7_YVZRhOUYlfCPM-130">
          <mxGeometry x="40" y="80" width="40" height="20" as="geometry" />
        </mxCell>
        <mxCell id="bxG6T7_YVZRhOUYlfCPM-138" value="80" style="rounded=0;whiteSpace=wrap;html=1;strokeColor=light-dark(transparent,#FF0700);" vertex="1" parent="bxG6T7_YVZRhOUYlfCPM-130">
          <mxGeometry x="80" y="80" width="40" height="20" as="geometry" />
        </mxCell>
        <mxCell id="bxG6T7_YVZRhOUYlfCPM-139" style="edgeStyle=orthogonalEdgeStyle;rounded=0;orthogonalLoop=1;jettySize=auto;html=1;exitX=1;exitY=0.5;exitDx=0;exitDy=0;entryX=0;entryY=0.5;entryDx=0;entryDy=0;strokeColor=light-dark(transparent,#FF0700);" edge="1" parent="1" source="bxG6T7_YVZRhOUYlfCPM-121" target="bxG6T7_YVZRhOUYlfCPM-131">
          <mxGeometry relative="1" as="geometry" />
        </mxCell>
        <mxCell id="bxG6T7_YVZRhOUYlfCPM-140" value="" style="group;strokeColor=light-dark(transparent,#FF0700);" vertex="1" connectable="0" parent="1">
          <mxGeometry x="1200" y="800" width="120" height="100" as="geometry" />
        </mxCell>
        <mxCell id="bxG6T7_YVZRhOUYlfCPM-141" value="&lt;font size=&quot;3&quot;&gt;&lt;b&gt;2.8.2&lt;/b&gt;&lt;/font&gt;" style="rounded=0;whiteSpace=wrap;html=1;strokeColor=light-dark(transparent,#FF0700);" vertex="1" parent="bxG6T7_YVZRhOUYlfCPM-140">
          <mxGeometry width="120" height="100" as="geometry" />
        </mxCell>
        <mxCell id="bxG6T7_YVZRhOUYlfCPM-142" value="80" style="rounded=0;whiteSpace=wrap;html=1;strokeColor=light-dark(transparent,#FF0700);" vertex="1" parent="bxG6T7_YVZRhOUYlfCPM-140">
          <mxGeometry width="40" height="20" as="geometry" />
        </mxCell>
        <mxCell id="bxG6T7_YVZRhOUYlfCPM-143" style="edgeStyle=orthogonalEdgeStyle;rounded=0;orthogonalLoop=1;jettySize=auto;html=1;exitX=0.25;exitY=0;exitDx=0;exitDy=0;strokeColor=light-dark(transparent,#FF0700);" edge="1" parent="bxG6T7_YVZRhOUYlfCPM-140" source="bxG6T7_YVZRhOUYlfCPM-144">
          <mxGeometry relative="1" as="geometry">
            <mxPoint x="50" y="10" as="targetPoint" />
          </mxGeometry>
        </mxCell>
        <mxCell id="bxG6T7_YVZRhOUYlfCPM-144" value="3" style="rounded=0;whiteSpace=wrap;html=1;strokeColor=light-dark(transparent,#FF0700);" vertex="1" parent="bxG6T7_YVZRhOUYlfCPM-140">
          <mxGeometry x="40" width="40" height="20" as="geometry" />
        </mxCell>
        <mxCell id="bxG6T7_YVZRhOUYlfCPM-145" value="83" style="rounded=0;whiteSpace=wrap;html=1;strokeColor=light-dark(transparent,#FF0700);" vertex="1" parent="bxG6T7_YVZRhOUYlfCPM-140">
          <mxGeometry x="80" width="40" height="20" as="geometry" />
        </mxCell>
        <mxCell id="bxG6T7_YVZRhOUYlfCPM-146" value="80" style="rounded=0;whiteSpace=wrap;html=1;strokeColor=light-dark(transparent,#FF0700);" vertex="1" parent="bxG6T7_YVZRhOUYlfCPM-140">
          <mxGeometry y="80" width="40" height="20" as="geometry" />
        </mxCell>
        <mxCell id="bxG6T7_YVZRhOUYlfCPM-147" value="0" style="rounded=0;whiteSpace=wrap;html=1;strokeColor=light-dark(transparent,#FF0700);" vertex="1" parent="bxG6T7_YVZRhOUYlfCPM-140">
          <mxGeometry x="40" y="80" width="40" height="20" as="geometry" />
        </mxCell>
        <mxCell id="bxG6T7_YVZRhOUYlfCPM-148" value="83" style="rounded=0;whiteSpace=wrap;html=1;strokeColor=light-dark(transparent,#FF0700);" vertex="1" parent="bxG6T7_YVZRhOUYlfCPM-140">
          <mxGeometry x="80" y="80" width="40" height="20" as="geometry" />
        </mxCell>
        <mxCell id="bxG6T7_YVZRhOUYlfCPM-149" style="edgeStyle=orthogonalEdgeStyle;rounded=0;orthogonalLoop=1;jettySize=auto;html=1;exitX=1;exitY=0.5;exitDx=0;exitDy=0;entryX=0;entryY=0.5;entryDx=0;entryDy=0;strokeColor=light-dark(transparent,#FF0700);" edge="1" parent="1" source="bxG6T7_YVZRhOUYlfCPM-131" target="bxG6T7_YVZRhOUYlfCPM-141">
          <mxGeometry relative="1" as="geometry" />
        </mxCell>
        <mxCell id="bxG6T7_YVZRhOUYlfCPM-150" value="" style="group;strokeColor=light-dark(transparent,#FF0700);" vertex="1" connectable="0" parent="1">
          <mxGeometry x="1440" y="800" width="120" height="100" as="geometry" />
        </mxCell>
        <mxCell id="bxG6T7_YVZRhOUYlfCPM-151" value="&lt;font size=&quot;3&quot;&gt;&lt;b&gt;3.1.1&lt;/b&gt;&lt;/font&gt;" style="rounded=0;whiteSpace=wrap;html=1;strokeColor=light-dark(transparent,#FF0700);" vertex="1" parent="bxG6T7_YVZRhOUYlfCPM-150">
          <mxGeometry width="120" height="100" as="geometry" />
        </mxCell>
        <mxCell id="bxG6T7_YVZRhOUYlfCPM-152" value="83" style="rounded=0;whiteSpace=wrap;html=1;strokeColor=light-dark(transparent,#FF0700);" vertex="1" parent="bxG6T7_YVZRhOUYlfCPM-150">
          <mxGeometry width="40" height="20" as="geometry" />
        </mxCell>
        <mxCell id="bxG6T7_YVZRhOUYlfCPM-153" style="edgeStyle=orthogonalEdgeStyle;rounded=0;orthogonalLoop=1;jettySize=auto;html=1;exitX=0.25;exitY=0;exitDx=0;exitDy=0;strokeColor=light-dark(transparent,#FF0700);" edge="1" parent="bxG6T7_YVZRhOUYlfCPM-150" source="bxG6T7_YVZRhOUYlfCPM-154">
          <mxGeometry relative="1" as="geometry">
            <mxPoint x="50" y="10" as="targetPoint" />
          </mxGeometry>
        </mxCell>
        <mxCell id="bxG6T7_YVZRhOUYlfCPM-154" value="7" style="rounded=0;whiteSpace=wrap;html=1;strokeColor=light-dark(transparent,#FF0700);" vertex="1" parent="bxG6T7_YVZRhOUYlfCPM-150">
          <mxGeometry x="40" width="40" height="20" as="geometry" />
        </mxCell>
        <mxCell id="bxG6T7_YVZRhOUYlfCPM-155" value="90" style="rounded=0;whiteSpace=wrap;html=1;strokeColor=light-dark(transparent,#FF0700);" vertex="1" parent="bxG6T7_YVZRhOUYlfCPM-150">
          <mxGeometry x="80" width="40" height="20" as="geometry" />
        </mxCell>
        <mxCell id="bxG6T7_YVZRhOUYlfCPM-156" value="83" style="rounded=0;whiteSpace=wrap;html=1;strokeColor=light-dark(transparent,#FF0700);" vertex="1" parent="bxG6T7_YVZRhOUYlfCPM-150">
          <mxGeometry y="80" width="40" height="20" as="geometry" />
        </mxCell>
        <mxCell id="bxG6T7_YVZRhOUYlfCPM-157" value="0" style="rounded=0;whiteSpace=wrap;html=1;strokeColor=light-dark(transparent,#FF0700);" vertex="1" parent="bxG6T7_YVZRhOUYlfCPM-150">
          <mxGeometry x="40" y="80" width="40" height="20" as="geometry" />
        </mxCell>
        <mxCell id="bxG6T7_YVZRhOUYlfCPM-158" value="90" style="rounded=0;whiteSpace=wrap;html=1;strokeColor=light-dark(transparent,#FF0700);" vertex="1" parent="bxG6T7_YVZRhOUYlfCPM-150">
          <mxGeometry x="80" y="80" width="40" height="20" as="geometry" />
        </mxCell>
        <mxCell id="bxG6T7_YVZRhOUYlfCPM-159" style="edgeStyle=orthogonalEdgeStyle;rounded=0;orthogonalLoop=1;jettySize=auto;html=1;exitX=1;exitY=0.5;exitDx=0;exitDy=0;entryX=0;entryY=0.5;entryDx=0;entryDy=0;strokeColor=light-dark(transparent,#FF0700);" edge="1" parent="1" source="bxG6T7_YVZRhOUYlfCPM-141" target="bxG6T7_YVZRhOUYlfCPM-151">
          <mxGeometry relative="1" as="geometry" />
        </mxCell>
        <mxCell id="bxG6T7_YVZRhOUYlfCPM-160" value="" style="group;strokeColor=light-dark(transparent,#FF0700);" vertex="1" connectable="0" parent="1">
          <mxGeometry x="1440" y="1040" width="120" height="100" as="geometry" />
        </mxCell>
        <mxCell id="bxG6T7_YVZRhOUYlfCPM-161" value="&lt;font size=&quot;3&quot;&gt;&lt;b&gt;3.1.2&lt;/b&gt;&lt;/font&gt;" style="rounded=0;whiteSpace=wrap;html=1;strokeColor=light-dark(transparent,#FF0700);" vertex="1" parent="bxG6T7_YVZRhOUYlfCPM-160">
          <mxGeometry width="120" height="100" as="geometry" />
        </mxCell>
        <mxCell id="bxG6T7_YVZRhOUYlfCPM-162" value="90" style="rounded=0;whiteSpace=wrap;html=1;strokeColor=light-dark(transparent,#FF0700);" vertex="1" parent="bxG6T7_YVZRhOUYlfCPM-160">
          <mxGeometry width="40" height="20" as="geometry" />
        </mxCell>
        <mxCell id="bxG6T7_YVZRhOUYlfCPM-163" style="edgeStyle=orthogonalEdgeStyle;rounded=0;orthogonalLoop=1;jettySize=auto;html=1;exitX=0.25;exitY=0;exitDx=0;exitDy=0;strokeColor=light-dark(transparent,#FF0700);" edge="1" parent="bxG6T7_YVZRhOUYlfCPM-160" source="bxG6T7_YVZRhOUYlfCPM-164">
          <mxGeometry relative="1" as="geometry">
            <mxPoint x="50" y="10" as="targetPoint" />
          </mxGeometry>
        </mxCell>
        <mxCell id="bxG6T7_YVZRhOUYlfCPM-164" value="3" style="rounded=0;whiteSpace=wrap;html=1;strokeColor=light-dark(transparent,#FF0700);" vertex="1" parent="bxG6T7_YVZRhOUYlfCPM-160">
          <mxGeometry x="40" width="40" height="20" as="geometry" />
        </mxCell>
        <mxCell id="bxG6T7_YVZRhOUYlfCPM-165" value="93" style="rounded=0;whiteSpace=wrap;html=1;strokeColor=light-dark(transparent,#FF0700);" vertex="1" parent="bxG6T7_YVZRhOUYlfCPM-160">
          <mxGeometry x="80" width="40" height="20" as="geometry" />
        </mxCell>
        <mxCell id="bxG6T7_YVZRhOUYlfCPM-166" value="90" style="rounded=0;whiteSpace=wrap;html=1;strokeColor=light-dark(transparent,#FF0700);" vertex="1" parent="bxG6T7_YVZRhOUYlfCPM-160">
          <mxGeometry y="80" width="40" height="20" as="geometry" />
        </mxCell>
        <mxCell id="bxG6T7_YVZRhOUYlfCPM-167" value="0" style="rounded=0;whiteSpace=wrap;html=1;strokeColor=light-dark(transparent,#FF0700);" vertex="1" parent="bxG6T7_YVZRhOUYlfCPM-160">
          <mxGeometry x="40" y="80" width="40" height="20" as="geometry" />
        </mxCell>
        <mxCell id="bxG6T7_YVZRhOUYlfCPM-168" value="93" style="rounded=0;whiteSpace=wrap;html=1;strokeColor=light-dark(transparent,#FF0700);" vertex="1" parent="bxG6T7_YVZRhOUYlfCPM-160">
          <mxGeometry x="80" y="80" width="40" height="20" as="geometry" />
        </mxCell>
        <mxCell id="bxG6T7_YVZRhOUYlfCPM-169" style="edgeStyle=orthogonalEdgeStyle;rounded=0;orthogonalLoop=1;jettySize=auto;html=1;exitX=0.5;exitY=1;exitDx=0;exitDy=0;entryX=0.5;entryY=0;entryDx=0;entryDy=0;strokeColor=light-dark(#000000,#FF0700);" edge="1" parent="1" source="bxG6T7_YVZRhOUYlfCPM-157" target="bxG6T7_YVZRhOUYlfCPM-164">
          <mxGeometry relative="1" as="geometry" />
        </mxCell>
        <mxCell id="bxG6T7_YVZRhOUYlfCPM-170" value="" style="group;strokeColor=light-dark(transparent,#FF0700);" vertex="1" connectable="0" parent="1">
          <mxGeometry x="1200" y="1040" width="120" height="100" as="geometry" />
        </mxCell>
        <mxCell id="bxG6T7_YVZRhOUYlfCPM-171" value="&lt;font size=&quot;3&quot;&gt;&lt;b&gt;3.1.3&lt;/b&gt;&lt;/font&gt;" style="rounded=0;whiteSpace=wrap;html=1;strokeColor=light-dark(transparent,#FF0700);" vertex="1" parent="bxG6T7_YVZRhOUYlfCPM-170">
          <mxGeometry width="120" height="100" as="geometry" />
        </mxCell>
        <mxCell id="bxG6T7_YVZRhOUYlfCPM-172" value="93" style="rounded=0;whiteSpace=wrap;html=1;strokeColor=light-dark(transparent,#FF0700);" vertex="1" parent="bxG6T7_YVZRhOUYlfCPM-170">
          <mxGeometry width="40" height="20" as="geometry" />
        </mxCell>
        <mxCell id="bxG6T7_YVZRhOUYlfCPM-173" style="edgeStyle=orthogonalEdgeStyle;rounded=0;orthogonalLoop=1;jettySize=auto;html=1;exitX=0.25;exitY=0;exitDx=0;exitDy=0;strokeColor=light-dark(transparent,#FF0700);" edge="1" parent="bxG6T7_YVZRhOUYlfCPM-170" source="bxG6T7_YVZRhOUYlfCPM-174">
          <mxGeometry relative="1" as="geometry">
            <mxPoint x="50" y="10" as="targetPoint" />
          </mxGeometry>
        </mxCell>
        <mxCell id="bxG6T7_YVZRhOUYlfCPM-174" value="2" style="rounded=0;whiteSpace=wrap;html=1;strokeColor=light-dark(transparent,#FF0700);" vertex="1" parent="bxG6T7_YVZRhOUYlfCPM-170">
          <mxGeometry x="40" width="40" height="20" as="geometry" />
        </mxCell>
        <mxCell id="bxG6T7_YVZRhOUYlfCPM-175" value="95" style="rounded=0;whiteSpace=wrap;html=1;strokeColor=light-dark(transparent,#FF0700);" vertex="1" parent="bxG6T7_YVZRhOUYlfCPM-170">
          <mxGeometry x="80" width="40" height="20" as="geometry" />
        </mxCell>
        <mxCell id="bxG6T7_YVZRhOUYlfCPM-176" value="93" style="rounded=0;whiteSpace=wrap;html=1;strokeColor=light-dark(transparent,#FF0700);" vertex="1" parent="bxG6T7_YVZRhOUYlfCPM-170">
          <mxGeometry y="80" width="40" height="20" as="geometry" />
        </mxCell>
        <mxCell id="bxG6T7_YVZRhOUYlfCPM-177" value="0" style="rounded=0;whiteSpace=wrap;html=1;strokeColor=light-dark(transparent,#FF0700);" vertex="1" parent="bxG6T7_YVZRhOUYlfCPM-170">
          <mxGeometry x="40" y="80" width="40" height="20" as="geometry" />
        </mxCell>
        <mxCell id="bxG6T7_YVZRhOUYlfCPM-178" value="95" style="rounded=0;whiteSpace=wrap;html=1;strokeColor=light-dark(transparent,#FF0700);" vertex="1" parent="bxG6T7_YVZRhOUYlfCPM-170">
          <mxGeometry x="80" y="80" width="40" height="20" as="geometry" />
        </mxCell>
        <mxCell id="bxG6T7_YVZRhOUYlfCPM-179" style="edgeStyle=orthogonalEdgeStyle;rounded=0;orthogonalLoop=1;jettySize=auto;html=1;exitX=0;exitY=0.5;exitDx=0;exitDy=0;entryX=1;entryY=0.5;entryDx=0;entryDy=0;strokeColor=light-dark(transparent,#FF0700);" edge="1" parent="1" source="bxG6T7_YVZRhOUYlfCPM-161" target="bxG6T7_YVZRhOUYlfCPM-171">
          <mxGeometry relative="1" as="geometry" />
        </mxCell>
        <mxCell id="bxG6T7_YVZRhOUYlfCPM-180" value="" style="group;strokeColor=light-dark(transparent,#FF0700);" vertex="1" connectable="0" parent="1">
          <mxGeometry x="960" y="1040" width="120" height="100" as="geometry" />
        </mxCell>
        <mxCell id="bxG6T7_YVZRhOUYlfCPM-181" value="&lt;font size=&quot;3&quot;&gt;&lt;b&gt;3.1.4&lt;/b&gt;&lt;/font&gt;" style="rounded=0;whiteSpace=wrap;html=1;strokeColor=light-dark(transparent,#FF0700);" vertex="1" parent="bxG6T7_YVZRhOUYlfCPM-180">
          <mxGeometry width="120" height="100" as="geometry" />
        </mxCell>
        <mxCell id="bxG6T7_YVZRhOUYlfCPM-182" value="95" style="rounded=0;whiteSpace=wrap;html=1;strokeColor=light-dark(transparent,#FF0700);" vertex="1" parent="bxG6T7_YVZRhOUYlfCPM-180">
          <mxGeometry width="40" height="20" as="geometry" />
        </mxCell>
        <mxCell id="bxG6T7_YVZRhOUYlfCPM-183" style="edgeStyle=orthogonalEdgeStyle;rounded=0;orthogonalLoop=1;jettySize=auto;html=1;exitX=0.25;exitY=0;exitDx=0;exitDy=0;strokeColor=light-dark(transparent,#FF0700);" edge="1" parent="bxG6T7_YVZRhOUYlfCPM-180" source="bxG6T7_YVZRhOUYlfCPM-184">
          <mxGeometry relative="1" as="geometry">
            <mxPoint x="50" y="10" as="targetPoint" />
          </mxGeometry>
        </mxCell>
        <mxCell id="bxG6T7_YVZRhOUYlfCPM-184" value="1" style="rounded=0;whiteSpace=wrap;html=1;strokeColor=light-dark(transparent,#FF0700);" vertex="1" parent="bxG6T7_YVZRhOUYlfCPM-180">
          <mxGeometry x="40" width="40" height="20" as="geometry" />
        </mxCell>
        <mxCell id="bxG6T7_YVZRhOUYlfCPM-185" value="96" style="rounded=0;whiteSpace=wrap;html=1;strokeColor=light-dark(transparent,#FF0700);" vertex="1" parent="bxG6T7_YVZRhOUYlfCPM-180">
          <mxGeometry x="80" width="40" height="20" as="geometry" />
        </mxCell>
        <mxCell id="bxG6T7_YVZRhOUYlfCPM-186" value="95" style="rounded=0;whiteSpace=wrap;html=1;strokeColor=light-dark(transparent,#FF0700);" vertex="1" parent="bxG6T7_YVZRhOUYlfCPM-180">
          <mxGeometry y="80" width="40" height="20" as="geometry" />
        </mxCell>
        <mxCell id="bxG6T7_YVZRhOUYlfCPM-187" value="0" style="rounded=0;whiteSpace=wrap;html=1;strokeColor=light-dark(transparent,#FF0700);" vertex="1" parent="bxG6T7_YVZRhOUYlfCPM-180">
          <mxGeometry x="40" y="80" width="40" height="20" as="geometry" />
        </mxCell>
        <mxCell id="bxG6T7_YVZRhOUYlfCPM-188" value="96" style="rounded=0;whiteSpace=wrap;html=1;strokeColor=light-dark(transparent,#FF0700);" vertex="1" parent="bxG6T7_YVZRhOUYlfCPM-180">
          <mxGeometry x="80" y="80" width="40" height="20" as="geometry" />
        </mxCell>
        <mxCell id="bxG6T7_YVZRhOUYlfCPM-189" style="edgeStyle=orthogonalEdgeStyle;rounded=0;orthogonalLoop=1;jettySize=auto;html=1;exitX=0;exitY=0.5;exitDx=0;exitDy=0;entryX=1;entryY=0.5;entryDx=0;entryDy=0;strokeColor=light-dark(transparent,#FF0700);" edge="1" parent="1" source="bxG6T7_YVZRhOUYlfCPM-171" target="bxG6T7_YVZRhOUYlfCPM-181">
          <mxGeometry relative="1" as="geometry" />
        </mxCell>
        <mxCell id="bxG6T7_YVZRhOUYlfCPM-190" value="" style="group;strokeColor=light-dark(transparent,#FF0700);" vertex="1" connectable="0" parent="1">
          <mxGeometry x="720" y="940" width="120" height="100" as="geometry" />
        </mxCell>
        <mxCell id="bxG6T7_YVZRhOUYlfCPM-191" value="&lt;font size=&quot;3&quot;&gt;&lt;b&gt;3.2.1&lt;/b&gt;&lt;/font&gt;" style="rounded=0;whiteSpace=wrap;html=1;strokeColor=light-dark(transparent,#FF0700);" vertex="1" parent="bxG6T7_YVZRhOUYlfCPM-190">
          <mxGeometry width="120" height="100" as="geometry" />
        </mxCell>
        <mxCell id="bxG6T7_YVZRhOUYlfCPM-192" value="96" style="rounded=0;whiteSpace=wrap;html=1;strokeColor=light-dark(transparent,#FF0700);" vertex="1" parent="bxG6T7_YVZRhOUYlfCPM-190">
          <mxGeometry width="40" height="20" as="geometry" />
        </mxCell>
        <mxCell id="bxG6T7_YVZRhOUYlfCPM-193" style="edgeStyle=orthogonalEdgeStyle;rounded=0;orthogonalLoop=1;jettySize=auto;html=1;exitX=0.25;exitY=0;exitDx=0;exitDy=0;strokeColor=light-dark(transparent,#FF0700);" edge="1" parent="bxG6T7_YVZRhOUYlfCPM-190" source="bxG6T7_YVZRhOUYlfCPM-194">
          <mxGeometry relative="1" as="geometry">
            <mxPoint x="50" y="10" as="targetPoint" />
          </mxGeometry>
        </mxCell>
        <mxCell id="bxG6T7_YVZRhOUYlfCPM-194" value="10" style="rounded=0;whiteSpace=wrap;html=1;strokeColor=light-dark(transparent,#FF0700);" vertex="1" parent="bxG6T7_YVZRhOUYlfCPM-190">
          <mxGeometry x="40" width="40" height="20" as="geometry" />
        </mxCell>
        <mxCell id="bxG6T7_YVZRhOUYlfCPM-195" value="106" style="rounded=0;whiteSpace=wrap;html=1;strokeColor=light-dark(transparent,#FF0700);" vertex="1" parent="bxG6T7_YVZRhOUYlfCPM-190">
          <mxGeometry x="80" width="40" height="20" as="geometry" />
        </mxCell>
        <mxCell id="bxG6T7_YVZRhOUYlfCPM-196" value="96" style="rounded=0;whiteSpace=wrap;html=1;strokeColor=light-dark(transparent,#FF0700);" vertex="1" parent="bxG6T7_YVZRhOUYlfCPM-190">
          <mxGeometry y="80" width="40" height="20" as="geometry" />
        </mxCell>
        <mxCell id="bxG6T7_YVZRhOUYlfCPM-197" value="0" style="rounded=0;whiteSpace=wrap;html=1;strokeColor=light-dark(transparent,#FF0700);" vertex="1" parent="bxG6T7_YVZRhOUYlfCPM-190">
          <mxGeometry x="40" y="80" width="40" height="20" as="geometry" />
        </mxCell>
        <mxCell id="bxG6T7_YVZRhOUYlfCPM-198" value="106" style="rounded=0;whiteSpace=wrap;html=1;strokeColor=light-dark(transparent,#FF0700);" vertex="1" parent="bxG6T7_YVZRhOUYlfCPM-190">
          <mxGeometry x="80" y="80" width="40" height="20" as="geometry" />
        </mxCell>
        <mxCell id="bxG6T7_YVZRhOUYlfCPM-199" style="edgeStyle=orthogonalEdgeStyle;rounded=0;orthogonalLoop=1;jettySize=auto;html=1;exitX=0;exitY=0.5;exitDx=0;exitDy=0;entryX=1;entryY=0.5;entryDx=0;entryDy=0;strokeColor=light-dark(#000000,#FF0700);" edge="1" parent="1" source="bxG6T7_YVZRhOUYlfCPM-181" target="bxG6T7_YVZRhOUYlfCPM-191">
          <mxGeometry relative="1" as="geometry" />
        </mxCell>
        <mxCell id="bxG6T7_YVZRhOUYlfCPM-200" value="" style="group" vertex="1" connectable="0" parent="1">
          <mxGeometry x="720" y="1160" width="120" height="100" as="geometry" />
        </mxCell>
        <mxCell id="bxG6T7_YVZRhOUYlfCPM-201" value="&lt;font size=&quot;3&quot;&gt;&lt;b&gt;3.2.2&lt;/b&gt;&lt;/font&gt;" style="rounded=0;whiteSpace=wrap;html=1;" vertex="1" parent="bxG6T7_YVZRhOUYlfCPM-200">
          <mxGeometry width="120" height="100" as="geometry" />
        </mxCell>
        <mxCell id="bxG6T7_YVZRhOUYlfCPM-202" value="96" style="rounded=0;whiteSpace=wrap;html=1;" vertex="1" parent="bxG6T7_YVZRhOUYlfCPM-200">
          <mxGeometry width="40" height="20" as="geometry" />
        </mxCell>
        <mxCell id="bxG6T7_YVZRhOUYlfCPM-203" style="edgeStyle=orthogonalEdgeStyle;rounded=0;orthogonalLoop=1;jettySize=auto;html=1;exitX=0.25;exitY=0;exitDx=0;exitDy=0;" edge="1" parent="bxG6T7_YVZRhOUYlfCPM-200" source="bxG6T7_YVZRhOUYlfCPM-204">
          <mxGeometry relative="1" as="geometry">
            <mxPoint x="50" y="10" as="targetPoint" />
          </mxGeometry>
        </mxCell>
        <mxCell id="bxG6T7_YVZRhOUYlfCPM-204" value="4" style="rounded=0;whiteSpace=wrap;html=1;" vertex="1" parent="bxG6T7_YVZRhOUYlfCPM-200">
          <mxGeometry x="40" width="40" height="20" as="geometry" />
        </mxCell>
        <mxCell id="bxG6T7_YVZRhOUYlfCPM-205" value="100" style="rounded=0;whiteSpace=wrap;html=1;" vertex="1" parent="bxG6T7_YVZRhOUYlfCPM-200">
          <mxGeometry x="80" width="40" height="20" as="geometry" />
        </mxCell>
        <mxCell id="bxG6T7_YVZRhOUYlfCPM-206" value="102" style="rounded=0;whiteSpace=wrap;html=1;" vertex="1" parent="bxG6T7_YVZRhOUYlfCPM-200">
          <mxGeometry y="80" width="40" height="20" as="geometry" />
        </mxCell>
        <mxCell id="bxG6T7_YVZRhOUYlfCPM-207" value="6" style="rounded=0;whiteSpace=wrap;html=1;" vertex="1" parent="bxG6T7_YVZRhOUYlfCPM-200">
          <mxGeometry x="40" y="80" width="40" height="20" as="geometry" />
        </mxCell>
        <mxCell id="bxG6T7_YVZRhOUYlfCPM-208" value="106" style="rounded=0;whiteSpace=wrap;html=1;" vertex="1" parent="bxG6T7_YVZRhOUYlfCPM-200">
          <mxGeometry x="80" y="80" width="40" height="20" as="geometry" />
        </mxCell>
        <mxCell id="bxG6T7_YVZRhOUYlfCPM-210" value="" style="group;strokeColor=light-dark(transparent,#FF0700);" vertex="1" connectable="0" parent="1">
          <mxGeometry x="480" y="1040" width="120" height="100" as="geometry" />
        </mxCell>
        <mxCell id="bxG6T7_YVZRhOUYlfCPM-211" value="&lt;font size=&quot;3&quot;&gt;&lt;b&gt;3.2.3&lt;/b&gt;&lt;/font&gt;" style="rounded=0;whiteSpace=wrap;html=1;strokeColor=light-dark(transparent,#FF0700);" vertex="1" parent="bxG6T7_YVZRhOUYlfCPM-210">
          <mxGeometry width="120" height="100" as="geometry" />
        </mxCell>
        <mxCell id="bxG6T7_YVZRhOUYlfCPM-212" value="106" style="rounded=0;whiteSpace=wrap;html=1;strokeColor=light-dark(transparent,#FF0700);" vertex="1" parent="bxG6T7_YVZRhOUYlfCPM-210">
          <mxGeometry width="40" height="20" as="geometry" />
        </mxCell>
        <mxCell id="bxG6T7_YVZRhOUYlfCPM-213" style="edgeStyle=orthogonalEdgeStyle;rounded=0;orthogonalLoop=1;jettySize=auto;html=1;exitX=0.25;exitY=0;exitDx=0;exitDy=0;strokeColor=light-dark(transparent,#FF0700);" edge="1" parent="bxG6T7_YVZRhOUYlfCPM-210" source="bxG6T7_YVZRhOUYlfCPM-214">
          <mxGeometry relative="1" as="geometry">
            <mxPoint x="50" y="10" as="targetPoint" />
          </mxGeometry>
        </mxCell>
        <mxCell id="bxG6T7_YVZRhOUYlfCPM-214" value="10" style="rounded=0;whiteSpace=wrap;html=1;strokeColor=light-dark(transparent,#FF0700);" vertex="1" parent="bxG6T7_YVZRhOUYlfCPM-210">
          <mxGeometry x="40" width="40" height="20" as="geometry" />
        </mxCell>
        <mxCell id="bxG6T7_YVZRhOUYlfCPM-215" value="116" style="rounded=0;whiteSpace=wrap;html=1;strokeColor=light-dark(transparent,#FF0700);" vertex="1" parent="bxG6T7_YVZRhOUYlfCPM-210">
          <mxGeometry x="80" width="40" height="20" as="geometry" />
        </mxCell>
        <mxCell id="bxG6T7_YVZRhOUYlfCPM-216" value="106" style="rounded=0;whiteSpace=wrap;html=1;strokeColor=light-dark(transparent,#FF0700);" vertex="1" parent="bxG6T7_YVZRhOUYlfCPM-210">
          <mxGeometry y="80" width="40" height="20" as="geometry" />
        </mxCell>
        <mxCell id="bxG6T7_YVZRhOUYlfCPM-217" value="0" style="rounded=0;whiteSpace=wrap;html=1;strokeColor=light-dark(transparent,#FF0700);" vertex="1" parent="bxG6T7_YVZRhOUYlfCPM-210">
          <mxGeometry x="40" y="80" width="40" height="20" as="geometry" />
        </mxCell>
        <mxCell id="bxG6T7_YVZRhOUYlfCPM-218" value="116" style="rounded=0;whiteSpace=wrap;html=1;strokeColor=light-dark(transparent,#FF0700);" vertex="1" parent="bxG6T7_YVZRhOUYlfCPM-210">
          <mxGeometry x="80" y="80" width="40" height="20" as="geometry" />
        </mxCell>
        <mxCell id="bxG6T7_YVZRhOUYlfCPM-220" style="edgeStyle=orthogonalEdgeStyle;rounded=0;orthogonalLoop=1;jettySize=auto;html=1;exitX=0;exitY=0.5;exitDx=0;exitDy=0;entryX=1;entryY=0.5;entryDx=0;entryDy=0;" edge="1" parent="1" source="bxG6T7_YVZRhOUYlfCPM-201" target="bxG6T7_YVZRhOUYlfCPM-211">
          <mxGeometry relative="1" as="geometry" />
        </mxCell>
        <mxCell id="bxG6T7_YVZRhOUYlfCPM-221" value="" style="group;strokeColor=light-dark(transparent,#FF0700);" vertex="1" connectable="0" parent="1">
          <mxGeometry x="240" y="1040" width="120" height="100" as="geometry" />
        </mxCell>
        <mxCell id="bxG6T7_YVZRhOUYlfCPM-222" value="&lt;font size=&quot;3&quot;&gt;&lt;b&gt;3.2.4&lt;/b&gt;&lt;/font&gt;" style="rounded=0;whiteSpace=wrap;html=1;strokeColor=light-dark(transparent,#FF0700);" vertex="1" parent="bxG6T7_YVZRhOUYlfCPM-221">
          <mxGeometry width="120" height="100" as="geometry" />
        </mxCell>
        <mxCell id="bxG6T7_YVZRhOUYlfCPM-223" value="116" style="rounded=0;whiteSpace=wrap;html=1;strokeColor=light-dark(transparent,#FF0700);" vertex="1" parent="bxG6T7_YVZRhOUYlfCPM-221">
          <mxGeometry width="40" height="20" as="geometry" />
        </mxCell>
        <mxCell id="bxG6T7_YVZRhOUYlfCPM-224" style="edgeStyle=orthogonalEdgeStyle;rounded=0;orthogonalLoop=1;jettySize=auto;html=1;exitX=0.25;exitY=0;exitDx=0;exitDy=0;strokeColor=light-dark(transparent,#FF0700);" edge="1" parent="bxG6T7_YVZRhOUYlfCPM-221" source="bxG6T7_YVZRhOUYlfCPM-225">
          <mxGeometry relative="1" as="geometry">
            <mxPoint x="50" y="10" as="targetPoint" />
          </mxGeometry>
        </mxCell>
        <mxCell id="bxG6T7_YVZRhOUYlfCPM-225" value="2" style="rounded=0;whiteSpace=wrap;html=1;strokeColor=light-dark(transparent,#FF0700);" vertex="1" parent="bxG6T7_YVZRhOUYlfCPM-221">
          <mxGeometry x="40" width="40" height="20" as="geometry" />
        </mxCell>
        <mxCell id="bxG6T7_YVZRhOUYlfCPM-226" value="118" style="rounded=0;whiteSpace=wrap;html=1;strokeColor=light-dark(transparent,#FF0700);" vertex="1" parent="bxG6T7_YVZRhOUYlfCPM-221">
          <mxGeometry x="80" width="40" height="20" as="geometry" />
        </mxCell>
        <mxCell id="bxG6T7_YVZRhOUYlfCPM-227" value="116" style="rounded=0;whiteSpace=wrap;html=1;strokeColor=light-dark(transparent,#FF0700);" vertex="1" parent="bxG6T7_YVZRhOUYlfCPM-221">
          <mxGeometry y="80" width="40" height="20" as="geometry" />
        </mxCell>
        <mxCell id="bxG6T7_YVZRhOUYlfCPM-228" value="0" style="rounded=0;whiteSpace=wrap;html=1;strokeColor=light-dark(transparent,#FF0700);" vertex="1" parent="bxG6T7_YVZRhOUYlfCPM-221">
          <mxGeometry x="40" y="80" width="40" height="20" as="geometry" />
        </mxCell>
        <mxCell id="bxG6T7_YVZRhOUYlfCPM-229" value="118" style="rounded=0;whiteSpace=wrap;html=1;strokeColor=light-dark(transparent,#FF0700);" vertex="1" parent="bxG6T7_YVZRhOUYlfCPM-221">
          <mxGeometry x="80" y="80" width="40" height="20" as="geometry" />
        </mxCell>
        <mxCell id="bxG6T7_YVZRhOUYlfCPM-230" style="edgeStyle=orthogonalEdgeStyle;rounded=0;orthogonalLoop=1;jettySize=auto;html=1;exitX=0;exitY=0.5;exitDx=0;exitDy=0;entryX=1;entryY=0.5;entryDx=0;entryDy=0;strokeColor=light-dark(transparent,#FF0700);" edge="1" parent="1" source="bxG6T7_YVZRhOUYlfCPM-211" target="bxG6T7_YVZRhOUYlfCPM-222">
          <mxGeometry relative="1" as="geometry" />
        </mxCell>
        <mxCell id="bxG6T7_YVZRhOUYlfCPM-231" value="" style="group" vertex="1" connectable="0" parent="1">
          <mxGeometry x="480" y="1300" width="120" height="100" as="geometry" />
        </mxCell>
        <mxCell id="bxG6T7_YVZRhOUYlfCPM-232" value="&lt;font size=&quot;3&quot;&gt;&lt;b&gt;3.2.5&lt;/b&gt;&lt;/font&gt;" style="rounded=0;whiteSpace=wrap;html=1;" vertex="1" parent="bxG6T7_YVZRhOUYlfCPM-231">
          <mxGeometry width="120" height="100" as="geometry" />
        </mxCell>
        <mxCell id="bxG6T7_YVZRhOUYlfCPM-233" value="118" style="rounded=0;whiteSpace=wrap;html=1;" vertex="1" parent="bxG6T7_YVZRhOUYlfCPM-231">
          <mxGeometry width="40" height="20" as="geometry" />
        </mxCell>
        <mxCell id="bxG6T7_YVZRhOUYlfCPM-234" style="edgeStyle=orthogonalEdgeStyle;rounded=0;orthogonalLoop=1;jettySize=auto;html=1;exitX=0.25;exitY=0;exitDx=0;exitDy=0;" edge="1" parent="bxG6T7_YVZRhOUYlfCPM-231" source="bxG6T7_YVZRhOUYlfCPM-235">
          <mxGeometry relative="1" as="geometry">
            <mxPoint x="50" y="10" as="targetPoint" />
          </mxGeometry>
        </mxCell>
        <mxCell id="bxG6T7_YVZRhOUYlfCPM-235" value="5" style="rounded=0;whiteSpace=wrap;html=1;" vertex="1" parent="bxG6T7_YVZRhOUYlfCPM-231">
          <mxGeometry x="40" width="40" height="20" as="geometry" />
        </mxCell>
        <mxCell id="bxG6T7_YVZRhOUYlfCPM-236" value="123" style="rounded=0;whiteSpace=wrap;html=1;" vertex="1" parent="bxG6T7_YVZRhOUYlfCPM-231">
          <mxGeometry x="80" width="40" height="20" as="geometry" />
        </mxCell>
        <mxCell id="bxG6T7_YVZRhOUYlfCPM-237" value="119" style="rounded=0;whiteSpace=wrap;html=1;" vertex="1" parent="bxG6T7_YVZRhOUYlfCPM-231">
          <mxGeometry y="80" width="40" height="20" as="geometry" />
        </mxCell>
        <mxCell id="bxG6T7_YVZRhOUYlfCPM-238" value="1" style="rounded=0;whiteSpace=wrap;html=1;" vertex="1" parent="bxG6T7_YVZRhOUYlfCPM-231">
          <mxGeometry x="40" y="80" width="40" height="20" as="geometry" />
        </mxCell>
        <mxCell id="bxG6T7_YVZRhOUYlfCPM-239" value="124" style="rounded=0;whiteSpace=wrap;html=1;" vertex="1" parent="bxG6T7_YVZRhOUYlfCPM-231">
          <mxGeometry x="80" y="80" width="40" height="20" as="geometry" />
        </mxCell>
        <mxCell id="bxG6T7_YVZRhOUYlfCPM-240" value="" style="group" vertex="1" connectable="0" parent="1">
          <mxGeometry x="720" y="1300" width="120" height="100" as="geometry" />
        </mxCell>
        <mxCell id="bxG6T7_YVZRhOUYlfCPM-241" value="&lt;font size=&quot;3&quot;&gt;&lt;b&gt;3.2.6&lt;/b&gt;&lt;/font&gt;" style="rounded=0;whiteSpace=wrap;html=1;" vertex="1" parent="bxG6T7_YVZRhOUYlfCPM-240">
          <mxGeometry width="120" height="100" as="geometry" />
        </mxCell>
        <mxCell id="bxG6T7_YVZRhOUYlfCPM-242" value="123" style="rounded=0;whiteSpace=wrap;html=1;" vertex="1" parent="bxG6T7_YVZRhOUYlfCPM-240">
          <mxGeometry width="40" height="20" as="geometry" />
        </mxCell>
        <mxCell id="bxG6T7_YVZRhOUYlfCPM-243" style="edgeStyle=orthogonalEdgeStyle;rounded=0;orthogonalLoop=1;jettySize=auto;html=1;exitX=0.25;exitY=0;exitDx=0;exitDy=0;" edge="1" parent="bxG6T7_YVZRhOUYlfCPM-240" source="bxG6T7_YVZRhOUYlfCPM-244">
          <mxGeometry relative="1" as="geometry">
            <mxPoint x="50" y="10" as="targetPoint" />
          </mxGeometry>
        </mxCell>
        <mxCell id="bxG6T7_YVZRhOUYlfCPM-244" value="3" style="rounded=0;whiteSpace=wrap;html=1;" vertex="1" parent="bxG6T7_YVZRhOUYlfCPM-240">
          <mxGeometry x="40" width="40" height="20" as="geometry" />
        </mxCell>
        <mxCell id="bxG6T7_YVZRhOUYlfCPM-245" value="126" style="rounded=0;whiteSpace=wrap;html=1;" vertex="1" parent="bxG6T7_YVZRhOUYlfCPM-240">
          <mxGeometry x="80" width="40" height="20" as="geometry" />
        </mxCell>
        <mxCell id="bxG6T7_YVZRhOUYlfCPM-246" value="124" style="rounded=0;whiteSpace=wrap;html=1;" vertex="1" parent="bxG6T7_YVZRhOUYlfCPM-240">
          <mxGeometry y="80" width="40" height="20" as="geometry" />
        </mxCell>
        <mxCell id="bxG6T7_YVZRhOUYlfCPM-247" value="1" style="rounded=0;whiteSpace=wrap;html=1;" vertex="1" parent="bxG6T7_YVZRhOUYlfCPM-240">
          <mxGeometry x="40" y="80" width="40" height="20" as="geometry" />
        </mxCell>
        <mxCell id="bxG6T7_YVZRhOUYlfCPM-248" value="127" style="rounded=0;whiteSpace=wrap;html=1;" vertex="1" parent="bxG6T7_YVZRhOUYlfCPM-240">
          <mxGeometry x="80" y="80" width="40" height="20" as="geometry" />
        </mxCell>
        <mxCell id="bxG6T7_YVZRhOUYlfCPM-249" value="" style="group;strokeColor=light-dark(transparent,#FF0700);" vertex="1" connectable="0" parent="1">
          <mxGeometry x="480" y="1520" width="120" height="100" as="geometry" />
        </mxCell>
        <mxCell id="bxG6T7_YVZRhOUYlfCPM-250" value="&lt;font size=&quot;3&quot;&gt;&lt;b&gt;3.2.7&lt;/b&gt;&lt;/font&gt;" style="rounded=0;whiteSpace=wrap;html=1;strokeColor=light-dark(transparent,#FF0700);" vertex="1" parent="bxG6T7_YVZRhOUYlfCPM-249">
          <mxGeometry width="120" height="100" as="geometry" />
        </mxCell>
        <mxCell id="bxG6T7_YVZRhOUYlfCPM-251" value="118" style="rounded=0;whiteSpace=wrap;html=1;strokeColor=light-dark(transparent,#FF0700);" vertex="1" parent="bxG6T7_YVZRhOUYlfCPM-249">
          <mxGeometry width="40" height="20" as="geometry" />
        </mxCell>
        <mxCell id="bxG6T7_YVZRhOUYlfCPM-252" style="edgeStyle=orthogonalEdgeStyle;rounded=0;orthogonalLoop=1;jettySize=auto;html=1;exitX=0.25;exitY=0;exitDx=0;exitDy=0;strokeColor=light-dark(transparent,#FF0700);" edge="1" parent="bxG6T7_YVZRhOUYlfCPM-249" source="bxG6T7_YVZRhOUYlfCPM-253">
          <mxGeometry relative="1" as="geometry">
            <mxPoint x="50" y="10" as="targetPoint" />
          </mxGeometry>
        </mxCell>
        <mxCell id="bxG6T7_YVZRhOUYlfCPM-253" value="9" style="rounded=0;whiteSpace=wrap;html=1;strokeColor=light-dark(transparent,#FF0700);" vertex="1" parent="bxG6T7_YVZRhOUYlfCPM-249">
          <mxGeometry x="40" width="40" height="20" as="geometry" />
        </mxCell>
        <mxCell id="bxG6T7_YVZRhOUYlfCPM-254" value="127" style="rounded=0;whiteSpace=wrap;html=1;strokeColor=light-dark(transparent,#FF0700);" vertex="1" parent="bxG6T7_YVZRhOUYlfCPM-249">
          <mxGeometry x="80" width="40" height="20" as="geometry" />
        </mxCell>
        <mxCell id="bxG6T7_YVZRhOUYlfCPM-255" value="118" style="rounded=0;whiteSpace=wrap;html=1;strokeColor=light-dark(transparent,#FF0700);" vertex="1" parent="bxG6T7_YVZRhOUYlfCPM-249">
          <mxGeometry y="80" width="40" height="20" as="geometry" />
        </mxCell>
        <mxCell id="bxG6T7_YVZRhOUYlfCPM-256" value="0" style="rounded=0;whiteSpace=wrap;html=1;strokeColor=light-dark(transparent,#FF0700);" vertex="1" parent="bxG6T7_YVZRhOUYlfCPM-249">
          <mxGeometry x="40" y="80" width="40" height="20" as="geometry" />
        </mxCell>
        <mxCell id="bxG6T7_YVZRhOUYlfCPM-257" value="127" style="rounded=0;whiteSpace=wrap;html=1;strokeColor=light-dark(transparent,#FF0700);" vertex="1" parent="bxG6T7_YVZRhOUYlfCPM-249">
          <mxGeometry x="80" y="80" width="40" height="20" as="geometry" />
        </mxCell>
        <mxCell id="bxG6T7_YVZRhOUYlfCPM-259" style="edgeStyle=orthogonalEdgeStyle;rounded=0;orthogonalLoop=1;jettySize=auto;html=1;exitX=0.5;exitY=1;exitDx=0;exitDy=0;entryX=0;entryY=0.5;entryDx=0;entryDy=0;strokeColor=light-dark(#000000,#FF0700);" edge="1" parent="1" source="bxG6T7_YVZRhOUYlfCPM-228" target="bxG6T7_YVZRhOUYlfCPM-250">
          <mxGeometry relative="1" as="geometry" />
        </mxCell>
        <mxCell id="bxG6T7_YVZRhOUYlfCPM-260" style="edgeStyle=orthogonalEdgeStyle;rounded=0;orthogonalLoop=1;jettySize=auto;html=1;exitX=1;exitY=0.5;exitDx=0;exitDy=0;entryX=0;entryY=0.5;entryDx=0;entryDy=0;" edge="1" parent="1" source="bxG6T7_YVZRhOUYlfCPM-232" target="bxG6T7_YVZRhOUYlfCPM-241">
          <mxGeometry relative="1" as="geometry" />
        </mxCell>
        <mxCell id="bxG6T7_YVZRhOUYlfCPM-261" value="" style="group;strokeColor=light-dark(transparent,#FF0000);" vertex="1" connectable="0" parent="1">
          <mxGeometry x="960" y="1400" width="120" height="100" as="geometry" />
        </mxCell>
        <mxCell id="bxG6T7_YVZRhOUYlfCPM-262" value="&lt;font size=&quot;3&quot;&gt;&lt;b&gt;3.2.8&lt;/b&gt;&lt;/font&gt;" style="rounded=0;whiteSpace=wrap;html=1;strokeColor=light-dark(transparent,#FF0000);" vertex="1" parent="bxG6T7_YVZRhOUYlfCPM-261">
          <mxGeometry width="120" height="100" as="geometry" />
        </mxCell>
        <mxCell id="bxG6T7_YVZRhOUYlfCPM-263" value="127" style="rounded=0;whiteSpace=wrap;html=1;strokeColor=light-dark(transparent,#FF0000);" vertex="1" parent="bxG6T7_YVZRhOUYlfCPM-261">
          <mxGeometry width="40" height="20" as="geometry" />
        </mxCell>
        <mxCell id="bxG6T7_YVZRhOUYlfCPM-264" style="edgeStyle=orthogonalEdgeStyle;rounded=0;orthogonalLoop=1;jettySize=auto;html=1;exitX=0.25;exitY=0;exitDx=0;exitDy=0;strokeColor=light-dark(transparent,#FF0000);" edge="1" parent="bxG6T7_YVZRhOUYlfCPM-261" source="bxG6T7_YVZRhOUYlfCPM-265">
          <mxGeometry relative="1" as="geometry">
            <mxPoint x="50" y="10" as="targetPoint" />
          </mxGeometry>
        </mxCell>
        <mxCell id="bxG6T7_YVZRhOUYlfCPM-265" value="1" style="rounded=0;whiteSpace=wrap;html=1;strokeColor=light-dark(transparent,#FF0000);" vertex="1" parent="bxG6T7_YVZRhOUYlfCPM-261">
          <mxGeometry x="40" width="40" height="20" as="geometry" />
        </mxCell>
        <mxCell id="bxG6T7_YVZRhOUYlfCPM-266" value="128" style="rounded=0;whiteSpace=wrap;html=1;strokeColor=light-dark(transparent,#FF0000);" vertex="1" parent="bxG6T7_YVZRhOUYlfCPM-261">
          <mxGeometry x="80" width="40" height="20" as="geometry" />
        </mxCell>
        <mxCell id="bxG6T7_YVZRhOUYlfCPM-267" value="127" style="rounded=0;whiteSpace=wrap;html=1;strokeColor=light-dark(transparent,#FF0000);" vertex="1" parent="bxG6T7_YVZRhOUYlfCPM-261">
          <mxGeometry y="80" width="40" height="20" as="geometry" />
        </mxCell>
        <mxCell id="bxG6T7_YVZRhOUYlfCPM-268" value="0" style="rounded=0;whiteSpace=wrap;html=1;strokeColor=light-dark(transparent,#FF0000);" vertex="1" parent="bxG6T7_YVZRhOUYlfCPM-261">
          <mxGeometry x="40" y="80" width="40" height="20" as="geometry" />
        </mxCell>
        <mxCell id="bxG6T7_YVZRhOUYlfCPM-269" value="128" style="rounded=0;whiteSpace=wrap;html=1;strokeColor=light-dark(transparent,#FF0000);" vertex="1" parent="bxG6T7_YVZRhOUYlfCPM-261">
          <mxGeometry x="80" y="80" width="40" height="20" as="geometry" />
        </mxCell>
        <mxCell id="bxG6T7_YVZRhOUYlfCPM-271" style="edgeStyle=orthogonalEdgeStyle;rounded=0;orthogonalLoop=1;jettySize=auto;html=1;exitX=1;exitY=0.5;exitDx=0;exitDy=0;entryX=0;entryY=0.5;entryDx=0;entryDy=0;strokeColor=light-dark(#000000,#FF0700);" edge="1" parent="1" source="bxG6T7_YVZRhOUYlfCPM-250" target="bxG6T7_YVZRhOUYlfCPM-262">
          <mxGeometry relative="1" as="geometry">
            <Array as="points">
              <mxPoint x="900" y="1570" />
              <mxPoint x="900" y="1450" />
            </Array>
          </mxGeometry>
        </mxCell>
        <mxCell id="bxG6T7_YVZRhOUYlfCPM-273" value="" style="group;strokeColor=light-dark(transparent,#FF0000);" vertex="1" connectable="0" parent="1">
          <mxGeometry x="1200" y="1400" width="120" height="100" as="geometry" />
        </mxCell>
        <mxCell id="bxG6T7_YVZRhOUYlfCPM-274" value="&lt;font size=&quot;3&quot;&gt;&lt;b&gt;3.3.1&lt;/b&gt;&lt;/font&gt;" style="rounded=0;whiteSpace=wrap;html=1;strokeColor=light-dark(transparent,#FF0000);" vertex="1" parent="bxG6T7_YVZRhOUYlfCPM-273">
          <mxGeometry width="120" height="100" as="geometry" />
        </mxCell>
        <mxCell id="bxG6T7_YVZRhOUYlfCPM-275" value="128" style="rounded=0;whiteSpace=wrap;html=1;strokeColor=light-dark(transparent,#FF0000);" vertex="1" parent="bxG6T7_YVZRhOUYlfCPM-273">
          <mxGeometry width="40" height="20" as="geometry" />
        </mxCell>
        <mxCell id="bxG6T7_YVZRhOUYlfCPM-276" style="edgeStyle=orthogonalEdgeStyle;rounded=0;orthogonalLoop=1;jettySize=auto;html=1;exitX=0.25;exitY=0;exitDx=0;exitDy=0;strokeColor=light-dark(transparent,#FF0000);" edge="1" parent="bxG6T7_YVZRhOUYlfCPM-273" source="bxG6T7_YVZRhOUYlfCPM-277">
          <mxGeometry relative="1" as="geometry">
            <mxPoint x="50" y="10" as="targetPoint" />
          </mxGeometry>
        </mxCell>
        <mxCell id="bxG6T7_YVZRhOUYlfCPM-277" value="2" style="rounded=0;whiteSpace=wrap;html=1;strokeColor=light-dark(transparent,#FF0000);" vertex="1" parent="bxG6T7_YVZRhOUYlfCPM-273">
          <mxGeometry x="40" width="40" height="20" as="geometry" />
        </mxCell>
        <mxCell id="bxG6T7_YVZRhOUYlfCPM-278" value="130" style="rounded=0;whiteSpace=wrap;html=1;strokeColor=light-dark(transparent,#FF0000);" vertex="1" parent="bxG6T7_YVZRhOUYlfCPM-273">
          <mxGeometry x="80" width="40" height="20" as="geometry" />
        </mxCell>
        <mxCell id="bxG6T7_YVZRhOUYlfCPM-279" value="128" style="rounded=0;whiteSpace=wrap;html=1;strokeColor=light-dark(transparent,#FF0000);" vertex="1" parent="bxG6T7_YVZRhOUYlfCPM-273">
          <mxGeometry y="80" width="40" height="20" as="geometry" />
        </mxCell>
        <mxCell id="bxG6T7_YVZRhOUYlfCPM-280" value="0" style="rounded=0;whiteSpace=wrap;html=1;strokeColor=light-dark(transparent,#FF0000);" vertex="1" parent="bxG6T7_YVZRhOUYlfCPM-273">
          <mxGeometry x="40" y="80" width="40" height="20" as="geometry" />
        </mxCell>
        <mxCell id="bxG6T7_YVZRhOUYlfCPM-281" value="130" style="rounded=0;whiteSpace=wrap;html=1;strokeColor=light-dark(transparent,#FF0000);" vertex="1" parent="bxG6T7_YVZRhOUYlfCPM-273">
          <mxGeometry x="80" y="80" width="40" height="20" as="geometry" />
        </mxCell>
        <mxCell id="bxG6T7_YVZRhOUYlfCPM-282" style="edgeStyle=orthogonalEdgeStyle;rounded=0;orthogonalLoop=1;jettySize=auto;html=1;exitX=1;exitY=0.5;exitDx=0;exitDy=0;entryX=0;entryY=0.5;entryDx=0;entryDy=0;strokeColor=light-dark(transparent,#FF0000);" edge="1" parent="1" source="bxG6T7_YVZRhOUYlfCPM-262" target="bxG6T7_YVZRhOUYlfCPM-274">
          <mxGeometry relative="1" as="geometry" />
        </mxCell>
        <mxCell id="bxG6T7_YVZRhOUYlfCPM-283" value="" style="group;strokeColor=light-dark(transparent,#FF0000);" vertex="1" connectable="0" parent="1">
          <mxGeometry x="1440" y="1400" width="120" height="100" as="geometry" />
        </mxCell>
        <mxCell id="bxG6T7_YVZRhOUYlfCPM-284" value="&lt;font size=&quot;3&quot;&gt;&lt;b&gt;3.3.2&lt;/b&gt;&lt;/font&gt;" style="rounded=0;whiteSpace=wrap;html=1;strokeColor=light-dark(transparent,#FF0000);" vertex="1" parent="bxG6T7_YVZRhOUYlfCPM-283">
          <mxGeometry width="120" height="100" as="geometry" />
        </mxCell>
        <mxCell id="bxG6T7_YVZRhOUYlfCPM-285" value="130" style="rounded=0;whiteSpace=wrap;html=1;strokeColor=light-dark(transparent,#FF0000);" vertex="1" parent="bxG6T7_YVZRhOUYlfCPM-283">
          <mxGeometry width="40" height="20" as="geometry" />
        </mxCell>
        <mxCell id="bxG6T7_YVZRhOUYlfCPM-286" style="edgeStyle=orthogonalEdgeStyle;rounded=0;orthogonalLoop=1;jettySize=auto;html=1;exitX=0.25;exitY=0;exitDx=0;exitDy=0;strokeColor=light-dark(transparent,#FF0000);" edge="1" parent="bxG6T7_YVZRhOUYlfCPM-283" source="bxG6T7_YVZRhOUYlfCPM-287">
          <mxGeometry relative="1" as="geometry">
            <mxPoint x="50" y="10" as="targetPoint" />
          </mxGeometry>
        </mxCell>
        <mxCell id="bxG6T7_YVZRhOUYlfCPM-287" value="3" style="rounded=0;whiteSpace=wrap;html=1;strokeColor=light-dark(transparent,#FF0000);" vertex="1" parent="bxG6T7_YVZRhOUYlfCPM-283">
          <mxGeometry x="40" width="40" height="20" as="geometry" />
        </mxCell>
        <mxCell id="bxG6T7_YVZRhOUYlfCPM-288" value="133" style="rounded=0;whiteSpace=wrap;html=1;strokeColor=light-dark(transparent,#FF0000);" vertex="1" parent="bxG6T7_YVZRhOUYlfCPM-283">
          <mxGeometry x="80" width="40" height="20" as="geometry" />
        </mxCell>
        <mxCell id="bxG6T7_YVZRhOUYlfCPM-289" value="130" style="rounded=0;whiteSpace=wrap;html=1;strokeColor=light-dark(transparent,#FF0000);" vertex="1" parent="bxG6T7_YVZRhOUYlfCPM-283">
          <mxGeometry y="80" width="40" height="20" as="geometry" />
        </mxCell>
        <mxCell id="bxG6T7_YVZRhOUYlfCPM-290" value="0" style="rounded=0;whiteSpace=wrap;html=1;strokeColor=light-dark(transparent,#FF0000);" vertex="1" parent="bxG6T7_YVZRhOUYlfCPM-283">
          <mxGeometry x="40" y="80" width="40" height="20" as="geometry" />
        </mxCell>
        <mxCell id="bxG6T7_YVZRhOUYlfCPM-291" value="133" style="rounded=0;whiteSpace=wrap;html=1;strokeColor=light-dark(transparent,#FF0000);" vertex="1" parent="bxG6T7_YVZRhOUYlfCPM-283">
          <mxGeometry x="80" y="80" width="40" height="20" as="geometry" />
        </mxCell>
        <mxCell id="bxG6T7_YVZRhOUYlfCPM-292" style="edgeStyle=orthogonalEdgeStyle;rounded=0;orthogonalLoop=1;jettySize=auto;html=1;exitX=1;exitY=0.5;exitDx=0;exitDy=0;entryX=0;entryY=0.5;entryDx=0;entryDy=0;strokeColor=light-dark(transparent,#FF0000);" edge="1" parent="1" source="bxG6T7_YVZRhOUYlfCPM-274" target="bxG6T7_YVZRhOUYlfCPM-284">
          <mxGeometry relative="1" as="geometry" />
        </mxCell>
        <mxCell id="bxG6T7_YVZRhOUYlfCPM-293" value="" style="group;strokeColor=light-dark(transparent,#FF0700);" vertex="1" connectable="0" parent="1">
          <mxGeometry x="1440" y="1660" width="120" height="100" as="geometry" />
        </mxCell>
        <mxCell id="bxG6T7_YVZRhOUYlfCPM-294" value="&lt;font size=&quot;3&quot;&gt;&lt;b&gt;3.3.3&lt;/b&gt;&lt;/font&gt;" style="rounded=0;whiteSpace=wrap;html=1;strokeColor=light-dark(transparent,#FF0700);" vertex="1" parent="bxG6T7_YVZRhOUYlfCPM-293">
          <mxGeometry width="120" height="100" as="geometry" />
        </mxCell>
        <mxCell id="bxG6T7_YVZRhOUYlfCPM-295" value="133" style="rounded=0;whiteSpace=wrap;html=1;strokeColor=light-dark(transparent,#FF0700);" vertex="1" parent="bxG6T7_YVZRhOUYlfCPM-293">
          <mxGeometry width="40" height="20" as="geometry" />
        </mxCell>
        <mxCell id="bxG6T7_YVZRhOUYlfCPM-296" style="edgeStyle=orthogonalEdgeStyle;rounded=0;orthogonalLoop=1;jettySize=auto;html=1;exitX=0.25;exitY=0;exitDx=0;exitDy=0;strokeColor=light-dark(transparent,#FF0700);" edge="1" parent="bxG6T7_YVZRhOUYlfCPM-293" source="bxG6T7_YVZRhOUYlfCPM-297">
          <mxGeometry relative="1" as="geometry">
            <mxPoint x="50" y="10" as="targetPoint" />
          </mxGeometry>
        </mxCell>
        <mxCell id="bxG6T7_YVZRhOUYlfCPM-297" value="2" style="rounded=0;whiteSpace=wrap;html=1;strokeColor=light-dark(transparent,#FF0700);" vertex="1" parent="bxG6T7_YVZRhOUYlfCPM-293">
          <mxGeometry x="40" width="40" height="20" as="geometry" />
        </mxCell>
        <mxCell id="bxG6T7_YVZRhOUYlfCPM-298" value="135" style="rounded=0;whiteSpace=wrap;html=1;strokeColor=light-dark(transparent,#FF0700);" vertex="1" parent="bxG6T7_YVZRhOUYlfCPM-293">
          <mxGeometry x="80" width="40" height="20" as="geometry" />
        </mxCell>
        <mxCell id="bxG6T7_YVZRhOUYlfCPM-299" value="133" style="rounded=0;whiteSpace=wrap;html=1;strokeColor=light-dark(transparent,#FF0700);" vertex="1" parent="bxG6T7_YVZRhOUYlfCPM-293">
          <mxGeometry y="80" width="40" height="20" as="geometry" />
        </mxCell>
        <mxCell id="bxG6T7_YVZRhOUYlfCPM-300" value="0" style="rounded=0;whiteSpace=wrap;html=1;strokeColor=light-dark(transparent,#FF0700);" vertex="1" parent="bxG6T7_YVZRhOUYlfCPM-293">
          <mxGeometry x="40" y="80" width="40" height="20" as="geometry" />
        </mxCell>
        <mxCell id="bxG6T7_YVZRhOUYlfCPM-301" value="135" style="rounded=0;whiteSpace=wrap;html=1;strokeColor=light-dark(transparent,#FF0700);" vertex="1" parent="bxG6T7_YVZRhOUYlfCPM-293">
          <mxGeometry x="80" y="80" width="40" height="20" as="geometry" />
        </mxCell>
        <mxCell id="bxG6T7_YVZRhOUYlfCPM-302" style="edgeStyle=orthogonalEdgeStyle;rounded=0;orthogonalLoop=1;jettySize=auto;html=1;exitX=0.5;exitY=1;exitDx=0;exitDy=0;entryX=0.5;entryY=0;entryDx=0;entryDy=0;strokeColor=light-dark(transparent,#FF0000);" edge="1" parent="1" source="bxG6T7_YVZRhOUYlfCPM-290" target="bxG6T7_YVZRhOUYlfCPM-297">
          <mxGeometry relative="1" as="geometry" />
        </mxCell>
        <mxCell id="bxG6T7_YVZRhOUYlfCPM-303" value="" style="group;strokeColor=light-dark(transparent,#FF0700);" vertex="1" connectable="0" parent="1">
          <mxGeometry x="1200" y="1660" width="120" height="100" as="geometry" />
        </mxCell>
        <mxCell id="bxG6T7_YVZRhOUYlfCPM-304" value="&lt;font size=&quot;3&quot;&gt;&lt;b&gt;3.3.4&lt;/b&gt;&lt;/font&gt;" style="rounded=0;whiteSpace=wrap;html=1;strokeColor=light-dark(transparent,#FF0700);" vertex="1" parent="bxG6T7_YVZRhOUYlfCPM-303">
          <mxGeometry width="120" height="100" as="geometry" />
        </mxCell>
        <mxCell id="bxG6T7_YVZRhOUYlfCPM-305" value="135" style="rounded=0;whiteSpace=wrap;html=1;strokeColor=light-dark(transparent,#FF0700);" vertex="1" parent="bxG6T7_YVZRhOUYlfCPM-303">
          <mxGeometry width="40" height="20" as="geometry" />
        </mxCell>
        <mxCell id="bxG6T7_YVZRhOUYlfCPM-306" style="edgeStyle=orthogonalEdgeStyle;rounded=0;orthogonalLoop=1;jettySize=auto;html=1;exitX=0.25;exitY=0;exitDx=0;exitDy=0;strokeColor=light-dark(transparent,#FF0700);" edge="1" parent="bxG6T7_YVZRhOUYlfCPM-303" source="bxG6T7_YVZRhOUYlfCPM-307">
          <mxGeometry relative="1" as="geometry">
            <mxPoint x="50" y="10" as="targetPoint" />
          </mxGeometry>
        </mxCell>
        <mxCell id="bxG6T7_YVZRhOUYlfCPM-307" value="3" style="rounded=0;whiteSpace=wrap;html=1;strokeColor=light-dark(transparent,#FF0700);" vertex="1" parent="bxG6T7_YVZRhOUYlfCPM-303">
          <mxGeometry x="40" width="40" height="20" as="geometry" />
        </mxCell>
        <mxCell id="bxG6T7_YVZRhOUYlfCPM-308" value="138" style="rounded=0;whiteSpace=wrap;html=1;strokeColor=light-dark(transparent,#FF0700);" vertex="1" parent="bxG6T7_YVZRhOUYlfCPM-303">
          <mxGeometry x="80" width="40" height="20" as="geometry" />
        </mxCell>
        <mxCell id="bxG6T7_YVZRhOUYlfCPM-309" value="135" style="rounded=0;whiteSpace=wrap;html=1;strokeColor=light-dark(transparent,#FF0700);" vertex="1" parent="bxG6T7_YVZRhOUYlfCPM-303">
          <mxGeometry y="80" width="40" height="20" as="geometry" />
        </mxCell>
        <mxCell id="bxG6T7_YVZRhOUYlfCPM-310" value="0" style="rounded=0;whiteSpace=wrap;html=1;strokeColor=light-dark(transparent,#FF0700);" vertex="1" parent="bxG6T7_YVZRhOUYlfCPM-303">
          <mxGeometry x="40" y="80" width="40" height="20" as="geometry" />
        </mxCell>
        <mxCell id="bxG6T7_YVZRhOUYlfCPM-311" value="138" style="rounded=0;whiteSpace=wrap;html=1;strokeColor=light-dark(transparent,#FF0700);" vertex="1" parent="bxG6T7_YVZRhOUYlfCPM-303">
          <mxGeometry x="80" y="80" width="40" height="20" as="geometry" />
        </mxCell>
        <mxCell id="bxG6T7_YVZRhOUYlfCPM-312" style="edgeStyle=orthogonalEdgeStyle;rounded=0;orthogonalLoop=1;jettySize=auto;html=1;exitX=0;exitY=0.5;exitDx=0;exitDy=0;entryX=1;entryY=0.5;entryDx=0;entryDy=0;strokeColor=light-dark(transparent,#FF0700);" edge="1" parent="1" source="bxG6T7_YVZRhOUYlfCPM-294" target="bxG6T7_YVZRhOUYlfCPM-304">
          <mxGeometry relative="1" as="geometry" />
        </mxCell>
        <mxCell id="bxG6T7_YVZRhOUYlfCPM-313" value="" style="group;strokeColor=light-dark(transparent,#FF0700);" vertex="1" connectable="0" parent="1">
          <mxGeometry x="960" y="1660" width="120" height="100" as="geometry" />
        </mxCell>
        <mxCell id="bxG6T7_YVZRhOUYlfCPM-314" value="&lt;font size=&quot;3&quot;&gt;&lt;b&gt;3.3.5&lt;/b&gt;&lt;/font&gt;" style="rounded=0;whiteSpace=wrap;html=1;strokeColor=light-dark(transparent,#FF0700);" vertex="1" parent="bxG6T7_YVZRhOUYlfCPM-313">
          <mxGeometry width="120" height="100" as="geometry" />
        </mxCell>
        <mxCell id="bxG6T7_YVZRhOUYlfCPM-315" value="138" style="rounded=0;whiteSpace=wrap;html=1;strokeColor=light-dark(transparent,#FF0700);" vertex="1" parent="bxG6T7_YVZRhOUYlfCPM-313">
          <mxGeometry width="40" height="20" as="geometry" />
        </mxCell>
        <mxCell id="bxG6T7_YVZRhOUYlfCPM-316" style="edgeStyle=orthogonalEdgeStyle;rounded=0;orthogonalLoop=1;jettySize=auto;html=1;exitX=0.25;exitY=0;exitDx=0;exitDy=0;strokeColor=light-dark(transparent,#FF0700);" edge="1" parent="bxG6T7_YVZRhOUYlfCPM-313" source="bxG6T7_YVZRhOUYlfCPM-317">
          <mxGeometry relative="1" as="geometry">
            <mxPoint x="50" y="10" as="targetPoint" />
          </mxGeometry>
        </mxCell>
        <mxCell id="bxG6T7_YVZRhOUYlfCPM-317" value="1" style="rounded=0;whiteSpace=wrap;html=1;strokeColor=light-dark(transparent,#FF0700);" vertex="1" parent="bxG6T7_YVZRhOUYlfCPM-313">
          <mxGeometry x="40" width="40" height="20" as="geometry" />
        </mxCell>
        <mxCell id="bxG6T7_YVZRhOUYlfCPM-318" value="139" style="rounded=0;whiteSpace=wrap;html=1;strokeColor=light-dark(transparent,#FF0700);" vertex="1" parent="bxG6T7_YVZRhOUYlfCPM-313">
          <mxGeometry x="80" width="40" height="20" as="geometry" />
        </mxCell>
        <mxCell id="bxG6T7_YVZRhOUYlfCPM-319" value="138" style="rounded=0;whiteSpace=wrap;html=1;strokeColor=light-dark(transparent,#FF0700);" vertex="1" parent="bxG6T7_YVZRhOUYlfCPM-313">
          <mxGeometry y="80" width="40" height="20" as="geometry" />
        </mxCell>
        <mxCell id="bxG6T7_YVZRhOUYlfCPM-320" value="0" style="rounded=0;whiteSpace=wrap;html=1;strokeColor=light-dark(transparent,#FF0700);" vertex="1" parent="bxG6T7_YVZRhOUYlfCPM-313">
          <mxGeometry x="40" y="80" width="40" height="20" as="geometry" />
        </mxCell>
        <mxCell id="bxG6T7_YVZRhOUYlfCPM-321" value="139" style="rounded=0;whiteSpace=wrap;html=1;strokeColor=light-dark(transparent,#FF0700);" vertex="1" parent="bxG6T7_YVZRhOUYlfCPM-313">
          <mxGeometry x="80" y="80" width="40" height="20" as="geometry" />
        </mxCell>
        <mxCell id="bxG6T7_YVZRhOUYlfCPM-322" style="edgeStyle=orthogonalEdgeStyle;rounded=0;orthogonalLoop=1;jettySize=auto;html=1;exitX=0;exitY=0.5;exitDx=0;exitDy=0;entryX=1;entryY=0.5;entryDx=0;entryDy=0;strokeColor=light-dark(transparent,#FF0700);" edge="1" parent="1" source="bxG6T7_YVZRhOUYlfCPM-304" target="bxG6T7_YVZRhOUYlfCPM-314">
          <mxGeometry relative="1" as="geometry" />
        </mxCell>
        <mxCell id="bxG6T7_YVZRhOUYlfCPM-323" value="" style="group;strokeColor=light-dark(transparent,#FF0700);" vertex="1" connectable="0" parent="1">
          <mxGeometry x="720" y="1660" width="120" height="100" as="geometry" />
        </mxCell>
        <mxCell id="bxG6T7_YVZRhOUYlfCPM-324" value="&lt;font size=&quot;3&quot;&gt;&lt;b&gt;3.4.1&lt;/b&gt;&lt;/font&gt;" style="rounded=0;whiteSpace=wrap;html=1;strokeColor=light-dark(transparent,#FF0700);" vertex="1" parent="bxG6T7_YVZRhOUYlfCPM-323">
          <mxGeometry width="120" height="100" as="geometry" />
        </mxCell>
        <mxCell id="bxG6T7_YVZRhOUYlfCPM-325" value="139" style="rounded=0;whiteSpace=wrap;html=1;strokeColor=light-dark(transparent,#FF0700);" vertex="1" parent="bxG6T7_YVZRhOUYlfCPM-323">
          <mxGeometry width="40" height="20" as="geometry" />
        </mxCell>
        <mxCell id="bxG6T7_YVZRhOUYlfCPM-326" style="edgeStyle=orthogonalEdgeStyle;rounded=0;orthogonalLoop=1;jettySize=auto;html=1;exitX=0.25;exitY=0;exitDx=0;exitDy=0;strokeColor=light-dark(transparent,#FF0700);" edge="1" parent="bxG6T7_YVZRhOUYlfCPM-323" source="bxG6T7_YVZRhOUYlfCPM-327">
          <mxGeometry relative="1" as="geometry">
            <mxPoint x="50" y="10" as="targetPoint" />
          </mxGeometry>
        </mxCell>
        <mxCell id="bxG6T7_YVZRhOUYlfCPM-327" value="7" style="rounded=0;whiteSpace=wrap;html=1;strokeColor=light-dark(transparent,#FF0700);" vertex="1" parent="bxG6T7_YVZRhOUYlfCPM-323">
          <mxGeometry x="40" width="40" height="20" as="geometry" />
        </mxCell>
        <mxCell id="bxG6T7_YVZRhOUYlfCPM-328" value="146" style="rounded=0;whiteSpace=wrap;html=1;strokeColor=light-dark(transparent,#FF0700);" vertex="1" parent="bxG6T7_YVZRhOUYlfCPM-323">
          <mxGeometry x="80" width="40" height="20" as="geometry" />
        </mxCell>
        <mxCell id="bxG6T7_YVZRhOUYlfCPM-329" value="139" style="rounded=0;whiteSpace=wrap;html=1;strokeColor=light-dark(transparent,#FF0700);" vertex="1" parent="bxG6T7_YVZRhOUYlfCPM-323">
          <mxGeometry y="80" width="40" height="20" as="geometry" />
        </mxCell>
        <mxCell id="bxG6T7_YVZRhOUYlfCPM-330" value="0" style="rounded=0;whiteSpace=wrap;html=1;strokeColor=light-dark(transparent,#FF0700);" vertex="1" parent="bxG6T7_YVZRhOUYlfCPM-323">
          <mxGeometry x="40" y="80" width="40" height="20" as="geometry" />
        </mxCell>
        <mxCell id="bxG6T7_YVZRhOUYlfCPM-331" value="146" style="rounded=0;whiteSpace=wrap;html=1;strokeColor=light-dark(transparent,#FF0700);" vertex="1" parent="bxG6T7_YVZRhOUYlfCPM-323">
          <mxGeometry x="80" y="80" width="40" height="20" as="geometry" />
        </mxCell>
        <mxCell id="bxG6T7_YVZRhOUYlfCPM-332" style="edgeStyle=orthogonalEdgeStyle;rounded=0;orthogonalLoop=1;jettySize=auto;html=1;entryX=1;entryY=0.5;entryDx=0;entryDy=0;strokeColor=light-dark(transparent,#FF0700);" edge="1" parent="1" source="bxG6T7_YVZRhOUYlfCPM-314" target="bxG6T7_YVZRhOUYlfCPM-324">
          <mxGeometry relative="1" as="geometry" />
        </mxCell>
        <mxCell id="bxG6T7_YVZRhOUYlfCPM-333" value="" style="group;strokeColor=light-dark(transparent,#FF0700);" vertex="1" connectable="0" parent="1">
          <mxGeometry x="480" y="1660" width="120" height="100" as="geometry" />
        </mxCell>
        <mxCell id="bxG6T7_YVZRhOUYlfCPM-334" value="&lt;font size=&quot;3&quot;&gt;&lt;b&gt;3.4.2&lt;/b&gt;&lt;/font&gt;" style="rounded=0;whiteSpace=wrap;html=1;strokeColor=light-dark(transparent,#FF0700);" vertex="1" parent="bxG6T7_YVZRhOUYlfCPM-333">
          <mxGeometry width="120" height="100" as="geometry" />
        </mxCell>
        <mxCell id="bxG6T7_YVZRhOUYlfCPM-335" value="146" style="rounded=0;whiteSpace=wrap;html=1;strokeColor=light-dark(transparent,#FF0700);" vertex="1" parent="bxG6T7_YVZRhOUYlfCPM-333">
          <mxGeometry width="40" height="20" as="geometry" />
        </mxCell>
        <mxCell id="bxG6T7_YVZRhOUYlfCPM-336" style="edgeStyle=orthogonalEdgeStyle;rounded=0;orthogonalLoop=1;jettySize=auto;html=1;exitX=0.25;exitY=0;exitDx=0;exitDy=0;strokeColor=light-dark(transparent,#FF0700);" edge="1" parent="bxG6T7_YVZRhOUYlfCPM-333" source="bxG6T7_YVZRhOUYlfCPM-337">
          <mxGeometry relative="1" as="geometry">
            <mxPoint x="50" y="10" as="targetPoint" />
          </mxGeometry>
        </mxCell>
        <mxCell id="bxG6T7_YVZRhOUYlfCPM-337" value="5" style="rounded=0;whiteSpace=wrap;html=1;strokeColor=light-dark(transparent,#FF0700);" vertex="1" parent="bxG6T7_YVZRhOUYlfCPM-333">
          <mxGeometry x="40" width="40" height="20" as="geometry" />
        </mxCell>
        <mxCell id="bxG6T7_YVZRhOUYlfCPM-338" value="151" style="rounded=0;whiteSpace=wrap;html=1;strokeColor=light-dark(transparent,#FF0700);" vertex="1" parent="bxG6T7_YVZRhOUYlfCPM-333">
          <mxGeometry x="80" width="40" height="20" as="geometry" />
        </mxCell>
        <mxCell id="bxG6T7_YVZRhOUYlfCPM-339" value="146" style="rounded=0;whiteSpace=wrap;html=1;strokeColor=light-dark(transparent,#FF0700);" vertex="1" parent="bxG6T7_YVZRhOUYlfCPM-333">
          <mxGeometry y="80" width="40" height="20" as="geometry" />
        </mxCell>
        <mxCell id="bxG6T7_YVZRhOUYlfCPM-340" value="0" style="rounded=0;whiteSpace=wrap;html=1;strokeColor=light-dark(transparent,#FF0700);" vertex="1" parent="bxG6T7_YVZRhOUYlfCPM-333">
          <mxGeometry x="40" y="80" width="40" height="20" as="geometry" />
        </mxCell>
        <mxCell id="bxG6T7_YVZRhOUYlfCPM-341" value="151" style="rounded=0;whiteSpace=wrap;html=1;strokeColor=light-dark(transparent,#FF0700);" vertex="1" parent="bxG6T7_YVZRhOUYlfCPM-333">
          <mxGeometry x="80" y="80" width="40" height="20" as="geometry" />
        </mxCell>
        <mxCell id="bxG6T7_YVZRhOUYlfCPM-342" value="" style="group;strokeColor=light-dark(transparent,#FF0700);" vertex="1" connectable="0" parent="1">
          <mxGeometry x="240" y="1660" width="120" height="100" as="geometry" />
        </mxCell>
        <mxCell id="bxG6T7_YVZRhOUYlfCPM-343" value="&lt;font size=&quot;3&quot;&gt;&lt;b&gt;3.4.3&lt;/b&gt;&lt;/font&gt;" style="rounded=0;whiteSpace=wrap;html=1;strokeColor=light-dark(transparent,#FF0700);" vertex="1" parent="bxG6T7_YVZRhOUYlfCPM-342">
          <mxGeometry width="120" height="100" as="geometry" />
        </mxCell>
        <mxCell id="bxG6T7_YVZRhOUYlfCPM-344" value="151" style="rounded=0;whiteSpace=wrap;html=1;strokeColor=light-dark(transparent,#FF0700);" vertex="1" parent="bxG6T7_YVZRhOUYlfCPM-342">
          <mxGeometry width="40" height="20" as="geometry" />
        </mxCell>
        <mxCell id="bxG6T7_YVZRhOUYlfCPM-345" style="edgeStyle=orthogonalEdgeStyle;rounded=0;orthogonalLoop=1;jettySize=auto;html=1;exitX=0.25;exitY=0;exitDx=0;exitDy=0;strokeColor=light-dark(transparent,#FF0700);" edge="1" parent="bxG6T7_YVZRhOUYlfCPM-342" source="bxG6T7_YVZRhOUYlfCPM-346">
          <mxGeometry relative="1" as="geometry">
            <mxPoint x="50" y="10" as="targetPoint" />
          </mxGeometry>
        </mxCell>
        <mxCell id="bxG6T7_YVZRhOUYlfCPM-346" value="3" style="rounded=0;whiteSpace=wrap;html=1;strokeColor=light-dark(transparent,#FF0700);" vertex="1" parent="bxG6T7_YVZRhOUYlfCPM-342">
          <mxGeometry x="40" width="40" height="20" as="geometry" />
        </mxCell>
        <mxCell id="bxG6T7_YVZRhOUYlfCPM-347" value="154" style="rounded=0;whiteSpace=wrap;html=1;strokeColor=light-dark(transparent,#FF0700);" vertex="1" parent="bxG6T7_YVZRhOUYlfCPM-342">
          <mxGeometry x="80" width="40" height="20" as="geometry" />
        </mxCell>
        <mxCell id="bxG6T7_YVZRhOUYlfCPM-348" value="151" style="rounded=0;whiteSpace=wrap;html=1;strokeColor=light-dark(transparent,#FF0700);" vertex="1" parent="bxG6T7_YVZRhOUYlfCPM-342">
          <mxGeometry y="80" width="40" height="20" as="geometry" />
        </mxCell>
        <mxCell id="bxG6T7_YVZRhOUYlfCPM-349" value="0" style="rounded=0;whiteSpace=wrap;html=1;strokeColor=light-dark(transparent,#FF0700);" vertex="1" parent="bxG6T7_YVZRhOUYlfCPM-342">
          <mxGeometry x="40" y="80" width="40" height="20" as="geometry" />
        </mxCell>
        <mxCell id="bxG6T7_YVZRhOUYlfCPM-350" value="154" style="rounded=0;whiteSpace=wrap;html=1;strokeColor=light-dark(transparent,#FF0700);" vertex="1" parent="bxG6T7_YVZRhOUYlfCPM-342">
          <mxGeometry x="80" y="80" width="40" height="20" as="geometry" />
        </mxCell>
        <mxCell id="bxG6T7_YVZRhOUYlfCPM-351" style="edgeStyle=orthogonalEdgeStyle;rounded=0;orthogonalLoop=1;jettySize=auto;html=1;exitX=0;exitY=0.5;exitDx=0;exitDy=0;entryX=1;entryY=0.5;entryDx=0;entryDy=0;strokeColor=light-dark(transparent,#FF0700);" edge="1" parent="1" source="bxG6T7_YVZRhOUYlfCPM-324" target="bxG6T7_YVZRhOUYlfCPM-334">
          <mxGeometry relative="1" as="geometry" />
        </mxCell>
        <mxCell id="bxG6T7_YVZRhOUYlfCPM-352" style="edgeStyle=orthogonalEdgeStyle;rounded=0;orthogonalLoop=1;jettySize=auto;html=1;exitX=0;exitY=0.5;exitDx=0;exitDy=0;entryX=1;entryY=0.5;entryDx=0;entryDy=0;strokeColor=light-dark(transparent,#FF0700);" edge="1" parent="1" source="bxG6T7_YVZRhOUYlfCPM-334" target="bxG6T7_YVZRhOUYlfCPM-343">
          <mxGeometry relative="1" as="geometry" />
        </mxCell>
        <mxCell id="bxG6T7_YVZRhOUYlfCPM-353" value="" style="group;strokeColor=light-dark(transparent,#FF0700);" vertex="1" connectable="0" parent="1">
          <mxGeometry y="1660" width="120" height="100" as="geometry" />
        </mxCell>
        <mxCell id="bxG6T7_YVZRhOUYlfCPM-354" value="&lt;font size=&quot;3&quot;&gt;&lt;b&gt;3.4.4&lt;/b&gt;&lt;/font&gt;" style="rounded=0;whiteSpace=wrap;html=1;strokeColor=light-dark(transparent,#FF0700);" vertex="1" parent="bxG6T7_YVZRhOUYlfCPM-353">
          <mxGeometry width="120" height="100" as="geometry" />
        </mxCell>
        <mxCell id="bxG6T7_YVZRhOUYlfCPM-355" value="154" style="rounded=0;whiteSpace=wrap;html=1;strokeColor=light-dark(transparent,#FF0700);" vertex="1" parent="bxG6T7_YVZRhOUYlfCPM-353">
          <mxGeometry width="40" height="20" as="geometry" />
        </mxCell>
        <mxCell id="bxG6T7_YVZRhOUYlfCPM-356" style="edgeStyle=orthogonalEdgeStyle;rounded=0;orthogonalLoop=1;jettySize=auto;html=1;exitX=0.25;exitY=0;exitDx=0;exitDy=0;strokeColor=light-dark(transparent,#FF0700);" edge="1" parent="bxG6T7_YVZRhOUYlfCPM-353" source="bxG6T7_YVZRhOUYlfCPM-357">
          <mxGeometry relative="1" as="geometry">
            <mxPoint x="50" y="10" as="targetPoint" />
          </mxGeometry>
        </mxCell>
        <mxCell id="bxG6T7_YVZRhOUYlfCPM-357" value="10" style="rounded=0;whiteSpace=wrap;html=1;strokeColor=light-dark(transparent,#FF0700);" vertex="1" parent="bxG6T7_YVZRhOUYlfCPM-353">
          <mxGeometry x="40" width="40" height="20" as="geometry" />
        </mxCell>
        <mxCell id="bxG6T7_YVZRhOUYlfCPM-358" value="164" style="rounded=0;whiteSpace=wrap;html=1;strokeColor=light-dark(transparent,#FF0700);" vertex="1" parent="bxG6T7_YVZRhOUYlfCPM-353">
          <mxGeometry x="80" width="40" height="20" as="geometry" />
        </mxCell>
        <mxCell id="bxG6T7_YVZRhOUYlfCPM-359" value="154" style="rounded=0;whiteSpace=wrap;html=1;strokeColor=light-dark(transparent,#FF0700);" vertex="1" parent="bxG6T7_YVZRhOUYlfCPM-353">
          <mxGeometry y="80" width="40" height="20" as="geometry" />
        </mxCell>
        <mxCell id="bxG6T7_YVZRhOUYlfCPM-360" value="0" style="rounded=0;whiteSpace=wrap;html=1;strokeColor=light-dark(transparent,#FF0700);" vertex="1" parent="bxG6T7_YVZRhOUYlfCPM-353">
          <mxGeometry x="40" y="80" width="40" height="20" as="geometry" />
        </mxCell>
        <mxCell id="bxG6T7_YVZRhOUYlfCPM-361" value="164" style="rounded=0;whiteSpace=wrap;html=1;strokeColor=light-dark(transparent,#FF0700);" vertex="1" parent="bxG6T7_YVZRhOUYlfCPM-353">
          <mxGeometry x="80" y="80" width="40" height="20" as="geometry" />
        </mxCell>
        <mxCell id="bxG6T7_YVZRhOUYlfCPM-362" style="edgeStyle=orthogonalEdgeStyle;rounded=0;orthogonalLoop=1;jettySize=auto;html=1;exitX=0;exitY=0.5;exitDx=0;exitDy=0;entryX=1;entryY=0.5;entryDx=0;entryDy=0;strokeColor=light-dark(transparent,#FF0700);" edge="1" parent="1" source="bxG6T7_YVZRhOUYlfCPM-343" target="bxG6T7_YVZRhOUYlfCPM-354">
          <mxGeometry relative="1" as="geometry" />
        </mxCell>
        <mxCell id="bxG6T7_YVZRhOUYlfCPM-363" value="" style="group;strokeColor=light-dark(transparent,#FF0700);" vertex="1" connectable="0" parent="1">
          <mxGeometry y="1880" width="120" height="100" as="geometry" />
        </mxCell>
        <mxCell id="bxG6T7_YVZRhOUYlfCPM-364" value="&lt;font size=&quot;3&quot;&gt;&lt;b&gt;3.5&lt;/b&gt;&lt;/font&gt;" style="rounded=0;whiteSpace=wrap;html=1;strokeColor=light-dark(transparent,#FF0700);" vertex="1" parent="bxG6T7_YVZRhOUYlfCPM-363">
          <mxGeometry width="120" height="100" as="geometry" />
        </mxCell>
        <mxCell id="bxG6T7_YVZRhOUYlfCPM-365" value="164" style="rounded=0;whiteSpace=wrap;html=1;strokeColor=light-dark(transparent,#FF0700);" vertex="1" parent="bxG6T7_YVZRhOUYlfCPM-363">
          <mxGeometry width="40" height="20" as="geometry" />
        </mxCell>
        <mxCell id="bxG6T7_YVZRhOUYlfCPM-366" style="edgeStyle=orthogonalEdgeStyle;rounded=0;orthogonalLoop=1;jettySize=auto;html=1;exitX=0.25;exitY=0;exitDx=0;exitDy=0;strokeColor=light-dark(transparent,#FF0700);" edge="1" parent="bxG6T7_YVZRhOUYlfCPM-363" source="bxG6T7_YVZRhOUYlfCPM-367">
          <mxGeometry relative="1" as="geometry">
            <mxPoint x="50" y="10" as="targetPoint" />
          </mxGeometry>
        </mxCell>
        <mxCell id="bxG6T7_YVZRhOUYlfCPM-367" value="5" style="rounded=0;whiteSpace=wrap;html=1;strokeColor=light-dark(transparent,#FF0700);" vertex="1" parent="bxG6T7_YVZRhOUYlfCPM-363">
          <mxGeometry x="40" width="40" height="20" as="geometry" />
        </mxCell>
        <mxCell id="bxG6T7_YVZRhOUYlfCPM-368" value="169" style="rounded=0;whiteSpace=wrap;html=1;strokeColor=light-dark(transparent,#FF0700);" vertex="1" parent="bxG6T7_YVZRhOUYlfCPM-363">
          <mxGeometry x="80" width="40" height="20" as="geometry" />
        </mxCell>
        <mxCell id="bxG6T7_YVZRhOUYlfCPM-369" value="164" style="rounded=0;whiteSpace=wrap;html=1;strokeColor=light-dark(transparent,#FF0700);" vertex="1" parent="bxG6T7_YVZRhOUYlfCPM-363">
          <mxGeometry y="80" width="40" height="20" as="geometry" />
        </mxCell>
        <mxCell id="bxG6T7_YVZRhOUYlfCPM-370" value="0" style="rounded=0;whiteSpace=wrap;html=1;strokeColor=light-dark(transparent,#FF0700);" vertex="1" parent="bxG6T7_YVZRhOUYlfCPM-363">
          <mxGeometry x="40" y="80" width="40" height="20" as="geometry" />
        </mxCell>
        <mxCell id="bxG6T7_YVZRhOUYlfCPM-371" value="169" style="rounded=0;whiteSpace=wrap;html=1;strokeColor=light-dark(transparent,#FF0700);" vertex="1" parent="bxG6T7_YVZRhOUYlfCPM-363">
          <mxGeometry x="80" y="80" width="40" height="20" as="geometry" />
        </mxCell>
        <mxCell id="bxG6T7_YVZRhOUYlfCPM-372" style="edgeStyle=orthogonalEdgeStyle;rounded=0;orthogonalLoop=1;jettySize=auto;html=1;exitX=0.5;exitY=1;exitDx=0;exitDy=0;entryX=0.5;entryY=0;entryDx=0;entryDy=0;strokeColor=light-dark(transparent,#FF0700);" edge="1" parent="1" source="bxG6T7_YVZRhOUYlfCPM-360" target="bxG6T7_YVZRhOUYlfCPM-367">
          <mxGeometry relative="1" as="geometry" />
        </mxCell>
        <mxCell id="bxG6T7_YVZRhOUYlfCPM-373" value="" style="group;strokeColor=light-dark(transparent,#FF0700);" vertex="1" connectable="0" parent="1">
          <mxGeometry x="240" y="1880" width="120" height="100" as="geometry" />
        </mxCell>
        <mxCell id="bxG6T7_YVZRhOUYlfCPM-374" value="&lt;font size=&quot;3&quot;&gt;&lt;b&gt;4.1.1&lt;/b&gt;&lt;/font&gt;" style="rounded=0;whiteSpace=wrap;html=1;strokeColor=light-dark(transparent,#FF0700);" vertex="1" parent="bxG6T7_YVZRhOUYlfCPM-373">
          <mxGeometry width="120" height="100" as="geometry" />
        </mxCell>
        <mxCell id="bxG6T7_YVZRhOUYlfCPM-375" value="169" style="rounded=0;whiteSpace=wrap;html=1;strokeColor=light-dark(transparent,#FF0700);" vertex="1" parent="bxG6T7_YVZRhOUYlfCPM-373">
          <mxGeometry width="40" height="20" as="geometry" />
        </mxCell>
        <mxCell id="bxG6T7_YVZRhOUYlfCPM-376" style="edgeStyle=orthogonalEdgeStyle;rounded=0;orthogonalLoop=1;jettySize=auto;html=1;exitX=0.25;exitY=0;exitDx=0;exitDy=0;strokeColor=light-dark(transparent,#FF0700);" edge="1" parent="bxG6T7_YVZRhOUYlfCPM-373" source="bxG6T7_YVZRhOUYlfCPM-377">
          <mxGeometry relative="1" as="geometry">
            <mxPoint x="50" y="10" as="targetPoint" />
          </mxGeometry>
        </mxCell>
        <mxCell id="bxG6T7_YVZRhOUYlfCPM-377" value="5" style="rounded=0;whiteSpace=wrap;html=1;strokeColor=light-dark(transparent,#FF0700);" vertex="1" parent="bxG6T7_YVZRhOUYlfCPM-373">
          <mxGeometry x="40" width="40" height="20" as="geometry" />
        </mxCell>
        <mxCell id="bxG6T7_YVZRhOUYlfCPM-378" value="174" style="rounded=0;whiteSpace=wrap;html=1;strokeColor=light-dark(transparent,#FF0700);" vertex="1" parent="bxG6T7_YVZRhOUYlfCPM-373">
          <mxGeometry x="80" width="40" height="20" as="geometry" />
        </mxCell>
        <mxCell id="bxG6T7_YVZRhOUYlfCPM-379" value="169" style="rounded=0;whiteSpace=wrap;html=1;strokeColor=light-dark(transparent,#FF0700);" vertex="1" parent="bxG6T7_YVZRhOUYlfCPM-373">
          <mxGeometry y="80" width="40" height="20" as="geometry" />
        </mxCell>
        <mxCell id="bxG6T7_YVZRhOUYlfCPM-380" value="0" style="rounded=0;whiteSpace=wrap;html=1;strokeColor=light-dark(transparent,#FF0700);" vertex="1" parent="bxG6T7_YVZRhOUYlfCPM-373">
          <mxGeometry x="40" y="80" width="40" height="20" as="geometry" />
        </mxCell>
        <mxCell id="bxG6T7_YVZRhOUYlfCPM-381" value="174" style="rounded=0;whiteSpace=wrap;html=1;strokeColor=light-dark(transparent,#FF0700);" vertex="1" parent="bxG6T7_YVZRhOUYlfCPM-373">
          <mxGeometry x="80" y="80" width="40" height="20" as="geometry" />
        </mxCell>
        <mxCell id="bxG6T7_YVZRhOUYlfCPM-382" style="edgeStyle=orthogonalEdgeStyle;rounded=0;orthogonalLoop=1;jettySize=auto;html=1;exitX=1;exitY=0.5;exitDx=0;exitDy=0;entryX=0;entryY=0.5;entryDx=0;entryDy=0;strokeColor=light-dark(transparent,#FF0700);" edge="1" parent="1" source="bxG6T7_YVZRhOUYlfCPM-364" target="bxG6T7_YVZRhOUYlfCPM-374">
          <mxGeometry relative="1" as="geometry" />
        </mxCell>
        <mxCell id="bxG6T7_YVZRhOUYlfCPM-383" value="" style="group;strokeColor=light-dark(transparent,#FF0700);" vertex="1" connectable="0" parent="1">
          <mxGeometry x="480" y="1880" width="120" height="100" as="geometry" />
        </mxCell>
        <mxCell id="bxG6T7_YVZRhOUYlfCPM-384" value="&lt;font size=&quot;3&quot;&gt;&lt;b&gt;4.1.2&lt;/b&gt;&lt;/font&gt;" style="rounded=0;whiteSpace=wrap;html=1;strokeColor=light-dark(transparent,#FF0700);" vertex="1" parent="bxG6T7_YVZRhOUYlfCPM-383">
          <mxGeometry width="120" height="100" as="geometry" />
        </mxCell>
        <mxCell id="bxG6T7_YVZRhOUYlfCPM-385" value="174" style="rounded=0;whiteSpace=wrap;html=1;strokeColor=light-dark(transparent,#FF0700);" vertex="1" parent="bxG6T7_YVZRhOUYlfCPM-383">
          <mxGeometry width="40" height="20" as="geometry" />
        </mxCell>
        <mxCell id="bxG6T7_YVZRhOUYlfCPM-386" style="edgeStyle=orthogonalEdgeStyle;rounded=0;orthogonalLoop=1;jettySize=auto;html=1;exitX=0.25;exitY=0;exitDx=0;exitDy=0;strokeColor=light-dark(transparent,#FF0700);" edge="1" parent="bxG6T7_YVZRhOUYlfCPM-383" source="bxG6T7_YVZRhOUYlfCPM-387">
          <mxGeometry relative="1" as="geometry">
            <mxPoint x="50" y="10" as="targetPoint" />
          </mxGeometry>
        </mxCell>
        <mxCell id="bxG6T7_YVZRhOUYlfCPM-387" value="5" style="rounded=0;whiteSpace=wrap;html=1;strokeColor=light-dark(transparent,#FF0700);" vertex="1" parent="bxG6T7_YVZRhOUYlfCPM-383">
          <mxGeometry x="40" width="40" height="20" as="geometry" />
        </mxCell>
        <mxCell id="bxG6T7_YVZRhOUYlfCPM-388" value="179" style="rounded=0;whiteSpace=wrap;html=1;strokeColor=light-dark(transparent,#FF0700);" vertex="1" parent="bxG6T7_YVZRhOUYlfCPM-383">
          <mxGeometry x="80" width="40" height="20" as="geometry" />
        </mxCell>
        <mxCell id="bxG6T7_YVZRhOUYlfCPM-389" value="174" style="rounded=0;whiteSpace=wrap;html=1;strokeColor=light-dark(transparent,#FF0700);" vertex="1" parent="bxG6T7_YVZRhOUYlfCPM-383">
          <mxGeometry y="80" width="40" height="20" as="geometry" />
        </mxCell>
        <mxCell id="bxG6T7_YVZRhOUYlfCPM-390" value="0" style="rounded=0;whiteSpace=wrap;html=1;strokeColor=light-dark(transparent,#FF0700);" vertex="1" parent="bxG6T7_YVZRhOUYlfCPM-383">
          <mxGeometry x="40" y="80" width="40" height="20" as="geometry" />
        </mxCell>
        <mxCell id="bxG6T7_YVZRhOUYlfCPM-391" value="179" style="rounded=0;whiteSpace=wrap;html=1;strokeColor=light-dark(transparent,#FF0700);" vertex="1" parent="bxG6T7_YVZRhOUYlfCPM-383">
          <mxGeometry x="80" y="80" width="40" height="20" as="geometry" />
        </mxCell>
        <mxCell id="bxG6T7_YVZRhOUYlfCPM-392" value="" style="group;strokeColor=light-dark(transparent,#FF0700);" vertex="1" connectable="0" parent="1">
          <mxGeometry x="720" y="1880" width="120" height="100" as="geometry" />
        </mxCell>
        <mxCell id="bxG6T7_YVZRhOUYlfCPM-393" value="&lt;font size=&quot;3&quot;&gt;&lt;b&gt;4.1.3&lt;/b&gt;&lt;/font&gt;" style="rounded=0;whiteSpace=wrap;html=1;strokeColor=light-dark(transparent,#FF0700);" vertex="1" parent="bxG6T7_YVZRhOUYlfCPM-392">
          <mxGeometry width="120" height="100" as="geometry" />
        </mxCell>
        <mxCell id="bxG6T7_YVZRhOUYlfCPM-394" value="179" style="rounded=0;whiteSpace=wrap;html=1;strokeColor=light-dark(transparent,#FF0700);" vertex="1" parent="bxG6T7_YVZRhOUYlfCPM-392">
          <mxGeometry width="40" height="20" as="geometry" />
        </mxCell>
        <mxCell id="bxG6T7_YVZRhOUYlfCPM-395" style="edgeStyle=orthogonalEdgeStyle;rounded=0;orthogonalLoop=1;jettySize=auto;html=1;exitX=0.25;exitY=0;exitDx=0;exitDy=0;strokeColor=light-dark(transparent,#FF0700);" edge="1" parent="bxG6T7_YVZRhOUYlfCPM-392" source="bxG6T7_YVZRhOUYlfCPM-396">
          <mxGeometry relative="1" as="geometry">
            <mxPoint x="50" y="10" as="targetPoint" />
          </mxGeometry>
        </mxCell>
        <mxCell id="bxG6T7_YVZRhOUYlfCPM-396" value="5" style="rounded=0;whiteSpace=wrap;html=1;strokeColor=light-dark(transparent,#FF0700);" vertex="1" parent="bxG6T7_YVZRhOUYlfCPM-392">
          <mxGeometry x="40" width="40" height="20" as="geometry" />
        </mxCell>
        <mxCell id="bxG6T7_YVZRhOUYlfCPM-397" value="184" style="rounded=0;whiteSpace=wrap;html=1;strokeColor=light-dark(transparent,#FF0700);" vertex="1" parent="bxG6T7_YVZRhOUYlfCPM-392">
          <mxGeometry x="80" width="40" height="20" as="geometry" />
        </mxCell>
        <mxCell id="bxG6T7_YVZRhOUYlfCPM-398" value="179" style="rounded=0;whiteSpace=wrap;html=1;strokeColor=light-dark(transparent,#FF0700);" vertex="1" parent="bxG6T7_YVZRhOUYlfCPM-392">
          <mxGeometry y="80" width="40" height="20" as="geometry" />
        </mxCell>
        <mxCell id="bxG6T7_YVZRhOUYlfCPM-399" value="0" style="rounded=0;whiteSpace=wrap;html=1;strokeColor=light-dark(transparent,#FF0700);" vertex="1" parent="bxG6T7_YVZRhOUYlfCPM-392">
          <mxGeometry x="40" y="80" width="40" height="20" as="geometry" />
        </mxCell>
        <mxCell id="bxG6T7_YVZRhOUYlfCPM-400" value="184" style="rounded=0;whiteSpace=wrap;html=1;strokeColor=light-dark(transparent,#FF0700);" vertex="1" parent="bxG6T7_YVZRhOUYlfCPM-392">
          <mxGeometry x="80" y="80" width="40" height="20" as="geometry" />
        </mxCell>
        <mxCell id="bxG6T7_YVZRhOUYlfCPM-401" style="edgeStyle=orthogonalEdgeStyle;rounded=0;orthogonalLoop=1;jettySize=auto;html=1;exitX=1;exitY=0.5;exitDx=0;exitDy=0;entryX=0;entryY=0.5;entryDx=0;entryDy=0;strokeColor=light-dark(transparent,#FF0700);" edge="1" parent="1" source="bxG6T7_YVZRhOUYlfCPM-374" target="bxG6T7_YVZRhOUYlfCPM-384">
          <mxGeometry relative="1" as="geometry" />
        </mxCell>
        <mxCell id="bxG6T7_YVZRhOUYlfCPM-402" style="edgeStyle=orthogonalEdgeStyle;rounded=0;orthogonalLoop=1;jettySize=auto;html=1;exitX=1;exitY=0.5;exitDx=0;exitDy=0;entryX=0;entryY=0.5;entryDx=0;entryDy=0;strokeColor=light-dark(transparent,#FF0700);" edge="1" parent="1" source="bxG6T7_YVZRhOUYlfCPM-384" target="bxG6T7_YVZRhOUYlfCPM-393">
          <mxGeometry relative="1" as="geometry" />
        </mxCell>
        <mxCell id="bxG6T7_YVZRhOUYlfCPM-403" value="" style="group;strokeColor=light-dark(transparent,#FF0700);" vertex="1" connectable="0" parent="1">
          <mxGeometry x="960" y="1880" width="120" height="100" as="geometry" />
        </mxCell>
        <mxCell id="bxG6T7_YVZRhOUYlfCPM-404" value="&lt;font size=&quot;3&quot;&gt;&lt;b&gt;4.2.1&lt;/b&gt;&lt;/font&gt;" style="rounded=0;whiteSpace=wrap;html=1;strokeColor=light-dark(transparent,#FF0700);" vertex="1" parent="bxG6T7_YVZRhOUYlfCPM-403">
          <mxGeometry width="120" height="100" as="geometry" />
        </mxCell>
        <mxCell id="bxG6T7_YVZRhOUYlfCPM-405" value="184" style="rounded=0;whiteSpace=wrap;html=1;strokeColor=light-dark(transparent,#FF0700);" vertex="1" parent="bxG6T7_YVZRhOUYlfCPM-403">
          <mxGeometry width="40" height="20" as="geometry" />
        </mxCell>
        <mxCell id="bxG6T7_YVZRhOUYlfCPM-406" style="edgeStyle=orthogonalEdgeStyle;rounded=0;orthogonalLoop=1;jettySize=auto;html=1;exitX=0.25;exitY=0;exitDx=0;exitDy=0;strokeColor=light-dark(transparent,#FF0700);" edge="1" parent="bxG6T7_YVZRhOUYlfCPM-403" source="bxG6T7_YVZRhOUYlfCPM-407">
          <mxGeometry relative="1" as="geometry">
            <mxPoint x="50" y="10" as="targetPoint" />
          </mxGeometry>
        </mxCell>
        <mxCell id="bxG6T7_YVZRhOUYlfCPM-407" value="10" style="rounded=0;whiteSpace=wrap;html=1;strokeColor=light-dark(transparent,#FF0700);" vertex="1" parent="bxG6T7_YVZRhOUYlfCPM-403">
          <mxGeometry x="40" width="40" height="20" as="geometry" />
        </mxCell>
        <mxCell id="bxG6T7_YVZRhOUYlfCPM-408" value="194" style="rounded=0;whiteSpace=wrap;html=1;strokeColor=light-dark(transparent,#FF0700);" vertex="1" parent="bxG6T7_YVZRhOUYlfCPM-403">
          <mxGeometry x="80" width="40" height="20" as="geometry" />
        </mxCell>
        <mxCell id="bxG6T7_YVZRhOUYlfCPM-409" value="184" style="rounded=0;whiteSpace=wrap;html=1;strokeColor=light-dark(transparent,#FF0700);" vertex="1" parent="bxG6T7_YVZRhOUYlfCPM-403">
          <mxGeometry y="80" width="40" height="20" as="geometry" />
        </mxCell>
        <mxCell id="bxG6T7_YVZRhOUYlfCPM-410" value="0" style="rounded=0;whiteSpace=wrap;html=1;strokeColor=light-dark(transparent,#FF0700);" vertex="1" parent="bxG6T7_YVZRhOUYlfCPM-403">
          <mxGeometry x="40" y="80" width="40" height="20" as="geometry" />
        </mxCell>
        <mxCell id="bxG6T7_YVZRhOUYlfCPM-411" value="194" style="rounded=0;whiteSpace=wrap;html=1;strokeColor=light-dark(transparent,#FF0700);" vertex="1" parent="bxG6T7_YVZRhOUYlfCPM-403">
          <mxGeometry x="80" y="80" width="40" height="20" as="geometry" />
        </mxCell>
        <mxCell id="bxG6T7_YVZRhOUYlfCPM-412" style="edgeStyle=orthogonalEdgeStyle;rounded=0;orthogonalLoop=1;jettySize=auto;html=1;exitX=1;exitY=0.5;exitDx=0;exitDy=0;entryX=0;entryY=0.5;entryDx=0;entryDy=0;strokeColor=light-dark(transparent,#FF0700);" edge="1" parent="1" source="bxG6T7_YVZRhOUYlfCPM-393" target="bxG6T7_YVZRhOUYlfCPM-404">
          <mxGeometry relative="1" as="geometry" />
        </mxCell>
        <mxCell id="bxG6T7_YVZRhOUYlfCPM-414" value="" style="group;strokeColor=light-dark(transparent,#FF0700);" vertex="1" connectable="0" parent="1">
          <mxGeometry x="1200" y="1880" width="120" height="100" as="geometry" />
        </mxCell>
        <mxCell id="bxG6T7_YVZRhOUYlfCPM-415" value="&lt;font size=&quot;3&quot;&gt;&lt;b&gt;4.2.2&lt;/b&gt;&lt;/font&gt;" style="rounded=0;whiteSpace=wrap;html=1;strokeColor=light-dark(transparent,#FF0700);" vertex="1" parent="bxG6T7_YVZRhOUYlfCPM-414">
          <mxGeometry width="120" height="100" as="geometry" />
        </mxCell>
        <mxCell id="bxG6T7_YVZRhOUYlfCPM-416" value="194" style="rounded=0;whiteSpace=wrap;html=1;strokeColor=light-dark(transparent,#FF0700);" vertex="1" parent="bxG6T7_YVZRhOUYlfCPM-414">
          <mxGeometry width="40" height="20" as="geometry" />
        </mxCell>
        <mxCell id="bxG6T7_YVZRhOUYlfCPM-417" style="edgeStyle=orthogonalEdgeStyle;rounded=0;orthogonalLoop=1;jettySize=auto;html=1;exitX=0.25;exitY=0;exitDx=0;exitDy=0;strokeColor=light-dark(transparent,#FF0700);" edge="1" parent="bxG6T7_YVZRhOUYlfCPM-414" source="bxG6T7_YVZRhOUYlfCPM-418">
          <mxGeometry relative="1" as="geometry">
            <mxPoint x="50" y="10" as="targetPoint" />
          </mxGeometry>
        </mxCell>
        <mxCell id="bxG6T7_YVZRhOUYlfCPM-418" value="10" style="rounded=0;whiteSpace=wrap;html=1;strokeColor=light-dark(transparent,#FF0700);" vertex="1" parent="bxG6T7_YVZRhOUYlfCPM-414">
          <mxGeometry x="40" width="40" height="20" as="geometry" />
        </mxCell>
        <mxCell id="bxG6T7_YVZRhOUYlfCPM-419" value="204" style="rounded=0;whiteSpace=wrap;html=1;strokeColor=light-dark(transparent,#FF0700);" vertex="1" parent="bxG6T7_YVZRhOUYlfCPM-414">
          <mxGeometry x="80" width="40" height="20" as="geometry" />
        </mxCell>
        <mxCell id="bxG6T7_YVZRhOUYlfCPM-420" value="194" style="rounded=0;whiteSpace=wrap;html=1;strokeColor=light-dark(transparent,#FF0700);" vertex="1" parent="bxG6T7_YVZRhOUYlfCPM-414">
          <mxGeometry y="80" width="40" height="20" as="geometry" />
        </mxCell>
        <mxCell id="bxG6T7_YVZRhOUYlfCPM-421" value="0" style="rounded=0;whiteSpace=wrap;html=1;strokeColor=light-dark(transparent,#FF0700);" vertex="1" parent="bxG6T7_YVZRhOUYlfCPM-414">
          <mxGeometry x="40" y="80" width="40" height="20" as="geometry" />
        </mxCell>
        <mxCell id="bxG6T7_YVZRhOUYlfCPM-422" value="204" style="rounded=0;whiteSpace=wrap;html=1;strokeColor=light-dark(transparent,#FF0700);" vertex="1" parent="bxG6T7_YVZRhOUYlfCPM-414">
          <mxGeometry x="80" y="80" width="40" height="20" as="geometry" />
        </mxCell>
        <mxCell id="bxG6T7_YVZRhOUYlfCPM-423" style="edgeStyle=orthogonalEdgeStyle;rounded=0;orthogonalLoop=1;jettySize=auto;html=1;exitX=1;exitY=0.5;exitDx=0;exitDy=0;entryX=0;entryY=0.5;entryDx=0;entryDy=0;strokeColor=light-dark(transparent,#FF0700);" edge="1" parent="1" source="bxG6T7_YVZRhOUYlfCPM-404" target="bxG6T7_YVZRhOUYlfCPM-415">
          <mxGeometry relative="1" as="geometry" />
        </mxCell>
        <mxCell id="bxG6T7_YVZRhOUYlfCPM-424" value="" style="group;strokeColor=light-dark(transparent,#FF0700);" vertex="1" connectable="0" parent="1">
          <mxGeometry x="1440" y="1880" width="120" height="100" as="geometry" />
        </mxCell>
        <mxCell id="bxG6T7_YVZRhOUYlfCPM-425" value="&lt;font size=&quot;3&quot;&gt;&lt;b&gt;4.3&lt;/b&gt;&lt;/font&gt;" style="rounded=0;whiteSpace=wrap;html=1;strokeColor=light-dark(transparent,#FF0700);" vertex="1" parent="bxG6T7_YVZRhOUYlfCPM-424">
          <mxGeometry width="120" height="100" as="geometry" />
        </mxCell>
        <mxCell id="bxG6T7_YVZRhOUYlfCPM-426" value="204" style="rounded=0;whiteSpace=wrap;html=1;strokeColor=light-dark(transparent,#FF0700);" vertex="1" parent="bxG6T7_YVZRhOUYlfCPM-424">
          <mxGeometry width="40" height="20" as="geometry" />
        </mxCell>
        <mxCell id="bxG6T7_YVZRhOUYlfCPM-427" style="edgeStyle=orthogonalEdgeStyle;rounded=0;orthogonalLoop=1;jettySize=auto;html=1;exitX=0.25;exitY=0;exitDx=0;exitDy=0;strokeColor=light-dark(transparent,#FF0700);" edge="1" parent="bxG6T7_YVZRhOUYlfCPM-424" source="bxG6T7_YVZRhOUYlfCPM-428">
          <mxGeometry relative="1" as="geometry">
            <mxPoint x="50" y="10" as="targetPoint" />
          </mxGeometry>
        </mxCell>
        <mxCell id="bxG6T7_YVZRhOUYlfCPM-428" value="10" style="rounded=0;whiteSpace=wrap;html=1;strokeColor=light-dark(transparent,#FF0700);" vertex="1" parent="bxG6T7_YVZRhOUYlfCPM-424">
          <mxGeometry x="40" width="40" height="20" as="geometry" />
        </mxCell>
        <mxCell id="bxG6T7_YVZRhOUYlfCPM-429" value="214" style="rounded=0;whiteSpace=wrap;html=1;strokeColor=light-dark(transparent,#FF0700);" vertex="1" parent="bxG6T7_YVZRhOUYlfCPM-424">
          <mxGeometry x="80" width="40" height="20" as="geometry" />
        </mxCell>
        <mxCell id="bxG6T7_YVZRhOUYlfCPM-430" value="204" style="rounded=0;whiteSpace=wrap;html=1;strokeColor=light-dark(transparent,#FF0700);" vertex="1" parent="bxG6T7_YVZRhOUYlfCPM-424">
          <mxGeometry y="80" width="40" height="20" as="geometry" />
        </mxCell>
        <mxCell id="bxG6T7_YVZRhOUYlfCPM-431" value="0" style="rounded=0;whiteSpace=wrap;html=1;strokeColor=light-dark(transparent,#FF0700);" vertex="1" parent="bxG6T7_YVZRhOUYlfCPM-424">
          <mxGeometry x="40" y="80" width="40" height="20" as="geometry" />
        </mxCell>
        <mxCell id="bxG6T7_YVZRhOUYlfCPM-432" value="214" style="rounded=0;whiteSpace=wrap;html=1;strokeColor=light-dark(transparent,#FF0700);" vertex="1" parent="bxG6T7_YVZRhOUYlfCPM-424">
          <mxGeometry x="80" y="80" width="40" height="20" as="geometry" />
        </mxCell>
        <mxCell id="bxG6T7_YVZRhOUYlfCPM-433" style="edgeStyle=orthogonalEdgeStyle;rounded=0;orthogonalLoop=1;jettySize=auto;html=1;exitX=1;exitY=0.5;exitDx=0;exitDy=0;entryX=0;entryY=0.5;entryDx=0;entryDy=0;strokeColor=light-dark(transparent,#FF0700);" edge="1" parent="1" source="bxG6T7_YVZRhOUYlfCPM-415" target="bxG6T7_YVZRhOUYlfCPM-425">
          <mxGeometry relative="1" as="geometry" />
        </mxCell>
        <mxCell id="bxG6T7_YVZRhOUYlfCPM-434" value="" style="group;strokeColor=light-dark(transparent,#FF0700);" vertex="1" connectable="0" parent="1">
          <mxGeometry x="1440" y="2120" width="120" height="100" as="geometry" />
        </mxCell>
        <mxCell id="bxG6T7_YVZRhOUYlfCPM-435" value="&lt;font size=&quot;3&quot;&gt;&lt;b&gt;4.4&lt;/b&gt;&lt;/font&gt;" style="rounded=0;whiteSpace=wrap;html=1;strokeColor=light-dark(transparent,#FF0700);" vertex="1" parent="bxG6T7_YVZRhOUYlfCPM-434">
          <mxGeometry width="120" height="100" as="geometry" />
        </mxCell>
        <mxCell id="bxG6T7_YVZRhOUYlfCPM-436" value="214" style="rounded=0;whiteSpace=wrap;html=1;strokeColor=light-dark(transparent,#FF0700);" vertex="1" parent="bxG6T7_YVZRhOUYlfCPM-434">
          <mxGeometry width="40" height="20" as="geometry" />
        </mxCell>
        <mxCell id="bxG6T7_YVZRhOUYlfCPM-437" style="edgeStyle=orthogonalEdgeStyle;rounded=0;orthogonalLoop=1;jettySize=auto;html=1;exitX=0.25;exitY=0;exitDx=0;exitDy=0;strokeColor=light-dark(transparent,#FF0700);" edge="1" parent="bxG6T7_YVZRhOUYlfCPM-434" source="bxG6T7_YVZRhOUYlfCPM-438">
          <mxGeometry relative="1" as="geometry">
            <mxPoint x="50" y="10" as="targetPoint" />
          </mxGeometry>
        </mxCell>
        <mxCell id="bxG6T7_YVZRhOUYlfCPM-438" value="3" style="rounded=0;whiteSpace=wrap;html=1;strokeColor=light-dark(transparent,#FF0700);" vertex="1" parent="bxG6T7_YVZRhOUYlfCPM-434">
          <mxGeometry x="40" width="40" height="20" as="geometry" />
        </mxCell>
        <mxCell id="bxG6T7_YVZRhOUYlfCPM-439" value="217" style="rounded=0;whiteSpace=wrap;html=1;strokeColor=light-dark(transparent,#FF0700);" vertex="1" parent="bxG6T7_YVZRhOUYlfCPM-434">
          <mxGeometry x="80" width="40" height="20" as="geometry" />
        </mxCell>
        <mxCell id="bxG6T7_YVZRhOUYlfCPM-440" value="214" style="rounded=0;whiteSpace=wrap;html=1;strokeColor=light-dark(transparent,#FF0700);" vertex="1" parent="bxG6T7_YVZRhOUYlfCPM-434">
          <mxGeometry y="80" width="40" height="20" as="geometry" />
        </mxCell>
        <mxCell id="bxG6T7_YVZRhOUYlfCPM-441" value="0" style="rounded=0;whiteSpace=wrap;html=1;strokeColor=light-dark(transparent,#FF0700);" vertex="1" parent="bxG6T7_YVZRhOUYlfCPM-434">
          <mxGeometry x="40" y="80" width="40" height="20" as="geometry" />
        </mxCell>
        <mxCell id="bxG6T7_YVZRhOUYlfCPM-442" value="217" style="rounded=0;whiteSpace=wrap;html=1;strokeColor=light-dark(transparent,#FF0700);" vertex="1" parent="bxG6T7_YVZRhOUYlfCPM-434">
          <mxGeometry x="80" y="80" width="40" height="20" as="geometry" />
        </mxCell>
        <mxCell id="bxG6T7_YVZRhOUYlfCPM-443" style="edgeStyle=orthogonalEdgeStyle;rounded=0;orthogonalLoop=1;jettySize=auto;html=1;exitX=0.5;exitY=1;exitDx=0;exitDy=0;entryX=0.5;entryY=0;entryDx=0;entryDy=0;strokeColor=light-dark(transparent,#FF0700);" edge="1" parent="1" source="bxG6T7_YVZRhOUYlfCPM-431" target="bxG6T7_YVZRhOUYlfCPM-438">
          <mxGeometry relative="1" as="geometry" />
        </mxCell>
        <mxCell id="bxG6T7_YVZRhOUYlfCPM-445" value="" style="group;strokeColor=light-dark(transparent,#FF0700);" vertex="1" connectable="0" parent="1">
          <mxGeometry x="1200" y="2120" width="120" height="100" as="geometry" />
        </mxCell>
        <mxCell id="bxG6T7_YVZRhOUYlfCPM-446" value="&lt;font size=&quot;3&quot;&gt;&lt;b&gt;5.1&lt;/b&gt;&lt;/font&gt;" style="rounded=0;whiteSpace=wrap;html=1;strokeColor=light-dark(transparent,#FF0700);" vertex="1" parent="bxG6T7_YVZRhOUYlfCPM-445">
          <mxGeometry width="120" height="100" as="geometry" />
        </mxCell>
        <mxCell id="bxG6T7_YVZRhOUYlfCPM-447" value="217" style="rounded=0;whiteSpace=wrap;html=1;strokeColor=light-dark(transparent,#FF0700);" vertex="1" parent="bxG6T7_YVZRhOUYlfCPM-445">
          <mxGeometry width="40" height="20" as="geometry" />
        </mxCell>
        <mxCell id="bxG6T7_YVZRhOUYlfCPM-448" style="edgeStyle=orthogonalEdgeStyle;rounded=0;orthogonalLoop=1;jettySize=auto;html=1;exitX=0.25;exitY=0;exitDx=0;exitDy=0;strokeColor=light-dark(transparent,#FF0700);" edge="1" parent="bxG6T7_YVZRhOUYlfCPM-445" source="bxG6T7_YVZRhOUYlfCPM-449">
          <mxGeometry relative="1" as="geometry">
            <mxPoint x="50" y="10" as="targetPoint" />
          </mxGeometry>
        </mxCell>
        <mxCell id="bxG6T7_YVZRhOUYlfCPM-449" value="5" style="rounded=0;whiteSpace=wrap;html=1;strokeColor=light-dark(transparent,#FF0700);" vertex="1" parent="bxG6T7_YVZRhOUYlfCPM-445">
          <mxGeometry x="40" width="40" height="20" as="geometry" />
        </mxCell>
        <mxCell id="bxG6T7_YVZRhOUYlfCPM-450" value="222" style="rounded=0;whiteSpace=wrap;html=1;strokeColor=light-dark(transparent,#FF0700);" vertex="1" parent="bxG6T7_YVZRhOUYlfCPM-445">
          <mxGeometry x="80" width="40" height="20" as="geometry" />
        </mxCell>
        <mxCell id="bxG6T7_YVZRhOUYlfCPM-451" value="217" style="rounded=0;whiteSpace=wrap;html=1;strokeColor=light-dark(transparent,#FF0700);" vertex="1" parent="bxG6T7_YVZRhOUYlfCPM-445">
          <mxGeometry y="80" width="40" height="20" as="geometry" />
        </mxCell>
        <mxCell id="bxG6T7_YVZRhOUYlfCPM-452" value="0" style="rounded=0;whiteSpace=wrap;html=1;strokeColor=light-dark(transparent,#FF0700);" vertex="1" parent="bxG6T7_YVZRhOUYlfCPM-445">
          <mxGeometry x="40" y="80" width="40" height="20" as="geometry" />
        </mxCell>
        <mxCell id="bxG6T7_YVZRhOUYlfCPM-453" value="222" style="rounded=0;whiteSpace=wrap;html=1;strokeColor=light-dark(transparent,#FF0700);" vertex="1" parent="bxG6T7_YVZRhOUYlfCPM-445">
          <mxGeometry x="80" y="80" width="40" height="20" as="geometry" />
        </mxCell>
        <mxCell id="bxG6T7_YVZRhOUYlfCPM-454" style="edgeStyle=orthogonalEdgeStyle;rounded=0;orthogonalLoop=1;jettySize=auto;html=1;exitX=0;exitY=0.5;exitDx=0;exitDy=0;entryX=1;entryY=0.5;entryDx=0;entryDy=0;strokeColor=light-dark(transparent,#FF0700);" edge="1" parent="1" source="bxG6T7_YVZRhOUYlfCPM-435" target="bxG6T7_YVZRhOUYlfCPM-446">
          <mxGeometry relative="1" as="geometry" />
        </mxCell>
        <mxCell id="bxG6T7_YVZRhOUYlfCPM-455" value="" style="group;strokeColor=light-dark(transparent,#FF0700);" vertex="1" connectable="0" parent="1">
          <mxGeometry x="960" y="2120" width="120" height="100" as="geometry" />
        </mxCell>
        <mxCell id="bxG6T7_YVZRhOUYlfCPM-456" value="&lt;font size=&quot;3&quot;&gt;&lt;b&gt;5.2.1&lt;/b&gt;&lt;/font&gt;" style="rounded=0;whiteSpace=wrap;html=1;strokeColor=light-dark(transparent,#FF0700);" vertex="1" parent="bxG6T7_YVZRhOUYlfCPM-455">
          <mxGeometry width="120" height="100" as="geometry" />
        </mxCell>
        <mxCell id="bxG6T7_YVZRhOUYlfCPM-457" value="222" style="rounded=0;whiteSpace=wrap;html=1;strokeColor=light-dark(transparent,#FF0700);" vertex="1" parent="bxG6T7_YVZRhOUYlfCPM-455">
          <mxGeometry width="40" height="20" as="geometry" />
        </mxCell>
        <mxCell id="bxG6T7_YVZRhOUYlfCPM-458" style="edgeStyle=orthogonalEdgeStyle;rounded=0;orthogonalLoop=1;jettySize=auto;html=1;exitX=0.25;exitY=0;exitDx=0;exitDy=0;strokeColor=light-dark(transparent,#FF0700);" edge="1" parent="bxG6T7_YVZRhOUYlfCPM-455" source="bxG6T7_YVZRhOUYlfCPM-459">
          <mxGeometry relative="1" as="geometry">
            <mxPoint x="50" y="10" as="targetPoint" />
          </mxGeometry>
        </mxCell>
        <mxCell id="bxG6T7_YVZRhOUYlfCPM-459" value="4" style="rounded=0;whiteSpace=wrap;html=1;strokeColor=light-dark(transparent,#FF0700);" vertex="1" parent="bxG6T7_YVZRhOUYlfCPM-455">
          <mxGeometry x="40" width="40" height="20" as="geometry" />
        </mxCell>
        <mxCell id="bxG6T7_YVZRhOUYlfCPM-460" value="226" style="rounded=0;whiteSpace=wrap;html=1;strokeColor=light-dark(transparent,#FF0700);" vertex="1" parent="bxG6T7_YVZRhOUYlfCPM-455">
          <mxGeometry x="80" width="40" height="20" as="geometry" />
        </mxCell>
        <mxCell id="bxG6T7_YVZRhOUYlfCPM-461" value="222" style="rounded=0;whiteSpace=wrap;html=1;strokeColor=light-dark(transparent,#FF0700);" vertex="1" parent="bxG6T7_YVZRhOUYlfCPM-455">
          <mxGeometry y="80" width="40" height="20" as="geometry" />
        </mxCell>
        <mxCell id="bxG6T7_YVZRhOUYlfCPM-462" value="0" style="rounded=0;whiteSpace=wrap;html=1;strokeColor=light-dark(transparent,#FF0700);" vertex="1" parent="bxG6T7_YVZRhOUYlfCPM-455">
          <mxGeometry x="40" y="80" width="40" height="20" as="geometry" />
        </mxCell>
        <mxCell id="bxG6T7_YVZRhOUYlfCPM-463" value="226" style="rounded=0;whiteSpace=wrap;html=1;strokeColor=light-dark(transparent,#FF0700);" vertex="1" parent="bxG6T7_YVZRhOUYlfCPM-455">
          <mxGeometry x="80" y="80" width="40" height="20" as="geometry" />
        </mxCell>
        <mxCell id="bxG6T7_YVZRhOUYlfCPM-464" style="edgeStyle=orthogonalEdgeStyle;rounded=0;orthogonalLoop=1;jettySize=auto;html=1;exitX=0;exitY=0.5;exitDx=0;exitDy=0;entryX=1;entryY=0.5;entryDx=0;entryDy=0;strokeColor=light-dark(transparent,#FF0700);" edge="1" parent="1" source="bxG6T7_YVZRhOUYlfCPM-446" target="bxG6T7_YVZRhOUYlfCPM-456">
          <mxGeometry relative="1" as="geometry" />
        </mxCell>
        <mxCell id="bxG6T7_YVZRhOUYlfCPM-465" value="" style="group;strokeColor=light-dark(transparent,#FF0700);" vertex="1" connectable="0" parent="1">
          <mxGeometry x="720" y="2120" width="120" height="100" as="geometry" />
        </mxCell>
        <mxCell id="bxG6T7_YVZRhOUYlfCPM-466" value="&lt;font size=&quot;3&quot;&gt;&lt;b&gt;5.2.2&lt;/b&gt;&lt;/font&gt;" style="rounded=0;whiteSpace=wrap;html=1;strokeColor=light-dark(transparent,#FF0700);" vertex="1" parent="bxG6T7_YVZRhOUYlfCPM-465">
          <mxGeometry width="120" height="100" as="geometry" />
        </mxCell>
        <mxCell id="bxG6T7_YVZRhOUYlfCPM-467" value="226" style="rounded=0;whiteSpace=wrap;html=1;strokeColor=light-dark(transparent,#FF0700);" vertex="1" parent="bxG6T7_YVZRhOUYlfCPM-465">
          <mxGeometry width="40" height="20" as="geometry" />
        </mxCell>
        <mxCell id="bxG6T7_YVZRhOUYlfCPM-468" style="edgeStyle=orthogonalEdgeStyle;rounded=0;orthogonalLoop=1;jettySize=auto;html=1;exitX=0.25;exitY=0;exitDx=0;exitDy=0;strokeColor=light-dark(transparent,#FF0700);" edge="1" parent="bxG6T7_YVZRhOUYlfCPM-465" source="bxG6T7_YVZRhOUYlfCPM-469">
          <mxGeometry relative="1" as="geometry">
            <mxPoint x="50" y="10" as="targetPoint" />
          </mxGeometry>
        </mxCell>
        <mxCell id="bxG6T7_YVZRhOUYlfCPM-469" value="4" style="rounded=0;whiteSpace=wrap;html=1;strokeColor=light-dark(transparent,#FF0700);" vertex="1" parent="bxG6T7_YVZRhOUYlfCPM-465">
          <mxGeometry x="40" width="40" height="20" as="geometry" />
        </mxCell>
        <mxCell id="bxG6T7_YVZRhOUYlfCPM-470" value="230" style="rounded=0;whiteSpace=wrap;html=1;strokeColor=light-dark(transparent,#FF0700);" vertex="1" parent="bxG6T7_YVZRhOUYlfCPM-465">
          <mxGeometry x="80" width="40" height="20" as="geometry" />
        </mxCell>
        <mxCell id="bxG6T7_YVZRhOUYlfCPM-471" value="226" style="rounded=0;whiteSpace=wrap;html=1;strokeColor=light-dark(transparent,#FF0700);" vertex="1" parent="bxG6T7_YVZRhOUYlfCPM-465">
          <mxGeometry y="80" width="40" height="20" as="geometry" />
        </mxCell>
        <mxCell id="bxG6T7_YVZRhOUYlfCPM-472" value="0" style="rounded=0;whiteSpace=wrap;html=1;strokeColor=light-dark(transparent,#FF0700);" vertex="1" parent="bxG6T7_YVZRhOUYlfCPM-465">
          <mxGeometry x="40" y="80" width="40" height="20" as="geometry" />
        </mxCell>
        <mxCell id="bxG6T7_YVZRhOUYlfCPM-473" value="230" style="rounded=0;whiteSpace=wrap;html=1;strokeColor=light-dark(transparent,#FF0700);" vertex="1" parent="bxG6T7_YVZRhOUYlfCPM-465">
          <mxGeometry x="80" y="80" width="40" height="20" as="geometry" />
        </mxCell>
        <mxCell id="bxG6T7_YVZRhOUYlfCPM-474" style="edgeStyle=orthogonalEdgeStyle;rounded=0;orthogonalLoop=1;jettySize=auto;html=1;exitX=0;exitY=0.5;exitDx=0;exitDy=0;entryX=1;entryY=0.5;entryDx=0;entryDy=0;strokeColor=light-dark(transparent,#FF0700);" edge="1" parent="1" source="bxG6T7_YVZRhOUYlfCPM-456" target="bxG6T7_YVZRhOUYlfCPM-466">
          <mxGeometry relative="1" as="geometry" />
        </mxCell>
        <mxCell id="bxG6T7_YVZRhOUYlfCPM-475" value="" style="group;strokeColor=light-dark(transparent,#FF0700);" vertex="1" connectable="0" parent="1">
          <mxGeometry x="480" y="2120" width="120" height="100" as="geometry" />
        </mxCell>
        <mxCell id="bxG6T7_YVZRhOUYlfCPM-476" value="&lt;font size=&quot;3&quot;&gt;&lt;b&gt;5.2.3&lt;/b&gt;&lt;/font&gt;" style="rounded=0;whiteSpace=wrap;html=1;strokeColor=light-dark(transparent,#FF0700);" vertex="1" parent="bxG6T7_YVZRhOUYlfCPM-475">
          <mxGeometry width="120" height="100" as="geometry" />
        </mxCell>
        <mxCell id="bxG6T7_YVZRhOUYlfCPM-477" value="230" style="rounded=0;whiteSpace=wrap;html=1;strokeColor=light-dark(transparent,#FF0700);" vertex="1" parent="bxG6T7_YVZRhOUYlfCPM-475">
          <mxGeometry width="40" height="20" as="geometry" />
        </mxCell>
        <mxCell id="bxG6T7_YVZRhOUYlfCPM-478" style="edgeStyle=orthogonalEdgeStyle;rounded=0;orthogonalLoop=1;jettySize=auto;html=1;exitX=0.25;exitY=0;exitDx=0;exitDy=0;strokeColor=light-dark(transparent,#FF0700);" edge="1" parent="bxG6T7_YVZRhOUYlfCPM-475" source="bxG6T7_YVZRhOUYlfCPM-479">
          <mxGeometry relative="1" as="geometry">
            <mxPoint x="50" y="10" as="targetPoint" />
          </mxGeometry>
        </mxCell>
        <mxCell id="bxG6T7_YVZRhOUYlfCPM-479" value="5" style="rounded=0;whiteSpace=wrap;html=1;strokeColor=light-dark(transparent,#FF0700);" vertex="1" parent="bxG6T7_YVZRhOUYlfCPM-475">
          <mxGeometry x="40" width="40" height="20" as="geometry" />
        </mxCell>
        <mxCell id="bxG6T7_YVZRhOUYlfCPM-480" value="235" style="rounded=0;whiteSpace=wrap;html=1;strokeColor=light-dark(transparent,#FF0700);" vertex="1" parent="bxG6T7_YVZRhOUYlfCPM-475">
          <mxGeometry x="80" width="40" height="20" as="geometry" />
        </mxCell>
        <mxCell id="bxG6T7_YVZRhOUYlfCPM-481" value="230" style="rounded=0;whiteSpace=wrap;html=1;strokeColor=light-dark(transparent,#FF0700);" vertex="1" parent="bxG6T7_YVZRhOUYlfCPM-475">
          <mxGeometry y="80" width="40" height="20" as="geometry" />
        </mxCell>
        <mxCell id="bxG6T7_YVZRhOUYlfCPM-482" value="0" style="rounded=0;whiteSpace=wrap;html=1;strokeColor=light-dark(transparent,#FF0700);" vertex="1" parent="bxG6T7_YVZRhOUYlfCPM-475">
          <mxGeometry x="40" y="80" width="40" height="20" as="geometry" />
        </mxCell>
        <mxCell id="bxG6T7_YVZRhOUYlfCPM-483" value="235" style="rounded=0;whiteSpace=wrap;html=1;strokeColor=light-dark(transparent,#FF0700);" vertex="1" parent="bxG6T7_YVZRhOUYlfCPM-475">
          <mxGeometry x="80" y="80" width="40" height="20" as="geometry" />
        </mxCell>
        <mxCell id="bxG6T7_YVZRhOUYlfCPM-484" style="edgeStyle=orthogonalEdgeStyle;rounded=0;orthogonalLoop=1;jettySize=auto;html=1;exitX=0;exitY=0.5;exitDx=0;exitDy=0;entryX=1;entryY=0.5;entryDx=0;entryDy=0;strokeColor=light-dark(transparent,#FF0700);" edge="1" parent="1" source="bxG6T7_YVZRhOUYlfCPM-466" target="bxG6T7_YVZRhOUYlfCPM-476">
          <mxGeometry relative="1" as="geometry" />
        </mxCell>
        <mxCell id="bxG6T7_YVZRhOUYlfCPM-485" value="" style="group;strokeColor=light-dark(transparent,#FF0700);" vertex="1" connectable="0" parent="1">
          <mxGeometry x="240" y="2120" width="120" height="100" as="geometry" />
        </mxCell>
        <mxCell id="bxG6T7_YVZRhOUYlfCPM-486" value="&lt;font size=&quot;3&quot;&gt;&lt;b&gt;5.2.4&lt;/b&gt;&lt;/font&gt;" style="rounded=0;whiteSpace=wrap;html=1;strokeColor=light-dark(transparent,#FF0700);" vertex="1" parent="bxG6T7_YVZRhOUYlfCPM-485">
          <mxGeometry width="120" height="100" as="geometry" />
        </mxCell>
        <mxCell id="bxG6T7_YVZRhOUYlfCPM-487" value="235" style="rounded=0;whiteSpace=wrap;html=1;strokeColor=light-dark(transparent,#FF0700);" vertex="1" parent="bxG6T7_YVZRhOUYlfCPM-485">
          <mxGeometry width="40" height="20" as="geometry" />
        </mxCell>
        <mxCell id="bxG6T7_YVZRhOUYlfCPM-488" style="edgeStyle=orthogonalEdgeStyle;rounded=0;orthogonalLoop=1;jettySize=auto;html=1;exitX=0.25;exitY=0;exitDx=0;exitDy=0;strokeColor=light-dark(transparent,#FF0700);" edge="1" parent="bxG6T7_YVZRhOUYlfCPM-485" source="bxG6T7_YVZRhOUYlfCPM-489">
          <mxGeometry relative="1" as="geometry">
            <mxPoint x="50" y="10" as="targetPoint" />
          </mxGeometry>
        </mxCell>
        <mxCell id="bxG6T7_YVZRhOUYlfCPM-489" value="20" style="rounded=0;whiteSpace=wrap;html=1;strokeColor=light-dark(transparent,#FF0700);" vertex="1" parent="bxG6T7_YVZRhOUYlfCPM-485">
          <mxGeometry x="40" width="40" height="20" as="geometry" />
        </mxCell>
        <mxCell id="bxG6T7_YVZRhOUYlfCPM-490" value="255" style="rounded=0;whiteSpace=wrap;html=1;strokeColor=light-dark(transparent,#FF0700);" vertex="1" parent="bxG6T7_YVZRhOUYlfCPM-485">
          <mxGeometry x="80" width="40" height="20" as="geometry" />
        </mxCell>
        <mxCell id="bxG6T7_YVZRhOUYlfCPM-491" value="235" style="rounded=0;whiteSpace=wrap;html=1;strokeColor=light-dark(transparent,#FF0700);" vertex="1" parent="bxG6T7_YVZRhOUYlfCPM-485">
          <mxGeometry y="80" width="40" height="20" as="geometry" />
        </mxCell>
        <mxCell id="bxG6T7_YVZRhOUYlfCPM-492" value="0" style="rounded=0;whiteSpace=wrap;html=1;strokeColor=light-dark(transparent,#FF0700);" vertex="1" parent="bxG6T7_YVZRhOUYlfCPM-485">
          <mxGeometry x="40" y="80" width="40" height="20" as="geometry" />
        </mxCell>
        <mxCell id="bxG6T7_YVZRhOUYlfCPM-493" value="255" style="rounded=0;whiteSpace=wrap;html=1;strokeColor=light-dark(transparent,#FF0700);" vertex="1" parent="bxG6T7_YVZRhOUYlfCPM-485">
          <mxGeometry x="80" y="80" width="40" height="20" as="geometry" />
        </mxCell>
        <mxCell id="bxG6T7_YVZRhOUYlfCPM-494" style="edgeStyle=orthogonalEdgeStyle;rounded=0;orthogonalLoop=1;jettySize=auto;html=1;exitX=0;exitY=0.5;exitDx=0;exitDy=0;entryX=1;entryY=0.5;entryDx=0;entryDy=0;strokeColor=light-dark(transparent,#FF0700);" edge="1" parent="1" source="bxG6T7_YVZRhOUYlfCPM-476" target="bxG6T7_YVZRhOUYlfCPM-486">
          <mxGeometry relative="1" as="geometry" />
        </mxCell>
        <mxCell id="bxG6T7_YVZRhOUYlfCPM-495" value="" style="group;strokeColor=light-dark(transparent,#FF0700);" vertex="1" connectable="0" parent="1">
          <mxGeometry y="2120" width="120" height="100" as="geometry" />
        </mxCell>
        <mxCell id="bxG6T7_YVZRhOUYlfCPM-496" value="&lt;font size=&quot;3&quot;&gt;&lt;b&gt;5.3&lt;/b&gt;&lt;/font&gt;" style="rounded=0;whiteSpace=wrap;html=1;strokeColor=light-dark(transparent,#FF0700);" vertex="1" parent="bxG6T7_YVZRhOUYlfCPM-495">
          <mxGeometry width="120" height="100" as="geometry" />
        </mxCell>
        <mxCell id="bxG6T7_YVZRhOUYlfCPM-497" value="255" style="rounded=0;whiteSpace=wrap;html=1;strokeColor=light-dark(transparent,#FF0700);" vertex="1" parent="bxG6T7_YVZRhOUYlfCPM-495">
          <mxGeometry width="40" height="20" as="geometry" />
        </mxCell>
        <mxCell id="bxG6T7_YVZRhOUYlfCPM-498" style="edgeStyle=orthogonalEdgeStyle;rounded=0;orthogonalLoop=1;jettySize=auto;html=1;exitX=0.25;exitY=0;exitDx=0;exitDy=0;strokeColor=light-dark(transparent,#FF0700);" edge="1" parent="bxG6T7_YVZRhOUYlfCPM-495" source="bxG6T7_YVZRhOUYlfCPM-499">
          <mxGeometry relative="1" as="geometry">
            <mxPoint x="50" y="10" as="targetPoint" />
          </mxGeometry>
        </mxCell>
        <mxCell id="bxG6T7_YVZRhOUYlfCPM-499" value="7" style="rounded=0;whiteSpace=wrap;html=1;strokeColor=light-dark(transparent,#FF0700);" vertex="1" parent="bxG6T7_YVZRhOUYlfCPM-495">
          <mxGeometry x="40" width="40" height="20" as="geometry" />
        </mxCell>
        <mxCell id="bxG6T7_YVZRhOUYlfCPM-500" value="262" style="rounded=0;whiteSpace=wrap;html=1;strokeColor=light-dark(transparent,#FF0700);" vertex="1" parent="bxG6T7_YVZRhOUYlfCPM-495">
          <mxGeometry x="80" width="40" height="20" as="geometry" />
        </mxCell>
        <mxCell id="bxG6T7_YVZRhOUYlfCPM-501" value="255" style="rounded=0;whiteSpace=wrap;html=1;strokeColor=light-dark(transparent,#FF0700);" vertex="1" parent="bxG6T7_YVZRhOUYlfCPM-495">
          <mxGeometry y="80" width="40" height="20" as="geometry" />
        </mxCell>
        <mxCell id="bxG6T7_YVZRhOUYlfCPM-502" value="0" style="rounded=0;whiteSpace=wrap;html=1;strokeColor=light-dark(transparent,#FF0700);" vertex="1" parent="bxG6T7_YVZRhOUYlfCPM-495">
          <mxGeometry x="40" y="80" width="40" height="20" as="geometry" />
        </mxCell>
        <mxCell id="bxG6T7_YVZRhOUYlfCPM-503" value="262" style="rounded=0;whiteSpace=wrap;html=1;strokeColor=light-dark(transparent,#FF0700);" vertex="1" parent="bxG6T7_YVZRhOUYlfCPM-495">
          <mxGeometry x="80" y="80" width="40" height="20" as="geometry" />
        </mxCell>
        <mxCell id="bxG6T7_YVZRhOUYlfCPM-504" style="edgeStyle=orthogonalEdgeStyle;rounded=0;orthogonalLoop=1;jettySize=auto;html=1;exitX=0;exitY=0.5;exitDx=0;exitDy=0;entryX=1;entryY=0.5;entryDx=0;entryDy=0;strokeColor=light-dark(transparent,#FF0700);" edge="1" parent="1" source="bxG6T7_YVZRhOUYlfCPM-486" target="bxG6T7_YVZRhOUYlfCPM-496">
          <mxGeometry relative="1" as="geometry" />
        </mxCell>
        <mxCell id="bxG6T7_YVZRhOUYlfCPM-505" value="0" style="group;strokeColor=light-dark(transparent,#FF0700);" vertex="1" connectable="0" parent="1">
          <mxGeometry y="2360" width="120" height="100" as="geometry" />
        </mxCell>
        <mxCell id="bxG6T7_YVZRhOUYlfCPM-506" value="&lt;font size=&quot;3&quot;&gt;&lt;b&gt;5.4&lt;/b&gt;&lt;/font&gt;" style="rounded=0;whiteSpace=wrap;html=1;strokeColor=light-dark(transparent,#FF0700);" vertex="1" parent="bxG6T7_YVZRhOUYlfCPM-505">
          <mxGeometry width="120" height="100" as="geometry" />
        </mxCell>
        <mxCell id="bxG6T7_YVZRhOUYlfCPM-507" value="262" style="rounded=0;whiteSpace=wrap;html=1;strokeColor=light-dark(transparent,#FF0700);" vertex="1" parent="bxG6T7_YVZRhOUYlfCPM-505">
          <mxGeometry width="40" height="20" as="geometry" />
        </mxCell>
        <mxCell id="bxG6T7_YVZRhOUYlfCPM-508" style="edgeStyle=orthogonalEdgeStyle;rounded=0;orthogonalLoop=1;jettySize=auto;html=1;exitX=0.25;exitY=0;exitDx=0;exitDy=0;strokeColor=light-dark(transparent,#FF0700);" edge="1" parent="bxG6T7_YVZRhOUYlfCPM-505" source="bxG6T7_YVZRhOUYlfCPM-509">
          <mxGeometry relative="1" as="geometry">
            <mxPoint x="50" y="10" as="targetPoint" />
          </mxGeometry>
        </mxCell>
        <mxCell id="bxG6T7_YVZRhOUYlfCPM-509" value="10" style="rounded=0;whiteSpace=wrap;html=1;strokeColor=light-dark(transparent,#FF0700);" vertex="1" parent="bxG6T7_YVZRhOUYlfCPM-505">
          <mxGeometry x="40" width="40" height="20" as="geometry" />
        </mxCell>
        <mxCell id="bxG6T7_YVZRhOUYlfCPM-510" value="272" style="rounded=0;whiteSpace=wrap;html=1;strokeColor=light-dark(transparent,#FF0700);" vertex="1" parent="bxG6T7_YVZRhOUYlfCPM-505">
          <mxGeometry x="80" width="40" height="20" as="geometry" />
        </mxCell>
        <mxCell id="bxG6T7_YVZRhOUYlfCPM-511" value="262" style="rounded=0;whiteSpace=wrap;html=1;strokeColor=light-dark(transparent,#FF0700);" vertex="1" parent="bxG6T7_YVZRhOUYlfCPM-505">
          <mxGeometry y="80" width="40" height="20" as="geometry" />
        </mxCell>
        <mxCell id="bxG6T7_YVZRhOUYlfCPM-512" value="0" style="rounded=0;whiteSpace=wrap;html=1;strokeColor=light-dark(transparent,#FF0700);" vertex="1" parent="bxG6T7_YVZRhOUYlfCPM-505">
          <mxGeometry x="40" y="80" width="40" height="20" as="geometry" />
        </mxCell>
        <mxCell id="bxG6T7_YVZRhOUYlfCPM-513" value="272" style="rounded=0;whiteSpace=wrap;html=1;strokeColor=light-dark(transparent,#FF0700);" vertex="1" parent="bxG6T7_YVZRhOUYlfCPM-505">
          <mxGeometry x="80" y="80" width="40" height="20" as="geometry" />
        </mxCell>
        <mxCell id="bxG6T7_YVZRhOUYlfCPM-514" value="" style="group;strokeColor=light-dark(transparent,#FF0700);" vertex="1" connectable="0" parent="1">
          <mxGeometry x="240" y="2360" width="120" height="100" as="geometry" />
        </mxCell>
        <mxCell id="bxG6T7_YVZRhOUYlfCPM-515" value="&lt;font size=&quot;3&quot;&gt;&lt;b&gt;5.5&lt;/b&gt;&lt;/font&gt;" style="rounded=0;whiteSpace=wrap;html=1;strokeColor=light-dark(transparent,#FF0700);" vertex="1" parent="bxG6T7_YVZRhOUYlfCPM-514">
          <mxGeometry width="120" height="100" as="geometry" />
        </mxCell>
        <mxCell id="bxG6T7_YVZRhOUYlfCPM-516" value="272" style="rounded=0;whiteSpace=wrap;html=1;strokeColor=light-dark(transparent,#FF0700);" vertex="1" parent="bxG6T7_YVZRhOUYlfCPM-514">
          <mxGeometry width="40" height="20" as="geometry" />
        </mxCell>
        <mxCell id="bxG6T7_YVZRhOUYlfCPM-517" style="edgeStyle=orthogonalEdgeStyle;rounded=0;orthogonalLoop=1;jettySize=auto;html=1;exitX=0.25;exitY=0;exitDx=0;exitDy=0;strokeColor=light-dark(transparent,#FF0700);" edge="1" parent="bxG6T7_YVZRhOUYlfCPM-514" source="bxG6T7_YVZRhOUYlfCPM-518">
          <mxGeometry relative="1" as="geometry">
            <mxPoint x="50" y="10" as="targetPoint" />
          </mxGeometry>
        </mxCell>
        <mxCell id="bxG6T7_YVZRhOUYlfCPM-518" value="5" style="rounded=0;whiteSpace=wrap;html=1;strokeColor=light-dark(transparent,#FF0700);" vertex="1" parent="bxG6T7_YVZRhOUYlfCPM-514">
          <mxGeometry x="40" width="40" height="20" as="geometry" />
        </mxCell>
        <mxCell id="bxG6T7_YVZRhOUYlfCPM-519" value="277" style="rounded=0;whiteSpace=wrap;html=1;strokeColor=light-dark(transparent,#FF0700);" vertex="1" parent="bxG6T7_YVZRhOUYlfCPM-514">
          <mxGeometry x="80" width="40" height="20" as="geometry" />
        </mxCell>
        <mxCell id="bxG6T7_YVZRhOUYlfCPM-520" value="272" style="rounded=0;whiteSpace=wrap;html=1;strokeColor=light-dark(transparent,#FF0700);" vertex="1" parent="bxG6T7_YVZRhOUYlfCPM-514">
          <mxGeometry y="80" width="40" height="20" as="geometry" />
        </mxCell>
        <mxCell id="bxG6T7_YVZRhOUYlfCPM-521" value="0" style="rounded=0;whiteSpace=wrap;html=1;strokeColor=light-dark(transparent,#FF0700);" vertex="1" parent="bxG6T7_YVZRhOUYlfCPM-514">
          <mxGeometry x="40" y="80" width="40" height="20" as="geometry" />
        </mxCell>
        <mxCell id="bxG6T7_YVZRhOUYlfCPM-522" value="277" style="rounded=0;whiteSpace=wrap;html=1;strokeColor=light-dark(transparent,#FF0700);" vertex="1" parent="bxG6T7_YVZRhOUYlfCPM-514">
          <mxGeometry x="80" y="80" width="40" height="20" as="geometry" />
        </mxCell>
        <mxCell id="bxG6T7_YVZRhOUYlfCPM-523" style="edgeStyle=orthogonalEdgeStyle;rounded=0;orthogonalLoop=1;jettySize=auto;html=1;exitX=0.5;exitY=1;exitDx=0;exitDy=0;entryX=0.5;entryY=0;entryDx=0;entryDy=0;strokeColor=light-dark(transparent,#FF0700);" edge="1" parent="1" source="bxG6T7_YVZRhOUYlfCPM-502" target="bxG6T7_YVZRhOUYlfCPM-509">
          <mxGeometry relative="1" as="geometry" />
        </mxCell>
        <mxCell id="bxG6T7_YVZRhOUYlfCPM-524" style="edgeStyle=orthogonalEdgeStyle;rounded=0;orthogonalLoop=1;jettySize=auto;html=1;exitX=1;exitY=0.5;exitDx=0;exitDy=0;entryX=0;entryY=0.5;entryDx=0;entryDy=0;strokeColor=light-dark(transparent,#FF0700);" edge="1" parent="1" source="bxG6T7_YVZRhOUYlfCPM-506" target="bxG6T7_YVZRhOUYlfCPM-515">
          <mxGeometry relative="1" as="geometry" />
        </mxCell>
        <mxCell id="bxG6T7_YVZRhOUYlfCPM-219" style="edgeStyle=orthogonalEdgeStyle;rounded=0;orthogonalLoop=1;jettySize=auto;html=1;exitX=0;exitY=0.5;exitDx=0;exitDy=0;entryX=1;entryY=0.5;entryDx=0;entryDy=0;strokeColor=light-dark(#000000,#FF0700);" edge="1" parent="1" source="bxG6T7_YVZRhOUYlfCPM-191" target="bxG6T7_YVZRhOUYlfCPM-211">
          <mxGeometry relative="1" as="geometry" />
        </mxCell>
        <mxCell id="M6-bgXXWYcyRra1eUZJ4-70" style="edgeStyle=orthogonalEdgeStyle;rounded=0;orthogonalLoop=1;jettySize=auto;html=1;exitX=1;exitY=0.5;exitDx=0;exitDy=0;entryX=0;entryY=0.5;entryDx=0;entryDy=0;strokeColor=light-dark(#000000,#FF0700);" parent="1" source="M6-bgXXWYcyRra1eUZJ4-46" target="M6-bgXXWYcyRra1eUZJ4-60" edge="1">
          <mxGeometry relative="1" as="geometry" />
        </mxCell>
        <mxCell id="bxG6T7_YVZRhOUYlfCPM-11" style="edgeStyle=orthogonalEdgeStyle;rounded=0;orthogonalLoop=1;jettySize=auto;html=1;exitX=1;exitY=0.5;exitDx=0;exitDy=0;entryX=0;entryY=0.5;entryDx=0;entryDy=0;strokeColor=light-dark(#000000,#FF0700);" edge="1" parent="1" source="M6-bgXXWYcyRra1eUZJ4-60" target="bxG6T7_YVZRhOUYlfCPM-3">
          <mxGeometry relative="1" as="geometry" />
        </mxCell>
      </root>
    </mxGraphModel>
  </diagram>
</mxfile>
